<svg width="80" height="81" viewBox="0 0 80 81" fill="none" xmlns="http://www.w3.org/2000/svg">
<path d="M62.8333 31.875L48.6667 17.7083L53.4167 12.9583C54.6944 11.6806 56.2644 11.0417 58.1267 11.0417C59.9889 11.0417 61.5578 11.6806 62.8333 12.9583L67.5833 17.7083C68.8611 18.9861 69.5 20.5561 69.5 22.4183C69.5 24.2806 68.8611 25.8494 67.5833 27.125L62.8333 31.875ZM9.99999 70.5417V56.375L25 41.375L7.41666 23.625L23.1667 7.875L40.8333 25.625L44 22.4583L58.1667 36.5417L55 39.7083L72.5833 57.4583L56.9167 73.125L39.1667 55.4583L24.1667 70.5417H9.99999ZM29.75 36.625L36.0833 30.2917L32.0833 26.2917L28.0833 30.2083L23.4167 25.5417L27.3333 21.5417L23.0833 17.375L16.8333 23.7083L29.75 36.625ZM56.8333 63.7083L63.1667 57.375L58.9167 53.2083L55 57.125L50.25 52.4583L54.25 48.4583L50.1667 44.4583L43.8333 50.7917L56.8333 63.7083Z" fill="white"/>
</svg>
