<svg width="80" height="80" viewBox="0 0 80 80" fill="none" xmlns="http://www.w3.org/2000/svg">
<path d="M40 2.65625C32.5 2.65625 27.5 7.65625 27.5 12.6562C27.5 20.1562 30 25.1562 32.5 27.6562V30.1562H47.5V27.6562C50 25.1562 52.5 20.1562 52.5 12.6562C52.5 7.65625 47.5 2.65625 40 2.65625ZM30.0625 12.8641L40 16.1719L49.9375 12.8641L43.8125 28.1719L41.1875 27.1406L45.0625 17.4531L40 19.1406L34.9375 17.4531L38.8125 27.1406L36.1875 28.1719L30.0625 12.8641ZM17.0469 25.2188C13.3906 25.6875 10.0781 29.9844 10.0781 35.5156C10.0781 38.5781 11.1406 41.2812 12.6875 43.1562L14.5469 45.375L11.6875 45.9062C9.67188 46.2969 8.20313 47.3594 6.9375 49.0938C5.67188 50.8281 4.70312 53.2344 4.03125 56.0312C2.8125 61.0625 2.53125 67.2188 2.5 72.6562H9.1875L9.5375 77.3438H26.5L26.8125 72.6562H33.1875C33.1875 67.1562 33.125 60.9219 32.0156 55.8281C31.3906 53.0312 30.4688 50.625 29.1875 48.9062C27.9062 47.1875 26.3594 46.125 24.0938 45.7812L21.2031 45.3281L23.0312 43.0312C24.5156 41.1719 25.5156 38.5 25.5156 35.5156C25.5156 29.6094 21.8281 25.2344 17.7969 25.2344L17.0469 25.2188ZM61.3594 25.2188C57.7031 25.6875 54.3906 29.9844 54.3906 35.5156C54.3906 38.5781 55.4531 41.2812 57 43.1562L58.8594 45.375L56 45.9062C53.9844 46.2969 52.5156 47.3594 51.25 49.0938C49.9844 50.8281 49.0156 53.2344 48.3438 56.0312C47.125 61.0625 46.8438 67.2188 46.8125 72.6562H53.5L53.8438 77.3438H70.8125L71.125 72.6562H77.5C77.5 67.1562 77.4375 60.9219 76.3281 55.8281C75.7031 53.0312 74.7812 50.625 73.5 48.9062C72.2188 47.1875 70.6719 46.125 68.4062 45.7812L65.5156 45.3281L67.3438 43.0312C68.8281 41.1719 69.8281 38.5 69.8281 35.5156C69.8281 29.6094 66.1406 25.2344 62.1094 25.2344L61.3594 25.2188ZM32.5 32.8125V35.625H47.5V32.8125H32.5ZM35 38.125V40.9375H45V38.125H35Z" fill="white"/>
</svg>
