<svg width="70" height="75" viewBox="0 0 70 75" fill="none" xmlns="http://www.w3.org/2000/svg">
<path d="M52.5 75C57.1413 75 61.5925 73.1563 64.8744 69.8744C68.1563 66.5925 70 62.1413 70 57.5C70 52.8587 68.1563 48.4075 64.8744 45.1256C61.5925 41.8437 57.1413 40 52.5 40C47.8587 40 43.4075 41.8437 40.1256 45.1256C36.8437 48.4075 35 52.8587 35 57.5C35 62.1413 36.8437 66.5925 40.1256 69.8744C43.4075 73.1563 47.8587 75 52.5 75ZM60.895 52.535L54.22 63.665C53.9267 64.154 53.5257 64.5696 53.0476 64.8803C52.5694 65.191 52.0267 65.3886 51.4608 65.458C50.8948 65.5275 50.3204 65.4669 49.7814 65.281C49.2424 65.095 48.7528 64.7886 48.35 64.385L44.48 60.52C44.0106 60.0506 43.7468 59.4139 43.7468 58.75C43.7468 58.0861 44.0106 57.4494 44.48 56.98C44.9494 56.5106 45.5861 56.2468 46.25 56.2468C46.9139 56.2468 47.5506 56.5106 48.02 56.98L50.755 59.72L56.605 49.965C56.7738 49.6833 56.9963 49.4376 57.26 49.242C57.5237 49.0463 57.8234 48.9045 58.1419 48.8246C58.4604 48.7448 58.7915 48.7284 59.1163 48.7765C59.4412 48.8246 59.7533 48.9363 60.035 49.105C60.3167 49.2738 60.5624 49.4963 60.758 49.76C60.9537 50.0237 61.0955 50.3234 61.1754 50.6419C61.2552 50.9604 61.2716 51.2915 61.2235 51.6163C61.1754 51.9412 61.0637 52.2533 60.895 52.535ZM30 0C22.135 0 14.89 1.445 9.52 3.885C4.375 6.225 0 9.965 0 15C0 20.035 4.375 23.775 9.52 26.115C14.89 28.555 22.135 30 30 30C37.865 30 45.11 28.555 50.48 26.115C55.625 23.775 60 20.035 60 15C60 9.965 55.625 6.225 50.48 3.885C45.11 1.445 37.865 0 30 0Z" fill="white"/>
<path d="M0 30.0002V25.8052C2.285 27.9652 5.02 29.5602 7.45 30.6652C13.61 33.4652 21.59 35.0002 30 35.0002C38.41 35.0002 46.39 33.4652 52.55 30.6652C54.98 29.5652 57.715 27.9652 60 25.8052V30.0002C60 32.1202 59.225 34.0102 57.945 35.6652C53.4713 34.5568 48.7654 34.8458 44.4609 36.4934C40.1565 38.1409 36.4603 41.0679 33.87 44.8802C32.5816 44.9608 31.2909 45.0008 30 45.0002C22.135 45.0002 14.89 43.5552 9.52 41.1152C4.375 38.7752 0 35.0352 0 30.0002ZM31.285 49.9902L30 50.0002C21.59 50.0002 13.61 48.4652 7.45 45.6652C5.02 44.5652 2.285 42.9652 0 40.8052V45.0002C0 50.0352 4.375 53.7752 9.52 56.1152C14.89 58.5552 22.135 60.0002 30 60.0002H30.135C29.7657 56.6195 30.1586 53.199 31.285 49.9902ZM31.275 64.9902L30 65.0002C21.59 65.0002 13.61 63.4652 7.45 60.6652C5.02 59.5652 2.285 57.9652 0 55.8052V60.0002C0 65.0352 4.375 68.7752 9.52 71.1152C14.89 73.5552 22.135 75.0002 30 75.0002C32.68 75.0002 35.29 74.8302 37.775 74.5152C34.8189 71.9577 32.5789 68.6752 31.275 64.9902Z" fill="white"/>
</svg>
