<?xml version="1.0" encoding="UTF-8" standalone="no"?>
<!DOCTYPE svg PUBLIC "-//W3C//DTD SVG 1.1//EN" "http://www.w3.org/Graphics/SVG/1.1/DTD/svg11.dtd">
<!-- Created with Vectornator (http://vectornator.io/) -->
<svg height="100%" stroke-miterlimit="10" style="fill-rule:nonzero;clip-rule:evenodd;stroke-linecap:round;stroke-linejoin:round;" version="1.1" viewBox="0 0 95.0705 83.1451" width="100%" xml:space="preserve" xmlns="http://www.w3.org/2000/svg" xmlns:vectornator="http://vectornator.io" xmlns:xlink="http://www.w3.org/1999/xlink">
<defs/>
<g id="Calque-1" vectornator:layerName="Calque 1">
<path d="M85.1311 47.2824C86.2661 45.1274 86.9161 42.6774 86.9161 40.0724C86.9161 33.4514 82.7571 27.8154 76.9151 25.5944C76.9151 25.5874 76.9161 25.5804 76.9161 25.5724C76.9161 13.9744 67.5141 4.57242 55.9161 4.57242C46.1321 4.57242 37.9351 11.2734 35.6031 20.3294C34.1271 19.8444 32.5541 19.5724 30.9161 19.5724C23.2241 19.5724 16.8931 25.3654 16.0261 32.8244C10.8221 33.9254 6.91615 38.5414 6.91615 44.0724C6.91615 50.4234 12.0651 55.5724 18.4161 55.5724C18.5931 55.5724 18.7681 55.5604 18.9421 55.5504C18.9381 55.7254 18.9161 55.8964 18.9161 56.0724C18.9161 67.3944 28.0941 76.5724 39.4161 76.5724C45.8531 76.5724 51.5911 73.6004 55.3501 68.9584C57.5281 71.1834 60.5561 72.5724 63.9161 72.5724C68.5661 72.5724 72.5901 69.9224 74.5821 66.0544C75.6341 66.3894 76.7531 66.5724 77.9161 66.5724C83.9911 66.5724 88.9161 61.6474 88.9161 55.5724C88.9161 52.2614 87.4461 49.2994 85.1311 47.2824Z" fill="#c7ede6" fill-rule="nonzero" opacity="1" stroke="none" vectornator:layerName="path"/>
<path d="M33.3211 70.5724L23.4161 70.5724C23.1401 70.5724 22.9161 70.3484 22.9161 70.0724C22.9161 69.7964 23.1401 69.5724 23.4161 69.5724L33.3211 69.5724C33.5971 69.5724 33.8211 69.7964 33.8211 70.0724C33.8211 70.3484 33.5981 70.5724 33.3211 70.5724ZM36.4161 70.5724L35.4161 70.5724C35.1401 70.5724 34.9161 70.3484 34.9161 70.0724C34.9161 69.7964 35.1401 69.5724 35.4161 69.5724L36.4161 69.5724C36.6921 69.5724 36.9161 69.7964 36.9161 70.0724C36.9161 70.3484 36.6931 70.5724 36.4161 70.5724ZM41.4071 72.5724L32.4161 72.5724C32.1401 72.5724 31.9161 72.3484 31.9161 72.0724C31.9161 71.7964 32.1401 71.5724 32.4161 71.5724L41.4071 71.5724C41.6831 71.5724 41.9071 71.7964 41.9071 72.0724C41.9071 72.3484 41.6831 72.5724 41.4071 72.5724ZM30.4161 72.5724L29.4161 72.5724C29.1401 72.5724 28.9161 72.3484 28.9161 72.0724C28.9161 71.7964 29.1401 71.5724 29.4161 71.5724L30.4161 71.5724C30.6921 71.5724 30.9161 71.7964 30.9161 72.0724C30.9161 72.3484 30.6931 72.5724 30.4161 72.5724ZM27.4161 72.5724L25.4161 72.5724C25.1401 72.5724 24.9161 72.3484 24.9161 72.0724C24.9161 71.7964 25.1401 71.5724 25.4161 71.5724L27.4161 71.5724C27.6921 71.5724 27.9161 71.7964 27.9161 72.0724C27.9161 72.3484 27.6931 72.5724 27.4161 72.5724ZM33.4161 74.5724L31.4161 74.5724C31.1401 74.5724 30.9161 74.3484 30.9161 74.0724C30.9161 73.7964 31.1401 73.5724 31.4161 73.5724L33.4161 73.5724C33.6921 73.5724 33.9161 73.7964 33.9161 74.0724C33.9161 74.3484 33.6921 74.5724 33.4161 74.5724ZM36.4161 65.5724C36.2391 65.5724 35.5931 65.5724 35.4161 65.5724C35.1401 65.5724 34.9161 65.7964 34.9161 66.0724C34.9161 66.3484 35.1401 66.5724 35.4161 66.5724C35.5931 66.5724 36.2391 66.5724 36.4161 66.5724C36.6921 66.5724 36.9161 66.3484 36.9161 66.0724C36.9161 65.7964 36.6921 65.5724 36.4161 65.5724ZM36.4161 67.5724C36.2391 67.5724 31.5931 67.5724 31.4161 67.5724C31.1401 67.5724 30.9161 67.7964 30.9161 68.0724C30.9161 68.3484 31.1401 68.5724 31.4161 68.5724C31.5931 68.5724 36.2391 68.5724 36.4161 68.5724C36.6921 68.5724 36.9161 68.3484 36.9161 68.0724C36.9161 67.7964 36.6921 67.5724 36.4161 67.5724ZM41.4161 69.5724C41.2391 69.5724 38.5931 69.5724 38.4161 69.5724C38.1401 69.5724 37.9161 69.7964 37.9161 70.0724C37.9161 70.3484 38.1401 70.5724 38.4161 70.5724C38.5931 70.5724 41.2391 70.5724 41.4161 70.5724C41.6921 70.5724 41.9161 70.3484 41.9161 70.0724C41.9161 69.7964 41.6921 69.5724 41.4161 69.5724ZM80.9161 32.5724L70.9161 32.5724C70.6401 32.5724 70.4161 32.3484 70.4161 32.0724C70.4161 31.7964 70.6401 31.5724 70.9161 31.5724L80.9161 31.5724C81.1921 31.5724 81.4161 31.7964 81.4161 32.0724C81.4161 32.3484 81.1921 32.5724 80.9161 32.5724ZM84.9161 32.5724L82.9161 32.5724C82.6401 32.5724 82.4161 32.3484 82.4161 32.0724C82.4161 31.7964 82.6401 31.5724 82.9161 31.5724L84.9161 31.5724C85.1921 31.5724 85.4161 31.7964 85.4161 32.0724C85.4161 32.3484 85.1921 32.5724 84.9161 32.5724ZM89.9161 34.5724L79.9161 34.5724C79.6401 34.5724 79.4161 34.3484 79.4161 34.0724C79.4161 33.7964 79.6401 33.5724 79.9161 33.5724L89.9161 33.5724C90.1921 33.5724 90.4161 33.7964 90.4161 34.0724C90.4161 34.3484 90.1931 34.5724 89.9161 34.5724ZM77.9161 34.5724L76.9161 34.5724C76.6401 34.5724 76.4161 34.3484 76.4161 34.0724C76.4161 33.7964 76.6401 33.5724 76.9161 33.5724L77.9161 33.5724C78.1921 33.5724 78.4161 33.7964 78.4161 34.0724C78.4161 34.3484 78.1921 34.5724 77.9161 34.5724ZM74.7911 34.5724L72.9161 34.5724C72.6401 34.5724 72.4161 34.3484 72.4161 34.0724C72.4161 33.7964 72.6401 33.5724 72.9161 33.5724L74.7911 33.5724C75.0671 33.5724 75.2911 33.7964 75.2911 34.0724C75.2911 34.3484 75.0671 34.5724 74.7911 34.5724ZM83.9161 30.5724L78.9161 30.5724C78.6401 30.5724 78.4161 30.3484 78.4161 30.0724C78.4161 29.7964 78.6401 29.5724 78.9161 29.5724L83.9161 29.5724C84.1921 29.5724 84.4161 29.7964 84.4161 30.0724C84.4161 30.3484 84.1931 30.5724 83.9161 30.5724ZM80.9161 36.5724L78.9161 36.5724C78.6401 36.5724 78.4161 36.3484 78.4161 36.0724C78.4161 35.7964 78.6401 35.5724 78.9161 35.5724L80.9161 35.5724C81.1921 35.5724 81.4161 35.7964 81.4161 36.0724C81.4161 36.3484 81.1921 36.5724 80.9161 36.5724Z" fill="#ffffff" fill-rule="nonzero" opacity="1" stroke="none" vectornator:layerName="path"/>
<path d="M18.1661 50.0724C18.1661 50.0724 16.5991 50.0724 14.6661 50.0724C12.7331 50.0724 11.1661 48.5054 11.1661 46.5724C11.1661 44.7914 12.5011 43.3384 14.2211 43.1174C14.1931 42.9384 14.1661 42.7594 14.1661 42.5724C14.1661 40.6394 15.7331 39.0724 17.6661 39.0724C18.6981 39.0724 19.6161 39.5274 20.2561 40.2374C20.6401 38.4294 22.2431 37.0724 24.1661 37.0724C26.3751 37.0724 28.1661 38.8634 28.1661 41.0724C28.1661 41.2634 28.1361 41.4464 28.1101 41.6304C28.5381 41.2864 29.0751 41.0724 29.6661 41.0724C30.8941 41.0724 31.9111 41.9594 32.1211 43.1274C32.3001 43.0994 32.4791 43.0724 32.6661 43.0724C34.5991 43.0724 36.1661 44.6394 36.1661 46.5724C36.1661 48.5054 34.5991 50.0724 32.6661 50.0724C30.7331 50.0724 25.1661 50.0724 25.1661 50.0724L25.1661 50.5724L18.1661 50.5724L18.1661 50.0724Z" fill="#fdfcef" fill-rule="nonzero" opacity="1" stroke="none" vectornator:layerName="path"/>
<path d="M16.4161 45.5724C16.5541 45.5724 16.6661 45.4604 16.6661 45.3224C16.6661 44.0994 15.6711 43.1044 14.4481 43.1044C14.4141 43.1134 13.7111 43.1034 13.2041 43.2404C13.0711 43.2764 12.9921 43.4134 13.0281 43.5464C13.0641 43.6804 13.2011 43.7594 13.3341 43.7224C13.7781 43.6024 14.4341 43.6024 14.4471 43.6044C15.3951 43.6044 16.1661 44.3754 16.1661 45.3224C16.1661 45.4604 16.2781 45.5724 16.4161 45.5724ZM23.1661 49.5724C22.89 49.5724 22.6661 49.7963 22.6661 50.0724C22.6661 50.3486 22.89 50.5724 23.1661 50.5724C23.4423 50.5724 23.6661 50.3486 23.6661 50.0724C23.6661 49.7963 23.4423 49.5724 23.1661 49.5724Z" fill="#472b29" fill-rule="nonzero" opacity="1" stroke="none" vectornator:layerName="path"/>
<path d="M14.6661 50.5724L18.1661 50.5724C18.4421 50.5724 18.6661 50.3484 18.6661 50.0724C18.6661 49.7964 18.4421 49.5724 18.1661 49.5724L14.6661 49.5724C13.0121 49.5724 11.6661 48.2264 11.6661 46.5724C11.6661 45.0764 12.7911 43.8044 14.2841 43.6134C14.4181 43.5954 14.5391 43.5254 14.6201 43.4174C14.7011 43.3094 14.7351 43.1734 14.7141 43.0404C14.6911 42.8864 14.6661 42.7324 14.6661 42.5724C14.6661 40.9184 16.0121 39.5724 17.6661 39.5724C18.5161 39.5724 19.3041 39.9274 19.8851 40.5724C20.0101 40.7114 20.2061 40.7704 20.3851 40.7204C20.5671 40.6714 20.7061 40.5254 20.7451 40.3414C21.0861 38.7374 22.5251 37.5724 24.1661 37.5724C26.0961 37.5724 27.6661 39.1424 27.6661 41.0724C27.6661 41.2154 27.6451 41.3524 27.6251 41.4904C27.5961 41.6934 27.6881 41.9284 27.8671 42.0304C28.0461 42.1324 28.2631 42.1484 28.4231 42.0204C28.7881 41.7274 29.2171 41.5724 29.6661 41.5724C30.6321 41.5724 31.4581 42.2634 31.6291 43.2164C31.6771 43.4834 31.9251 43.6624 32.1981 43.6214C32.3521 43.5974 32.5061 43.5724 32.6661 43.5724C34.3201 43.5724 35.6661 44.9184 35.6661 46.5724C35.6661 48.2264 34.3201 49.5724 32.6661 49.5724L25.1661 49.5724C24.8901 49.5724 24.6661 49.7964 24.6661 50.0724C24.6661 50.3484 24.8901 50.5724 25.1661 50.5724L32.6661 50.5724C34.8721 50.5724 36.6661 48.7784 36.6661 46.5724C36.6661 44.3664 34.8721 42.5724 32.6661 42.5724C32.6071 42.5724 32.5501 42.5744 32.4921 42.5784C32.0781 41.3924 30.9551 40.5724 29.6661 40.5724C29.3171 40.5724 28.9771 40.6334 28.6551 40.7524C28.4901 38.4194 26.5401 36.5724 24.1661 36.5724C22.3351 36.5724 20.7001 37.6994 20.0131 39.3464C19.3331 38.8484 18.5111 38.5724 17.6661 38.5724C15.4601 38.5724 13.6661 40.3664 13.6661 42.5724C13.6661 42.6204 13.6671 42.6674 13.6701 42.7144C11.9271 43.1624 10.6661 44.7414 10.6661 46.5724C10.6661 48.7784 12.4601 50.5724 14.6661 50.5724Z" fill="#472b29" fill-rule="nonzero" opacity="1" stroke="none" vectornator:layerName="path"/>
<path d="M20.1661 49.5724C20.3251 49.5724 21.0071 49.5724 21.1661 49.5724C21.4421 49.5724 21.6661 49.7964 21.6661 50.0724C21.6661 50.3484 21.4421 50.5724 21.1661 50.5724C21.0071 50.5724 20.3251 50.5724 20.1661 50.5724C19.8901 50.5724 19.6661 50.3484 19.6661 50.0724C19.6661 49.7964 19.8901 49.5724 20.1661 49.5724Z" fill="#472b29" fill-rule="nonzero" opacity="1" stroke="none" vectornator:layerName="path"/>
<path d="M40.1221 33.4674C39.9641 33.1204 36.2851 24.9084 39.0801 19.3244C40.2371 17.0114 42.3371 15.4974 45.3201 14.8224C47.0391 13.6374 49.1001 12.9864 51.1371 12.9864C52.8461 12.9864 54.5051 13.4284 56.0691 14.3004C59.9521 16.4654 62.3391 20.7444 62.8311 22.3634C64.6701 28.4004 61.8201 33.3074 61.6981 33.5134L60.7581 35.1004L60.7691 33.2554C60.7691 33.2054 60.7841 28.5314 59.6741 25.5404C58.2541 26.3334 56.5301 26.7504 54.6491 26.7504C51.4021 26.7504 47.8111 25.5644 44.2461 23.3194C41.0791 25.8074 41.0781 33.1784 41.0781 33.2554L41.0901 35.5874L40.1221 33.4674Z" fill="#be7841" fill-rule="nonzero" opacity="1" stroke="none" vectornator:layerName="path"/>
<path d="M51.1361 13.4864C52.6481 13.4864 54.2451 13.8564 55.8261 14.7374C59.6471 16.8684 61.9131 21.0644 62.3531 22.5094C64.1481 28.4044 61.2681 33.2594 61.2681 33.2594C61.2681 33.2594 61.3031 27.8774 59.9141 24.8104C58.4811 25.7564 56.6841 26.2504 54.6481 26.2504C51.5711 26.2504 47.9501 25.1214 44.2281 22.7164C40.5341 25.1744 40.5781 33.2594 40.5781 33.2594C40.5781 33.2594 33.5821 17.8994 45.5271 15.2874C47.0441 14.2194 49.0071 13.4864 51.1361 13.4864M51.1361 12.4864C49.0301 12.4864 46.9011 13.1494 45.1161 14.3564C42.0291 15.0764 39.8481 16.6714 38.6321 19.1004C35.7311 24.8964 39.5041 33.3194 39.6661 33.6754L41.5961 37.9134L41.5761 33.2564C41.5671 31.2914 42.0551 26.0544 44.2931 23.9414C47.8351 26.1094 51.4021 27.2524 54.6471 27.2524C56.3871 27.2524 58.0021 26.9094 59.3861 26.2534C60.2821 29.1474 60.2671 33.2094 60.2671 33.2544L60.2431 36.9464L62.1271 33.7704C62.2541 33.5564 65.2101 28.4644 63.3081 22.2184C62.7751 20.4684 60.3641 16.1234 56.3121 13.8644C54.6741 12.9504 52.9321 12.4864 51.1361 12.4864L51.1361 12.4864Z" fill="#472b29" fill-rule="nonzero" opacity="1" stroke="none" vectornator:layerName="path"/>
<path d="M65.8001 55.7754C65.1291 55.3014 56.5241 52.2844 56.5241 52.2844C55.9771 52.1374 55.6731 51.6894 55.5751 51.1894C55.2991 49.7734 55.3321 46.3674 55.3391 45.7594C55.3401 45.7114 55.2961 45.6754 55.2421 45.6754L54.9171 45.6754L46.9381 45.6754L46.6131 45.6754C46.5591 45.6754 46.5161 45.7124 46.5161 45.7594C46.5221 46.3614 46.5501 49.6984 46.2801 51.1894C46.1891 51.6914 45.8781 52.1374 45.3311 52.2844L38.2971 54.7314C37.5931 54.9264 36.9161 55.2054 36.3221 55.5944C33.2171 57.6254 33.1281 60.9494 32.9991 61.5684C32.9881 61.6214 33.0341 61.6694 33.0941 61.6694L50.9271 61.6694L68.7601 61.6694C68.8211 61.6694 68.8661 61.6214 68.8551 61.5684C68.7321 60.9664 68.6861 57.8164 65.8001 55.7754Z" fill="#fabf82" fill-rule="nonzero" opacity="1" stroke="none" vectornator:layerName="path"/>
<path d="M55.2431 45.6744C55.2971 45.6744 55.3401 45.7104 55.3401 45.7584C55.3331 46.3664 55.3001 49.7724 55.5761 51.1884C55.6741 51.6894 55.9781 52.1364 56.5251 52.2834C56.5251 52.2834 65.1301 55.2994 65.8011 55.7744C68.6871 57.8164 68.7331 60.9664 68.8581 61.5664C68.8691 61.6194 68.8231 61.6674 68.7631 61.6674L50.9291 61.6674L33.0961 61.6674C33.0351 61.6674 32.9901 61.6194 33.0011 61.5664C33.1301 60.9474 33.2191 57.6234 36.3241 55.5924C36.9181 55.2034 37.5951 54.9254 38.2991 54.7294L45.3331 52.2824C45.8801 52.1354 46.1911 51.6894 46.2821 51.1874C46.5521 49.6964 46.5241 46.3594 46.5181 45.7574C46.5171 45.7094 46.5611 45.6734 46.6141 45.6734L46.9391 45.6734L54.9181 45.6734L55.2431 45.6744M55.2431 44.6744L54.9181 44.6744L46.9391 44.6744L46.6141 44.6744C46.3201 44.6744 46.0341 44.7934 45.8291 45.0004C45.6251 45.2074 45.5141 45.4804 45.5171 45.7704C45.5371 47.6074 45.4891 49.9504 45.2971 51.0104C45.2501 51.2704 45.1161 51.3064 45.0721 51.3184L45.0371 51.3274L45.0031 51.3394L37.9981 53.7764C37.1561 54.0124 36.4081 54.3424 35.7751 54.7564C32.6361 56.8094 32.1981 60.0604 32.0541 61.1284C32.0401 61.2304 32.0311 61.3104 32.0201 61.3634C31.9541 61.6824 32.0341 62.0104 32.2401 62.2634C32.4491 62.5204 32.7601 62.6674 33.0941 62.6674L50.9271 62.6674L68.7601 62.6674C69.0941 62.6674 69.4051 62.5204 69.6141 62.2634C69.8201 62.0104 69.9001 61.6824 69.8341 61.3634C69.8231 61.3084 69.8141 61.2264 69.8001 61.1224C69.6561 59.9974 69.2751 57.0104 66.3751 54.9584C65.6921 54.4754 60.1161 52.4844 56.8531 51.3404L56.8181 51.3284L56.7821 51.3184C56.7391 51.3064 56.6081 51.2714 56.5551 50.9974C56.3601 49.9974 56.3151 47.6414 56.3381 45.7704C56.3411 45.4804 56.2311 45.2064 56.0261 45.0004C55.8231 44.7934 55.5371 44.6744 55.2431 44.6744L55.2431 44.6744Z" fill="#472b29" fill-rule="nonzero" opacity="1" stroke="none" vectornator:layerName="path"/>
<path d="M64.5661 35.0914C64.7191 34.5664 64.8481 34.0504 65.0301 33.5384C65.2671 32.8684 65.0991 32.4384 64.3571 32.0234C64.3231 32.0044 64.2951 31.9824 64.2661 31.9604C64.1471 31.9414 64.0331 31.9264 63.9371 31.9144C63.2691 31.8354 62.0821 31.8004 61.7371 31.1044C61.3461 30.3154 61.5401 29.4774 61.6411 28.6444C61.7521 27.7274 61.4081 26.8444 61.4051 25.9304C61.3431 25.8404 61.2991 25.7344 61.2861 25.6074C61.1491 24.2584 60.7561 22.9684 60.2311 21.7214C58.3841 19.2724 54.9341 17.6204 50.9871 17.6204C45.1001 17.6204 40.3101 21.2924 40.3101 25.8054C40.3101 26.0194 40.3241 26.2304 40.3461 26.4394C40.2881 27.2554 40.2111 27.9824 40.2481 28.8754C40.2811 29.6654 40.1661 30.2524 40.2421 31.2954C40.2851 31.8834 40.0171 31.5044 39.0781 31.5504C38.9581 31.5504 38.8421 31.5514 38.7281 31.5594C37.6981 31.6284 36.8651 32.2914 36.6871 33.1124C36.8131 33.1904 36.9141 33.3144 36.9601 33.4984C37.3351 35.0224 37.2831 36.7854 38.0421 38.2014C38.4661 38.9924 39.1281 39.1024 39.8081 39.6124C40.1851 39.8954 40.2571 40.2144 40.3601 40.6374C40.7421 42.2024 41.8011 43.5334 42.9631 44.6694C43.5511 45.2444 44.1821 45.7614 44.8191 46.2844C45.3481 46.7184 45.9021 47.2204 46.5571 47.4784C46.7761 47.5644 46.9121 47.7194 46.9781 47.8934C47.4121 48.1264 48.0261 48.4544 48.0261 48.4484C50.1231 49.2914 52.1341 49.3634 54.2561 48.4074C54.2561 48.4154 54.2561 48.4234 54.2561 48.4314C54.2671 48.4244 55.2891 47.9304 55.7071 47.6994C55.7401 47.6544 55.7781 47.6094 55.8281 47.5674C56.4711 47.0234 57.1831 46.5694 57.8451 46.0494C58.3891 45.6214 58.8351 45.1484 59.2561 44.6344C59.1591 44.4114 59.3741 44.6034 59.5741 44.3704C60.5151 43.2774 61.3991 41.5554 61.5521 40.1534C61.5601 40.0814 61.6121 40.0294 61.6501 39.9774C61.5281 39.5884 61.8301 39.3764 62.3861 39.3614C62.8881 39.3484 63.1871 38.7794 63.5721 38.5054C63.8591 37.4034 64.2481 36.1794 64.5661 35.0914Z" fill="#fddbbc" fill-rule="nonzero" opacity="1" stroke="none" vectornator:layerName="path"/>
<path d="M62.0201 34.1714C62.0321 33.9934 62.0351 33.8144 62.0151 33.6374L63.3471 33.8954L62.8641 36.3134L62.3271 36.2154L62.7081 34.3044L62.0201 34.1714Z" fill="#8e7469" fill-rule="nonzero" opacity="0.8" stroke="none" vectornator:layerName="path"/>
<path d="M63.8191 31.5834C63.3611 31.4674 62.8751 31.4564 62.3601 31.3924C62.3601 31.3374 62.2291 31.4514 62.2291 31.3964C61.9041 31.3644 61.7321 30.9804 61.7271 30.5794C61.7181 29.7704 61.6171 28.8834 61.6891 28.0354C61.7101 27.2704 61.5731 26.7814 61.4261 26.2394C61.4491 26.0174 61.4631 25.7934 61.4631 25.5664C61.4631 20.9274 56.6731 17.1534 50.7861 17.1534C44.8991 17.1534 40.1091 20.9274 40.1091 25.5664C40.1091 25.7864 40.1231 26.0034 40.1451 26.2184C40.0871 27.0574 40.0101 27.8044 40.0471 28.7214C40.0801 29.5334 39.9651 30.1364 40.0411 31.2084C40.0841 31.8124 39.8161 31.4234 38.8771 31.4704C38.7571 31.4704 38.6411 31.4714 38.5271 31.4794C37.2501 31.5674 36.2741 32.5934 36.4771 33.7034C36.7121 34.9894 36.9931 36.2684 37.3111 37.5384C37.6261 38.7944 38.2471 39.8234 39.7531 39.9694C39.9471 41.6034 40.2931 42.4334 41.3231 43.7214C42.7221 45.4714 44.3811 46.9634 46.3861 48.0514C46.5941 48.1644 47.8261 48.8464 47.8261 48.8374C49.9231 49.7044 51.9341 49.7774 54.0561 48.7954C54.0561 48.8034 54.0561 48.8114 54.0561 48.8204C54.0691 48.8124 55.3921 48.1544 55.6421 47.9864C56.6481 47.3104 57.6741 46.6344 58.5591 45.8264C60.3141 44.2244 61.9701 42.5264 62.1431 39.9644C63.6311 39.8304 64.2481 38.8164 64.5661 37.5894C64.8771 36.3874 65.1031 35.1644 65.3541 33.9484C65.5941 32.7824 65.0281 31.8884 63.8191 31.5834ZM39.7491 39.0874C39.0031 39.1064 38.5091 38.8124 38.2481 37.9784C37.8901 36.8354 37.3561 34.4504 37.3501 34.4294C36.7861 32.6904 37.8511 31.9184 39.7491 32.2834L39.7491 33.2934C39.7401 33.2934 39.7301 34.1324 39.7501 34.1364L39.7491 39.0874L39.7491 39.0874ZM61.3181 40.2804C61.3141 40.7314 61.2391 41.2404 61.0131 41.6234C58.9321 45.1464 56.0031 47.7084 51.8061 48.7254C50.3501 49.0784 48.9861 48.5714 47.7191 47.9644C45.0661 46.6924 42.9431 44.8254 41.3211 42.4484C40.7901 41.6694 40.5051 40.8334 40.5461 39.8764C40.6001 38.6124 40.5591 37.3444 40.5591 36.0774C40.5591 35.9214 40.5711 35.7654 40.5571 35.6114C40.2451 32.1344 40.9681 25.6934 40.9681 25.5664C40.9681 21.3794 45.3721 17.9734 50.7861 17.9734C56.2001 17.9734 60.7811 21.3794 60.7811 25.5664C60.7811 25.6524 60.8151 25.7534 60.8121 25.8384C61.1831 26.1934 60.9091 29.5774 61.2941 31.2844C61.3371 31.4774 61.3301 31.6824 61.3301 31.8814C61.3331 34.6814 61.3451 37.4814 61.3181 40.2804ZM64.6541 33.6584C64.3781 35.1164 64.0421 36.5674 63.6331 37.9964C63.4021 38.8034 62.9671 39.0464 62.1411 39.1244L62.1411 34.1474C62.1431 34.1464 62.1451 34.1464 62.1461 34.1464C62.1451 34.1304 62.1421 34.1164 62.1421 34.0994L62.1421 33.0484C62.1361 33.0454 62.1301 33.0424 62.1241 33.0394L62.1241 32.2004C62.5681 32.2004 62.9811 32.1734 63.3901 32.2064C64.2161 32.2734 64.8021 32.8734 64.6541 33.6584Z" fill="#472b29" fill-rule="nonzero" opacity="1" stroke="none" vectornator:layerName="path"/>
<path d="M39.9421 34.6054C39.9291 34.4184 39.9271 34.2304 39.9471 34.0444L38.5481 34.3154L39.0551 36.8574L39.6201 36.7544L39.2191 34.7454L39.9421 34.6054Z" fill="#8e7469" fill-rule="nonzero" opacity="0.8" stroke="none" vectornator:layerName="path"/>
<path d="M50.8791 39.0664C51.5861 39.0664 52.2721 38.7574 52.7141 38.2404C52.7581 38.1884 52.7521 38.1104 52.7011 38.0654L52.7011 38.0654C52.6491 38.0214 52.5711 38.0264 52.5261 38.0774C52.1661 38.4884 51.5661 38.7244 50.8801 38.7244C50.1931 38.7244 49.5931 38.4884 49.2331 38.0774C49.2081 38.0494 49.1741 38.0354 49.1391 38.0354C49.1101 38.0354 49.0811 38.0454 49.0581 38.0654C49.0061 38.1104 49.0001 38.1884 49.0451 38.2404C49.4861 38.7574 50.1721 39.0664 50.8791 39.0664Z" fill="#472b29" fill-rule="nonzero" opacity="1" stroke="none" vectornator:layerName="path"/>
<path d="M48.6221 29.5074L49.0711 28.6454C47.1731 28.2004 44.9881 28.2714 43.1841 28.8314L43.7501 29.6714C45.2321 29.1814 47.0551 29.1194 48.6221 29.5074ZM58.1261 29.5074L58.5751 28.6454C56.6771 28.2004 54.4921 28.2714 52.6881 28.8314L53.2541 29.6714C54.7361 29.1814 56.5591 29.1194 58.1261 29.5074Z" fill="#472b29" fill-rule="nonzero" opacity="1" stroke="none" vectornator:layerName="path"/>
<path d="M45.8901 30.7234C45.4341 30.7234 45.0341 31.0254 44.8031 31.4804C44.8611 31.4624 44.9201 31.4504 44.9831 31.4504C45.3571 31.4504 45.6601 31.7884 45.6601 32.2064C45.6601 32.6244 45.3571 32.9624 44.9831 32.9624C44.8611 32.9624 44.7471 32.9234 44.6481 32.8594C44.8081 33.5444 45.3031 34.0434 45.8901 34.0434C46.6061 34.0434 47.1871 33.3004 47.1871 32.3834C47.1871 31.4664 46.6071 30.7234 45.8901 30.7234ZM55.8131 30.7234C55.4241 30.7234 55.0761 30.9434 54.8381 31.2914C54.9121 31.2604 54.9921 31.2404 55.0761 31.2404C55.4501 31.2404 55.7531 31.5784 55.7531 31.9964C55.7531 32.4134 55.4501 32.7524 55.0761 32.7524C54.8441 32.7524 54.6401 32.6214 54.5181 32.4234C54.5351 33.3214 55.1081 34.0434 55.8131 34.0434C56.5291 34.0434 57.1101 33.3004 57.1101 32.3834C57.1101 31.4664 56.5301 30.7234 55.8131 30.7234Z" fill="#472b29" fill-rule="nonzero" opacity="1" stroke="none" vectornator:layerName="path"/>
<path d="M56.3631 40.9894C56.4161 40.9464 56.4241 40.8674 56.3811 40.8154L56.3811 40.8154C56.3381 40.7624 56.2601 40.7534 56.2061 40.7964C55.0371 41.7284 53.0951 42.2634 50.8791 42.2634C48.6631 42.2634 46.7211 41.7284 45.5511 40.7964C45.5281 40.7784 45.5011 40.7694 45.4731 40.7694C45.4371 40.7694 45.4001 40.7854 45.3761 40.8154C45.3331 40.8684 45.3411 40.9464 45.3941 40.9904C46.7141 42.0694 48.7641 42.7134 50.8781 42.7134C52.9931 42.7124 55.0431 42.0684 56.3631 40.9894Z" fill="#472b29" fill-rule="nonzero" opacity="1" stroke="none" vectornator:layerName="path"/>
<path d="M65.9201 55.6804C65.2471 55.1984 64.4711 54.8444 63.6491 54.6134L62.7841 54.3804C62.7901 54.3784 62.7961 54.3774 62.8011 54.3754L58.2931 52.8924C56.0061 53.5154 53.5521 53.8574 50.9941 53.8574C48.4361 53.8574 45.9821 53.5144 43.6951 52.8924L39.1871 54.3754C39.1931 54.3774 39.1991 54.3784 39.2051 54.3804L38.3181 54.6194C37.6111 54.8174 36.9321 55.1004 36.3361 55.4954C33.2191 57.5594 33.1301 60.9364 33.0011 61.5644C32.9901 61.6184 33.0361 61.6664 33.0961 61.6664L50.9941 61.6664L68.8921 61.6664C68.9531 61.6664 68.9981 61.6174 68.9871 61.5644C68.8621 60.9554 68.8171 57.7554 65.9201 55.6804Z" fill="#68c8d0" fill-rule="nonzero" opacity="1" stroke="none" vectornator:layerName="path"/>
<path d="M50.9081 54.1084C48.4991 54.1084 45.6771 53.7164 43.1651 53.0334C43.0321 52.9974 42.9531 52.8594 42.9891 52.7264C43.0251 52.5934 43.1611 52.5164 43.2961 52.5504C45.7671 53.2224 48.5421 53.6084 50.9081 53.6084C51.8371 53.6084 52.7751 53.5614 53.6981 53.4694C53.8411 53.4544 53.9581 53.5574 53.9711 53.6944C53.9851 53.8314 53.8851 53.9544 53.7471 53.9674C52.8091 54.0604 51.8541 54.1084 50.9081 54.1084Z" fill="#472b29" fill-rule="nonzero" opacity="1" stroke="none" vectornator:layerName="path"/>
<path d="M55.5381 53.7264C55.4181 53.7264 55.3121 53.6394 55.2921 53.5164C55.2701 53.3804 55.3621 53.2514 55.4981 53.2294C55.6861 53.1994 55.8751 53.1654 56.0611 53.1294C56.2321 53.0974 56.4031 53.0634 56.5741 53.0274C56.7071 53.0064 56.8411 53.0864 56.8691 53.2224C56.8961 53.3574 56.8091 53.4894 56.6741 53.5174C56.5021 53.5524 56.3281 53.5864 56.1531 53.6204C55.9621 53.6564 55.7701 53.6904 55.5781 53.7234C55.5651 53.7254 55.5511 53.7264 55.5381 53.7264Z" fill="#472b29" fill-rule="nonzero" opacity="1" stroke="none" vectornator:layerName="path"/>
<path d="M33.0961 61.8184C33.0681 61.8184 33.0391 61.8104 33.0141 61.7944C32.9451 61.7484 32.9251 61.6554 32.9711 61.5864L37.7961 54.2034C37.8411 54.1344 37.9351 54.1134 38.0041 54.1594C38.0731 54.2054 38.0931 54.2984 38.0471 54.3674L33.2221 61.7504C33.1931 61.7934 33.1451 61.8184 33.0961 61.8184Z" fill="#472b29" fill-rule="nonzero" opacity="1" stroke="none" vectornator:layerName="path"/>
<path d="M34.5821 62.0664C34.5541 62.0664 34.5251 62.0584 34.5001 62.0424C34.4311 61.9964 34.4111 61.9034 34.4571 61.8344L39.8451 53.5904C39.8901 53.5204 39.9841 53.5004 40.0531 53.5464C40.1221 53.5924 40.1421 53.6854 40.0961 53.7544L34.7081 61.9984C34.6791 62.0414 34.6311 62.0664 34.5821 62.0664Z" fill="#472b29" fill-rule="nonzero" opacity="1" stroke="none" vectornator:layerName="path"/>
<path d="M36.4201 61.8184C36.3921 61.8184 36.3631 61.8104 36.3381 61.7944C36.2691 61.7484 36.2491 61.6554 36.2951 61.5864L41.6831 53.3424C41.7281 53.2734 41.8221 53.2534 41.8911 53.2984C41.9601 53.3444 41.9801 53.4374 41.9341 53.5064L36.5461 61.7504C36.5171 61.7934 36.4691 61.8184 36.4201 61.8184Z" fill="#472b29" fill-rule="nonzero" opacity="1" stroke="none" vectornator:layerName="path"/>
<path d="M37.9221 62.0664C37.8941 62.0664 37.8651 62.0584 37.8401 62.0424C37.7711 61.9964 37.7511 61.9034 37.7971 61.8344L43.1851 53.5904C43.2311 53.5204 43.3241 53.5004 43.3931 53.5464C43.4621 53.5924 43.4821 53.6854 43.4361 53.7544L38.0481 61.9984C38.0181 62.0414 37.9701 62.0664 37.9221 62.0664Z" fill="#472b29" fill-rule="nonzero" opacity="1" stroke="none" vectornator:layerName="path"/>
<path d="M39.4771 62.2484C39.4491 62.2484 39.4201 62.2404 39.3951 62.2244C39.3261 62.1784 39.3061 62.0854 39.3521 62.0164L43.1801 56.1594C43.2251 56.0904 43.3191 56.0704 43.3881 56.1154C43.4571 56.1614 43.4771 56.2544 43.4311 56.3234L39.6031 62.1804C39.5731 62.2244 39.5261 62.2484 39.4771 62.2484Z" fill="#472b29" fill-rule="nonzero" opacity="1" stroke="none" vectornator:layerName="path"/>
<path d="M41.0881 62.4324C41.0601 62.4324 41.0311 62.4244 41.0061 62.4084C40.9371 62.3624 40.9171 62.2694 40.9631 62.2004L42.8771 59.2714C42.9221 59.2024 43.0151 59.1824 43.0851 59.2274C43.1541 59.2734 43.1741 59.3664 43.1281 59.4354L41.2141 62.3644C41.1851 62.4084 41.1371 62.4324 41.0881 62.4324Z" fill="#472b29" fill-rule="nonzero" opacity="1" stroke="none" vectornator:layerName="path"/>
<path d="M52.0521 45.6974C52.1141 45.6974 52.1661 45.6254 52.1661 45.5404C52.1661 45.4554 52.1141 45.3834 52.0521 45.3834L49.4811 45.3834C49.4191 45.3834 49.3671 45.4554 49.3671 45.5404C49.3671 45.6254 49.4191 45.6974 49.4811 45.6974L52.0521 45.6974Z" fill="#512c2b" fill-rule="nonzero" opacity="1" stroke="none" vectornator:layerName="path"/>
<path d="M55.8261 14.8004C52.0181 12.6764 48.1221 13.5234 45.5251 15.3514C33.5811 17.9624 40.5771 33.3224 40.5771 33.3224C40.5771 33.3224 40.5331 25.2374 44.2271 22.7794C50.4131 26.7754 56.3151 27.2494 59.9141 24.8734C61.3031 27.9404 61.2681 33.3224 61.2681 33.3224C61.2681 33.3224 64.1481 28.4674 62.3531 22.5724C61.9131 21.1274 59.6471 16.9304 55.8261 14.8004Z" fill="#be7841" fill-rule="nonzero" opacity="1" stroke="none" vectornator:layerName="path"/>
<path d="M61.7111 33.2814L61.2111 33.2774C61.2111 33.2254 61.2291 28.2144 59.9701 25.1954C56.0451 27.5494 50.0201 26.7314 44.1221 23.0354C40.6521 25.4944 40.6521 33.1994 40.6521 33.2784L40.1521 33.2804C40.1501 32.9454 40.1501 25.0314 43.9801 22.5274C44.0611 22.4714 44.1681 22.4714 44.2511 22.5254C50.1501 26.2694 56.1661 27.0734 59.9471 24.6204C60.0091 24.5804 60.0841 24.5674 60.1521 24.5904C60.2221 24.6114 60.2791 24.6594 60.3101 24.7264C61.7301 27.8074 61.7121 33.0584 61.7111 33.2814Z" fill="#472b29" fill-rule="nonzero" opacity="1" stroke="none" vectornator:layerName="path"/>
<g opacity="1" vectornator:layerName="g">
<path d="M66.9161 66.5724L61.1661 66.5724C58.6811 67.3224 56.6661 65.3074 56.6661 62.8224C56.6661 60.4894 58.4481 58.5934 60.7211 58.3674C60.6991 58.1864 60.6661 58.0094 60.6661 57.8224C60.6661 55.3374 62.6811 53.3224 65.1661 53.3224C66.6041 53.3224 67.8691 54.0084 68.6931 55.0584C68.8331 52.4224 70.9951 50.3224 73.6661 50.3224C76.4271 50.3224 78.6661 52.5614 78.6661 55.3224C78.6661 55.7684 78.5891 56.1924 78.4791 56.6044C79.1211 55.8274 80.0791 55.3224 81.1661 55.3224C82.9471 55.3224 84.4001 56.6574 84.6211 58.3774C84.8021 58.3554 84.9791 58.3224 85.1661 58.3224C87.6511 58.3224 89.6661 60.3374 89.6661 62.8224C89.6661 65.3074 87.6511 67.3224 85.1661 66.5724L75.6661 66.5724L69.9161 66.5724L69.9161 67.5724L66.9161 67.5724L66.9161 66.5724Z" fill="#fdfcef" fill-rule="nonzero" opacity="1" stroke="none" vectornator:layerName="path"/>
<path d="M73.4161 49.5724C76.4491 49.5724 78.9161 52.0394 78.9161 55.0724C78.9161 55.0884 78.9161 55.1034 78.9161 55.1194C79.5181 54.7644 80.2061 54.5724 80.9161 54.5724C82.7471 54.5724 84.3271 55.8334 84.7741 57.5774C84.8211 57.5744 84.8681 57.5724 84.9161 57.5724C88.0151 57.5724 90.4651 60.4064 89.8091 63.6194C89.3291 65.9704 87.1201 67.5724 84.7201 67.5724L70.0411 67.5724C69.7651 67.5724 69.5411 67.3484 69.5411 67.0724C69.5411 66.7964 69.7651 66.5724 70.0411 66.5724L84.7591 66.5724C86.6791 66.5724 88.4461 65.2904 88.8301 63.4094C89.3551 60.8394 87.3951 58.5724 84.9161 58.5724C84.7991 58.5724 84.6861 58.5894 84.5731 58.6044L84.4321 58.6234C84.4111 58.6264 84.3911 58.6274 84.3701 58.6274C84.1241 58.6274 83.9081 58.4424 83.8751 58.1904C83.6841 56.6974 82.4121 55.5724 80.9161 55.5724C80.0311 55.5724 79.1931 55.9734 78.6151 56.6724C78.5171 56.7904 78.3741 56.8544 78.2291 56.8544C78.1511 56.8544 78.0731 56.8364 78.0011 56.7984C77.7921 56.6914 77.6871 56.4524 77.7471 56.2254C77.9071 55.6254 77.9491 55.1564 77.8941 54.6764C77.6541 52.5494 75.9351 50.7674 73.8021 50.5884C71.2511 50.3734 69.0771 52.3164 68.9431 54.8344C68.9321 55.0424 68.7931 55.2214 68.5941 55.2844C68.5441 55.3004 68.4931 55.3084 68.4421 55.3084C68.2921 55.3084 68.1461 55.2394 68.0501 55.1164C67.2781 54.1354 66.1371 53.5724 64.9161 53.5724C62.7101 53.5724 60.9161 55.3664 60.9161 57.5724C60.9161 57.6894 60.9331 57.8024 60.9481 57.9154L60.9671 58.0564C60.9831 58.1904 60.9451 58.3244 60.8611 58.4294C60.7771 58.5344 60.6541 58.6014 60.5211 58.6144C58.1691 58.8484 56.4791 61.0434 57.0171 63.4794C57.4251 65.3324 59.1911 66.5724 61.0891 66.5724L67.0411 66.5724C67.3171 66.5724 67.5411 66.7964 67.5411 67.0724C67.5411 67.3484 67.3171 67.5724 67.0411 67.5724L61.1031 67.5724C58.6361 67.5724 56.3951 65.8684 55.9881 63.4344C55.5261 60.6714 57.3321 58.2144 59.9191 57.6944C59.9171 57.6544 59.9161 57.6134 59.9161 57.5724C59.9161 54.8154 62.1591 52.5724 64.9161 52.5724C66.0921 52.5724 67.2091 52.9884 68.0991 53.7364C68.6971 51.3324 70.8611 49.5724 73.4161 49.5724L73.4161 49.5724Z" fill="#472b29" fill-rule="nonzero" opacity="1" stroke="none" vectornator:layerName="path"/>
<path d="M75.1661 56.8224C76.5691 56.8224 77.7751 57.8214 78.0791 59.1634C78.4461 58.9414 78.8651 58.8224 79.2911 58.8224C80.4931 58.8224 81.4891 59.7194 81.6441 60.8904C81.8471 60.8454 82.0401 60.8224 82.2291 60.8224C83.7581 60.8224 85.0401 62.0224 85.1471 63.5544C85.1561 63.6924 85.0531 63.8114 84.9151 63.8214C84.9091 63.8214 84.9031 63.8214 84.8971 63.8214C84.7671 63.8214 84.6571 63.7204 84.6481 63.5894C84.5591 62.3184 83.4971 61.3214 82.2291 61.3214C82.0001 61.3214 81.7591 61.3634 81.4911 61.4484C81.4691 61.4554 81.4461 61.4584 81.4241 61.4584C81.3691 61.4584 81.3141 61.4384 81.2681 61.4044C81.2041 61.3574 81.1661 61.2754 81.1661 61.1954C81.1661 60.1614 80.3251 59.3204 79.2911 59.3204C78.8441 59.3204 78.4061 59.4884 78.0601 59.7934C78.0131 59.8344 77.9541 59.8564 77.8951 59.8564C77.8631 59.8564 77.8321 59.8504 77.8021 59.8374C77.7141 59.8024 77.6541 59.7204 77.6471 59.6254C77.5451 58.3334 76.4561 57.3204 75.1681 57.3204C74.9601 57.3204 74.7431 57.3544 74.4861 57.4274C74.4631 57.4344 74.4391 57.4374 74.4161 57.4374C74.3071 57.4374 74.2091 57.3644 74.1771 57.2554C74.1391 57.1224 74.2161 56.9844 74.3491 56.9464C74.6491 56.8624 74.9101 56.8224 75.1661 56.8224L75.1661 56.8224ZM61.2831 58.3224C62.6091 58.3224 63.7911 59.2194 64.1571 60.5044C64.1951 60.6374 64.1181 60.7754 63.9851 60.8134C63.9621 60.8204 63.9391 60.8234 63.9171 60.8234C63.8081 60.8234 63.7081 60.7514 63.6771 60.6414C63.3721 59.5704 62.3881 58.8234 61.2841 58.8234C61.1671 58.8234 61.0541 58.8374 60.9421 58.8524C60.9301 58.8544 60.9191 58.8554 60.9071 58.8554C60.7861 58.8554 60.6781 58.7634 60.6611 58.6384C60.6421 58.5014 60.7381 58.3754 60.8751 58.3574C61.0081 58.3384 61.1441 58.3224 61.2831 58.3224L61.2831 58.3224Z" fill="#472b29" fill-rule="nonzero" opacity="1" stroke="none" vectornator:layerName="path"/>
</g>
<g opacity="1" vectornator:layerName="g">
<path d="M36.8551 26.8724C36.1711 26.8724 35.6161 26.2894 35.6161 25.5724C35.6161 24.8554 36.1721 24.2724 36.8551 24.2724L37.5371 24.2724L37.5751 23.5904C37.7291 17.8234 41.4271 12.7454 46.7751 10.9544L47.2531 10.7944L47.2531 10.0524C47.2531 9.07142 48.0181 8.27242 48.9581 8.27242L52.8741 8.27242C53.8141 8.27242 54.5791 9.07142 54.5791 10.0524L54.5791 10.7944L55.0571 10.9544C60.4061 12.7454 64.1031 17.8234 64.2571 23.5904L64.2761 24.2724L64.9581 24.2724C65.6611 24.2724 66.2171 24.8554 66.2171 25.5724C66.2171 26.2894 65.6611 26.8724 64.9781 26.8724L36.8551 26.8724Z" fill="#f9e65c" fill-rule="nonzero" opacity="1" stroke="none" vectornator:layerName="path"/>
<path d="M52.8741 8.97242C53.4281 8.97242 53.8791 9.45742 53.8791 10.0534L53.8791 10.2914L53.8791 11.2984L54.8341 11.6184C59.9041 13.3164 63.4091 18.1354 63.5561 23.6094L63.6121 24.9714L64.9751 24.9714C65.2721 24.9714 65.5141 25.2404 65.5141 25.5714C65.5141 25.9024 65.2721 26.1714 64.9751 26.1714L36.8551 26.1714C36.5581 26.1714 36.3161 25.9024 36.3161 25.5714C36.3161 25.2404 36.5581 24.9714 36.8751 24.9714L38.2381 24.9714L38.2751 23.6094C38.4221 18.1354 41.9271 13.3164 46.9971 11.6184L47.9521 11.2984L47.9521 10.2914L47.9521 10.0524C47.9521 9.45642 48.4031 8.97142 48.9571 8.97142L52.8741 8.97142M52.8741 7.57242L48.9571 7.57242C47.6291 7.57242 46.5521 8.68242 46.5521 10.0524L46.5521 10.2904C41.0481 12.1344 37.0421 17.3574 36.8751 23.5714L36.8551 23.5714C35.7841 23.5724 34.9161 24.4684 34.9161 25.5724C34.9161 26.6764 35.7841 27.5724 36.8551 27.5724L64.9761 27.5724C66.0481 27.5724 66.9161 26.6764 66.9161 25.5724C66.9161 24.4684 66.0481 23.5724 64.9771 23.5724L64.9571 23.5724C64.7901 17.3584 60.7831 12.1344 55.2801 10.2914L55.2801 10.0524C55.2801 8.68242 54.2031 7.57242 52.8741 7.57242L52.8741 7.57242Z" fill="#472b29" fill-rule="nonzero" opacity="1" stroke="none" vectornator:layerName="path"/>
<path d="M48.0071 13.5724C47.7311 13.5724 47.5071 13.3484 47.5071 13.0724L47.5071 8.57242C47.5071 8.29642 47.7311 8.07242 48.0071 8.07242C48.2831 8.07242 48.5071 8.29642 48.5071 8.57242L48.5071 13.0724C48.5071 13.3484 48.2831 13.5724 48.0071 13.5724ZM53.8251 13.5724C53.5491 13.5724 53.3251 13.3484 53.3251 13.0724L53.3251 9.07242C53.3251 8.79642 53.5491 8.57242 53.8251 8.57242C54.1011 8.57242 54.3251 8.79642 54.3251 9.07242L54.3251 13.0724C54.3251 13.3484 54.1021 13.5724 53.8251 13.5724ZM53.8251 17.5724C53.5491 17.5724 53.3251 17.3484 53.3251 17.0724L53.3251 15.0724C53.3251 14.7964 53.5491 14.5724 53.8251 14.5724C54.1011 14.5724 54.3251 14.7964 54.3251 15.0724L54.3251 17.0724C54.3251 17.3484 54.1021 17.5724 53.8251 17.5724ZM48.0071 17.5724C47.7311 17.5724 47.5071 17.3484 47.5071 17.0724L47.5071 15.0724C47.5071 14.7964 47.7311 14.5724 48.0071 14.5724C48.2831 14.5724 48.5071 14.7964 48.5071 15.0724L48.5071 17.0724C48.5071 17.3484 48.2831 17.5724 48.0071 17.5724ZM48.9771 24.3224L38.3101 24.3224C38.1721 24.3224 38.0601 24.2104 38.0601 24.0724C38.0601 23.9344 38.1721 23.8224 38.3101 23.8224L48.9771 23.8224C49.1151 23.8224 49.2271 23.9344 49.2271 24.0724C49.2271 24.2104 49.1141 24.3224 48.9771 24.3224ZM58.6741 24.3224L53.8251 24.3224C53.6871 24.3224 53.5751 24.2104 53.5751 24.0724C53.5751 23.9344 53.6871 23.8224 53.8251 23.8224L58.6741 23.8224C58.8121 23.8224 58.9241 23.9344 58.9241 24.0724C58.9241 24.2104 58.8121 24.3224 58.6741 24.3224ZM64.4921 24.3224L60.6131 24.3224C60.4751 24.3224 60.3631 24.2104 60.3631 24.0724C60.3631 23.9344 60.4751 23.8224 60.6131 23.8224L64.4921 23.8224C64.6301 23.8224 64.7421 23.9344 64.7421 24.0724C64.7421 24.2104 64.6301 24.3224 64.4921 24.3224Z" fill="#472b29" fill-rule="nonzero" opacity="1" stroke="none" vectornator:layerName="path"/>
<path d="M51.8861 24.3224L50.9161 24.3224C50.7781 24.3224 50.6661 24.2104 50.6661 24.0724C50.6661 23.9344 50.7781 23.8224 50.9161 23.8224L51.8861 23.8224C52.0241 23.8224 52.1361 23.9344 52.1361 24.0724C52.1361 24.2104 52.0231 24.3224 51.8861 24.3224Z" fill="#472b29" fill-rule="nonzero" opacity="1" stroke="none" vectornator:layerName="path"/>
</g>
</g>
</svg>
