<svg width="70" height="70" viewBox="0 0 70 70" fill="none" xmlns="http://www.w3.org/2000/svg">
<path d="M32.7463 57.4093C32.628 57.8826 32.3549 58.3027 31.9705 58.6029C31.586 58.9032 31.1122 59.0663 30.6244 59.0664C30.4401 59.0672 30.2564 59.0452 30.0776 59.0007L21.3276 56.8132C21.084 56.7521 20.8527 56.6494 20.644 56.5097L14.0815 52.1347C13.5988 51.8127 13.2639 51.3122 13.1503 50.7433C13.0367 50.1743 13.1538 49.5836 13.4758 49.1009C13.7978 48.6183 14.2983 48.2834 14.8673 48.1698C15.4362 48.0562 16.027 48.1733 16.5096 48.4953L22.7549 52.6597L31.1385 54.757C31.4186 54.8249 31.6825 54.9475 31.9151 55.1177C32.1477 55.288 32.3443 55.5025 32.4937 55.749C32.6431 55.9954 32.7424 56.269 32.7857 56.5539C32.8291 56.8389 32.8157 57.1296 32.7463 57.4093ZM69.0287 31.0336C68.8492 31.5787 68.5635 32.083 68.188 32.5171C67.8126 32.9512 67.3548 33.3066 66.8412 33.5629L60.3662 36.8004L45.3053 51.864C45.038 52.1311 44.7061 52.3243 44.3419 52.4249C43.9777 52.5256 43.5936 52.5302 43.2272 52.4382L25.7272 48.0632C25.461 47.9964 25.2097 47.8805 24.9861 47.7214L9.8049 36.8824L3.16583 33.5629C2.12824 33.0442 1.33911 32.1346 0.971972 31.0342C0.604833 29.9338 0.689739 28.7327 1.20802 27.6949L8.00294 14.1078C8.52164 13.0702 9.43117 12.2811 10.5316 11.9139C11.632 11.5468 12.8331 11.6317 13.8709 12.15L19.9029 15.1578L34.3951 11.0179C34.7883 10.9055 35.2051 10.9055 35.5983 11.0179L50.0904 15.1578L56.1225 12.15C57.1603 11.6317 58.3614 11.5468 59.4618 11.9139C60.5622 12.2811 61.4718 13.0702 61.9904 14.1078L68.7854 27.6949C69.0445 28.2077 69.1995 28.7668 69.2413 29.3399C69.283 29.9129 69.2108 30.4886 69.0287 31.0336ZM56.4014 34.5718L48.9611 19.6914H40.2604L28.4369 31.1757C31.8986 33.3879 37.3264 33.9976 42.1963 29.0894C42.5766 28.7061 43.0853 28.4769 43.6245 28.4461C44.1636 28.4153 44.6951 28.5851 45.1166 28.9226L54.5256 36.4613L56.4014 34.5718ZM5.12091 29.65L9.95802 32.0699L16.7529 18.4828L11.9158 16.0629L5.12091 29.65ZM51.4057 39.5593L43.8287 33.4918C38.4858 37.8668 31.7018 38.4437 26.0799 34.859C25.5269 34.5072 25.06 34.0357 24.7137 33.4792C24.3674 32.9228 24.1505 32.2956 24.0791 31.6441C24.0077 30.9926 24.0836 30.3334 24.3012 29.7151C24.5187 29.0969 24.8724 28.5354 25.3361 28.0722C25.3427 28.0643 25.3501 28.0569 25.358 28.0504L37.6244 16.1531L34.9994 15.4039L21.2127 19.3441L13.7287 34.3093L27.1819 43.9207L43.0795 47.8937L51.4057 39.5593ZM64.8697 29.65L58.083 16.0629L53.2459 18.4828L60.0408 32.0699L64.8697 29.65Z" fill="white"/>
</svg>
