<svg width="70" height="70" viewBox="0 0 70 70" fill="none" xmlns="http://www.w3.org/2000/svg">
<path d="M56.3417 47.8456C54.6307 46.1332 52.6314 44.7355 50.4355 43.7167C53.5322 41.2079 55.5077 37.3798 55.5077 33.0868C55.5077 25.5126 49.1913 19.2987 41.6171 19.4149C34.1591 19.5311 28.1503 25.6083 28.1503 33.0868C28.1503 37.3798 30.1327 41.2079 33.2226 43.7167C31.0262 44.7348 29.0268 46.1325 27.3163 47.8456C23.5839 51.5849 21.4648 56.5204 21.3281 61.7841C21.3262 61.857 21.339 61.9296 21.3657 61.9976C21.3924 62.0655 21.4323 62.1274 21.4833 62.1796C21.5343 62.2319 21.5952 62.2734 21.6624 62.3017C21.7297 62.3301 21.8019 62.3446 21.8749 62.3446H25.7031C25.997 62.3446 26.2431 62.1122 26.2499 61.8183C26.3798 57.8534 27.9863 54.1415 30.8095 51.3251C32.2542 49.8727 33.9726 48.7213 35.8653 47.9375C37.758 47.1536 39.7873 46.753 41.8359 46.7587C45.999 46.7587 49.9159 48.3788 52.8622 51.3251C55.6786 54.1415 57.2851 57.8534 57.4218 61.8183C57.4286 62.1122 57.6747 62.3446 57.9687 62.3446H61.7968C61.8698 62.3446 61.942 62.3301 62.0093 62.3017C62.0765 62.2734 62.1375 62.2319 62.1884 62.1796C62.2394 62.1274 62.2794 62.0655 62.306 61.9976C62.3327 61.9296 62.3455 61.857 62.3437 61.7841C62.207 56.5204 60.0878 51.5849 56.3417 47.8456ZM41.8359 41.8368C39.498 41.8368 37.2968 40.9276 35.6493 39.2733C34.8226 38.4531 34.1695 37.4747 33.729 36.3965C33.2886 35.3183 33.0699 34.1625 33.0859 32.9979C33.1064 30.7558 34.0019 28.5888 35.5673 26.9823C37.2079 25.3007 39.4023 24.3642 41.747 24.3368C44.0644 24.3163 46.3134 25.2186 47.9677 26.8388C49.663 28.4999 50.5927 30.7216 50.5927 33.0868C50.5927 35.4247 49.6835 37.619 48.0292 39.2733C47.2176 40.0888 46.2523 40.7353 45.1893 41.1753C44.1262 41.6153 42.9864 41.8402 41.8359 41.8368ZM24.7118 34.8915C24.6503 34.2968 24.6161 33.6952 24.6161 33.0868C24.6161 31.9999 24.7187 30.9403 24.9101 29.9081C24.9579 29.662 24.8281 29.4091 24.6025 29.3065C23.6728 28.8895 22.8183 28.3153 22.08 27.5907C21.2101 26.7472 20.5255 25.7316 20.07 24.6088C19.6145 23.4859 19.3981 22.2804 19.4345 21.0692C19.496 18.8749 20.3779 16.7899 21.9159 15.2177C23.6044 13.4882 25.8739 12.5448 28.287 12.5722C30.4677 12.5927 32.5732 13.4335 34.1659 14.9237C34.706 15.4296 35.1708 15.9901 35.5605 16.5917C35.6972 16.8036 35.9638 16.8925 36.1962 16.8104C37.3993 16.3934 38.6708 16.0995 39.9765 15.9628C40.3593 15.9218 40.578 15.5116 40.4072 15.1698C38.1855 10.7743 33.6464 7.73915 28.3964 7.65712C20.8154 7.54091 14.499 13.7548 14.499 21.3222C14.499 25.6151 16.4745 29.4433 19.5712 31.952C17.3974 32.9569 15.3945 34.3446 13.6581 36.0809C9.91204 39.8202 7.7929 44.7558 7.65618 50.0263C7.65435 50.0992 7.66715 50.1718 7.69381 50.2397C7.72048 50.3077 7.76047 50.3696 7.81144 50.4218C7.8624 50.4741 7.92331 50.5156 7.99057 50.5439C8.05782 50.5722 8.13007 50.5868 8.20305 50.5868H12.038C12.332 50.5868 12.5781 50.3544 12.5849 50.0604C12.7148 46.0956 14.3212 42.3837 17.1445 39.5673C19.1542 37.5575 21.6152 36.163 24.3017 35.4862C24.5683 35.4179 24.746 35.1649 24.7118 34.8915Z" fill="white"/>
</svg>
