<svg width="70" height="70" viewBox="0 0 70 70" fill="none" xmlns="http://www.w3.org/2000/svg">
<path d="M28.4375 28.6768C27.9134 29.5199 27.3096 30.2832 26.626 30.9668C25.9424 31.6504 25.1676 32.2656 24.3018 32.8125L26.0449 37.0508L22.0117 38.6914L20.2686 34.4873C19.3571 34.7152 18.3773 34.8291 17.3291 34.8291C16.2809 34.8291 15.3011 34.7152 14.3896 34.4873L12.6465 38.6914L8.61328 37.0508L10.3564 32.8125C9.51335 32.2884 8.75 31.6846 8.06641 31.001C7.38281 30.3174 6.76758 29.5426 6.2207 28.6768L1.98242 30.4199L0.341797 26.3867L4.5459 24.6436C4.31803 23.7321 4.2041 22.7523 4.2041 21.7041C4.2041 20.6559 4.31803 19.6761 4.5459 18.7646L0.341797 17.0215L1.98242 12.9883L6.2207 14.7314C7.26888 13.0225 8.64746 11.6439 10.3564 10.5957L8.61328 6.35742L12.6465 4.7168L14.3896 8.9209C15.3011 8.69303 16.2809 8.5791 17.3291 8.5791C18.3773 8.5791 19.3571 8.69303 20.2686 8.9209L22.0117 4.7168L26.0449 6.35742L24.3018 10.5957C26.0107 11.6439 27.3893 13.0225 28.4375 14.7314L32.6758 12.9883L34.3164 17.0215L30.1123 18.7646C30.3402 19.6761 30.4541 20.6559 30.4541 21.7041C30.4541 22.7523 30.3402 23.7321 30.1123 24.6436L34.3164 26.3867L32.6758 30.4199L28.4375 28.6768ZM17.3291 30.4541C18.5368 30.4541 19.6647 30.2262 20.7129 29.7705C21.7611 29.3148 22.6953 28.6882 23.5156 27.8906C24.3359 27.0931 24.9626 26.1702 25.3955 25.1221C25.8285 24.0739 26.0563 22.9346 26.0791 21.7041C26.0791 20.4964 25.8512 19.3685 25.3955 18.3203C24.9398 17.2721 24.3132 16.3379 23.5156 15.5176C22.7181 14.6973 21.7952 14.0706 20.7471 13.6377C19.6989 13.2048 18.5596 12.9769 17.3291 12.9541C16.1214 12.9541 14.9935 13.182 13.9453 13.6377C12.8971 14.0934 11.9629 14.7201 11.1426 15.5176C10.3223 16.3151 9.69564 17.238 9.2627 18.2861C8.82975 19.3343 8.60189 20.4736 8.5791 21.7041C8.5791 22.9118 8.80697 24.0397 9.2627 25.0879C9.71842 26.1361 10.3451 27.0703 11.1426 27.8906C11.9401 28.7109 12.863 29.3376 13.9111 29.7705C14.9593 30.2035 16.0986 30.4313 17.3291 30.4541ZM65.4541 45.7666C65.4541 47.0199 65.2946 48.2845 64.9756 49.5605L69.6582 51.4746L68.0176 55.542L63.3008 53.5938C61.9564 55.8268 60.179 57.6042 57.9688 58.9258L59.917 63.6084L55.8496 65.2832L53.9355 60.6006C52.6595 60.9196 51.3949 61.0791 50.1416 61.0791C48.8883 61.0791 47.6237 60.9196 46.3477 60.6006L44.4336 65.2832L40.3662 63.6084L42.3145 58.9258C40.0814 57.6042 38.304 55.8268 36.9824 53.5938L32.2656 55.542L30.625 51.4746L35.3076 49.5605C34.9886 48.2845 34.8291 47.0199 34.8291 45.7666C34.8291 44.5133 34.9886 43.2487 35.3076 41.9727L30.625 40.0586L32.2656 35.9912L36.9824 37.9395C38.304 35.7292 40.0814 33.9518 42.3145 32.6074L40.3662 27.8906L44.4336 26.25L46.3477 30.9326C47.6237 30.6136 48.8883 30.4541 50.1416 30.4541C51.3949 30.4541 52.6595 30.6136 53.9355 30.9326L55.8496 26.25L59.917 27.8906L57.9688 32.6074C60.179 33.9518 61.9564 35.7292 63.3008 37.9395L68.0176 35.9912L69.6582 40.0586L64.9756 41.9727C65.2946 43.2487 65.4541 44.5133 65.4541 45.7666ZM50.1416 56.7041C51.6455 56.7041 53.0583 56.4193 54.3799 55.8496C55.7015 55.2799 56.8522 54.5052 57.832 53.5254C58.8118 52.5456 59.598 51.3835 60.1904 50.0391C60.7829 48.6947 61.0791 47.2705 61.0791 45.7666C61.0791 44.2627 60.7943 42.8499 60.2246 41.5283C59.6549 40.2067 58.8688 39.056 57.8662 38.0762C56.8636 37.0964 55.7015 36.3102 54.3799 35.7178C53.0583 35.1253 51.6455 34.8291 50.1416 34.8291C48.6377 34.8291 47.2249 35.1139 45.9033 35.6836C44.5817 36.2533 43.4196 37.0394 42.417 38.042C41.4144 39.0446 40.6283 40.2067 40.0586 41.5283C39.4889 42.8499 39.2041 44.2627 39.2041 45.7666C39.2041 47.2705 39.4889 48.6833 40.0586 50.0049C40.6283 51.3265 41.403 52.4886 42.3828 53.4912C43.3626 54.4938 44.5247 55.2799 45.8691 55.8496C47.2135 56.4193 48.6377 56.7041 50.1416 56.7041Z" fill="white"/>
</svg>
