<?xml version="1.0" encoding="UTF-8" standalone="no"?>
<!DOCTYPE svg PUBLIC "-//W3C//DTD SVG 1.1//EN" "http://www.w3.org/Graphics/SVG/1.1/DTD/svg11.dtd">
<!-- Created with Vectornator (http://vectornator.io/) -->
<svg height="100%" stroke-miterlimit="10" style="fill-rule:nonzero;clip-rule:evenodd;stroke-linecap:round;stroke-linejoin:round;" version="1.1" viewBox="0 0 100 100" width="100%" xml:space="preserve" xmlns="http://www.w3.org/2000/svg" xmlns:xlink="http://www.w3.org/1999/xlink">
<defs/>
<clipPath id="ArtboardFrame">
<rect height="100" width="100" x="0" y="0"/>
</clipPath>
<g clip-path="url(#ArtboardFrame)" id="Calque-1">
<path d="M58.8248 52.9198L68.1334 52.9198C69.8447 52.9198 71.2363 51.5402 71.2363 49.8437L71.2363 40.6157C71.2363 38.9192 69.8447 37.5396 68.1334 37.5396L58.8248 37.5396C57.1136 37.5396 55.7219 38.9192 55.7219 40.6157L55.7219 49.8437C55.7219 51.5402 57.1136 52.9198 58.8248 52.9198ZM58.8248 49.8437L58.8248 46.7677L68.1334 46.7677L68.1334 49.8437L58.8248 49.8437ZM68.1334 40.6157L68.135 43.6917L58.8248 43.6917L58.8248 40.6157L68.1334 40.6157Z" fill="none" fill-rule="evenodd" opacity="1" stroke="#050038" stroke-linecap="round" stroke-linejoin="round" stroke-width="1"/>
<path d="M30.8989 52.9198L40.2075 52.9198C41.9188 52.9198 43.3104 51.5402 43.3104 49.8437L43.3104 40.6157C43.3104 38.9192 41.9188 37.5396 40.2075 37.5396L30.8989 37.5396C29.1877 37.5396 27.796 38.9192 27.796 40.6157L27.796 49.8437C27.796 51.5402 29.1877 52.9198 30.8989 52.9198ZM30.8989 49.8437L30.8989 46.7677L40.2075 46.7677L40.2075 49.8437L30.8989 49.8437ZM40.2075 40.6157L40.2091 43.6917L30.8989 43.6917L30.8989 40.6157L40.2075 40.6157Z" fill="none" fill-rule="evenodd" opacity="1" stroke="#050038" stroke-linecap="round" stroke-linejoin="round" stroke-width="1"/>
<path d="M86.7507 28.3115L86.7507 25.2355C86.7507 23.5391 85.3591 22.1595 83.6478 22.1595L83.3065 22.1595L81.0848 13.3528C80.5682 11.295 78.7096 9.85538 76.5686 9.85538L22.4637 9.85538C20.3212 9.85538 18.4641 11.295 17.9459 13.3528L15.7258 22.1595L15.3845 22.1595C13.6733 22.1595 12.2816 23.5391 12.2816 25.2355L12.2816 28.3115C12.2816 30.008 13.6733 31.3876 15.3845 31.3876L15.3845 86.7561L12.2816 86.7561L12.2816 89.8321L15.3845 89.8321L40.2075 89.8321L58.8248 89.8321L83.6478 89.8321L86.7507 89.8321L86.7507 86.7561L83.6478 86.7561L83.6478 31.3876C85.3591 31.3876 86.7507 30.008 86.7507 28.3115ZM76.5686 12.9314C77.2838 12.9314 77.9028 13.4128 78.0782 14.0988L80.1105 22.1595L74.3392 22.1595L74.3392 12.9314L76.5686 12.9314ZM71.2363 22.1595L65.0306 22.1595L65.0306 12.9314L71.2363 12.9314L71.2363 22.1595ZM37.1046 22.1595L37.1046 12.9314L43.3104 12.9314L43.3104 22.1595L37.1046 22.1595ZM46.4133 12.9314L52.619 12.9314L52.619 22.1595L46.4133 22.1595L46.4133 12.9314ZM55.7219 12.9314L61.9277 12.9314L61.9277 22.1595L55.7219 22.1595L55.7219 12.9314ZM34.0018 12.9314L34.0018 22.1595L27.796 22.1595L27.796 12.9314L34.0018 12.9314ZM20.9557 14.0988C21.1295 13.4128 21.7501 12.9314 22.4637 12.9314L24.6931 12.9314L24.6931 22.1595L18.9218 22.1595L20.9557 14.0988ZM18.4874 86.7561L18.4874 83.68L40.2075 83.68L40.2075 86.7561L18.4874 86.7561ZM43.3104 86.7561L43.3104 68.2999L55.7219 68.2999L55.7219 86.7561L43.3104 86.7561ZM40.2075 65.2239L40.2075 63.6859C40.2075 62.8369 40.9026 62.1478 41.759 62.1478L57.2734 62.1478C58.1298 62.1478 58.8248 62.8369 58.8248 63.6859L58.8248 65.2239L40.2075 65.2239ZM58.8248 86.7561L58.8248 83.68L80.5449 83.68L80.5449 86.7561L58.8248 86.7561ZM80.5449 74.4519L69.6849 74.4519L69.6849 77.528L80.5449 77.528L80.5449 80.604L58.8248 80.604L58.8248 68.2999L61.9277 68.2999L61.9277 63.6859C61.9277 61.142 59.8394 59.0718 57.2734 59.0718L41.759 59.0718C39.1929 59.0718 37.1046 61.142 37.1046 63.6859L37.1046 68.2999L40.2075 68.2999L40.2075 80.604L18.4874 80.604L18.4874 77.528L29.3475 77.528L29.3475 74.4519L18.4874 74.4519L18.4874 31.3876L80.5449 31.3876L80.5449 74.4519ZM15.3845 28.3115L15.3845 25.2355L83.6478 25.2355L83.6509 28.3115L83.6478 28.3115L15.3845 28.3115Z" fill="none" fill-rule="evenodd" opacity="1" stroke="#050038" stroke-linecap="round" stroke-linejoin="round" stroke-width="1"/>
<path d="M49.5162 74.4519L52.619 74.4519L52.619 80.604L49.5162 80.604L49.5162 74.4519Z" fill="none" fill-rule="evenodd" opacity="1" stroke="#050038" stroke-linecap="round" stroke-linejoin="round" stroke-width="1"/>
<path d="M58.8248 83.68L80.5449 83.68L80.5449 86.7561L58.8248 86.7561L58.8248 83.68Z" fill="none" fill-rule="evenodd" opacity="1" stroke="#050038" stroke-linecap="round" stroke-linejoin="round" stroke-width="1"/>
<path d="M18.4874 83.68L40.2075 83.68L40.2075 86.7561L18.4874 86.7561L18.4874 83.68Z" fill="none" fill-rule="evenodd" opacity="1" stroke="#050038" stroke-linecap="round" stroke-linejoin="round" stroke-width="1"/>
<path d="M-243.506 112.938C-243.6 112.938-243.694 112.938-243.788 112.938" fill="none" fill-rule="evenodd" opacity="1" stroke="#050038" stroke-linecap="round" stroke-linejoin="round" stroke-width="1"/>
</g>
</svg>
