<?xml version="1.0" encoding="UTF-8" standalone="no"?>
<!DOCTYPE svg PUBLIC "-//W3C//DTD SVG 1.1//EN" "http://www.w3.org/Graphics/SVG/1.1/DTD/svg11.dtd">
<!-- Created with Vectornator (http://vectornator.io/) -->
<svg height="100%" stroke-miterlimit="10" style="fill-rule:nonzero;clip-rule:evenodd;stroke-linecap:round;stroke-linejoin:round;" version="1.1" viewBox="0 0 100 100" width="100%" xml:space="preserve" xmlns="http://www.w3.org/2000/svg" xmlns:vectornator="http://vectornator.io" xmlns:xlink="http://www.w3.org/1999/xlink">
<defs/>
<clipPath id="ArtboardFrame">
<rect height="100" width="100" x="0" y="0"/>
</clipPath>
<g clip-path="url(#ArtboardFrame)" id="Calque-1" vectornator:layerName="Calque 1">
<path d="M-21.7754 97.8792C-22.4309 96.7321-22.3119 97.3975-21.6688 95.854" fill="#b7bee1" fill-rule="evenodd" opacity="1" stroke="#b7bee1" stroke-linecap="round" stroke-linejoin="round" stroke-width="1"/>
<path d="M87.4504 34.3824C87.3051 33.2195 86.2875 32.2746 85.0519 32.42C83.889 32.5654 83.0168 33.5829 83.0895 34.8185L86.7963 71.3054C86.9417 72.3956 87.8865 73.2678 88.9768 73.2678C89.0495 73.2678 89.1222 73.2678 89.1948 73.2678C90.3578 73.1225 91.23 72.1049 91.1573 70.8693L87.4504 34.3824ZM12.587 78.9371C13.6772 78.9371 14.6221 78.0649 14.7675 76.9747L18.9831 34.8185C19.1285 33.6556 18.2563 32.5654 17.0207 32.42C15.7851 32.2746 14.7675 33.1468 14.6221 34.3824L10.4065 76.5386C10.2611 77.7015 11.1333 78.7917 12.369 78.9371C12.4416 78.9371 12.5143 78.9371 12.587 78.9371ZM94.7187 23.6981L86.3602 23.6981L85.9241 19.119C85.4153 14.2493 81.4178 10.6151 76.548 10.6151L25.6699 10.6151C20.8002 10.6151 16.7299 14.2493 16.2938 19.119L15.8577 23.6981L7.35383 23.6981C6.11822 23.6981 5.17334 24.6429 5.17334 25.8785C5.17334 27.1142 6.11822 28.059 7.35383 28.059L17.5294 28.059L17.5294 28.059C17.6021 28.059 17.6748 28.059 17.7475 28.059C18.8377 28.059 19.7826 27.1868 19.928 26.0966L20.5821 19.5551C20.8729 16.9385 23.0533 14.9761 25.6699 14.9761L76.548 14.9761C79.1646 14.9761 81.3451 16.9385 81.6358 19.5551L82.29 26.0966C82.29 26.1693 82.29 26.1693 82.29 26.1693C82.29 26.242 82.29 26.3146 82.3626 26.3873C82.3626 26.46 82.4353 26.5327 82.4353 26.6054C82.4353 26.6781 82.508 26.7507 82.508 26.8234C82.508 26.8961 82.5807 26.9688 82.5807 27.0415C82.5807 27.1142 82.6534 27.1142 82.6534 27.1868C82.7261 27.2595 82.7261 27.3322 82.7987 27.3322C82.8714 27.4049 82.8714 27.4049 82.9441 27.4776C83.0168 27.5502 83.0895 27.5502 83.0895 27.6229C83.1622 27.6956 83.1622 27.6956 83.2348 27.6956C83.3075 27.7683 83.3802 27.7683 83.4529 27.841C83.5256 27.841 83.5983 27.9137 83.5983 27.9137C83.6709 27.9137 83.7436 27.9863 83.8163 27.9863C83.889 27.9863 83.9617 27.9863 84.0343 28.059C84.107 28.059 84.1797 28.059 84.2524 28.059L84.3251 28.059L94.7187 28.059C95.9544 28.059 96.8992 27.1142 96.8992 25.8785C96.8992 24.6429 95.9544 23.6981 94.7187 23.6981ZM43.4773 47.9742C43.1138 43.6859 39.4797 40.4151 35.1187 40.4151C30.7577 40.4151 27.1236 43.6859 26.7602 47.9742L23.8529 76.7566L46.3846 76.7566L43.4773 47.9742ZM75.4578 47.9742C75.0943 43.6859 71.4602 40.4151 67.0992 40.4151C62.7382 40.4151 59.1041 43.6859 58.7407 47.9742L55.8334 76.7566L78.3651 76.7566L75.4578 47.9742ZM94.3553 79.882L94.3553 79.882C93.1197 79.882 92.1748 80.8269 92.1748 82.0625C92.1748 83.2981 93.1197 84.243 94.3553 84.243C95.5909 84.243 96.5358 83.2981 96.5358 82.0625C96.5358 80.8269 95.5909 79.882 94.3553 79.882ZM86.9417 83.1527C84.8339 83.08 82.9441 82.2078 81.6358 80.6815C81.1997 80.1727 80.6183 79.882 79.9641 79.882C79.31 79.882 78.7285 80.1727 78.2924 80.6815C76.9841 82.2805 74.949 83.1527 72.7685 83.1527C71.3875 83.1527 70.1519 82.7893 68.989 82.1352C68.3348 81.7717 67.7534 81.263 67.2446 80.6815C67.1719 80.5361 67.0265 80.4634 66.8812 80.3908L66.8085 80.3181C66.7358 80.2454 66.5904 80.1727 66.5178 80.1727C66.4451 80.1727 66.4451 80.1727 66.3724 80.1C66.2997 80.1 66.227 80.0273 66.0817 80.0273C66.009 80.0273 65.9363 80.0273 65.9363 80.0273C65.8636 80.0273 65.7909 80.0273 65.6456 80.0273L65.5729 80.0273L65.5002 80.0273C65.3548 80.0273 65.2821 80.0273 65.1368 80.1L65.1368 80.1C64.9914 80.1 64.8461 80.1727 64.7007 80.2454L64.7007 80.2454C64.5553 80.3181 64.4826 80.3908 64.3373 80.4634L64.2646 80.5361L64.1919 80.6088C64.1192 80.6815 64.1192 80.6815 64.0465 80.7542L63.9739 80.8269L63.7558 81.1176C62.4475 82.6439 60.4124 83.5161 58.3046 83.5161L58.2319 83.5161C56.1241 83.5161 54.089 82.5713 52.7807 81.0449L52.6353 80.8995C52.1992 80.3908 51.6178 80.1 50.9636 80.1C50.3095 80.1 49.728 80.3908 49.2919 80.8995C47.9836 82.4986 45.9485 83.3708 43.768 83.3708C41.5875 83.3708 39.5524 82.4986 38.2441 80.8995C37.808 80.3908 37.2265 80.1 36.5724 80.1C35.9182 80.1 35.3368 80.3908 34.9007 80.8995C33.5924 82.4986 31.5573 83.3708 29.3768 83.3708C27.1963 83.3708 25.1612 82.4986 23.8529 80.8995C23.4168 80.3908 22.8353 80.1 22.1812 80.1C21.527 80.1 20.9455 80.3908 20.5094 80.8995C19.2012 82.4986 17.166 83.3708 14.9855 83.3708C12.8051 83.3708 10.7699 82.4986 9.46164 80.8995C8.66212 79.9547 7.28115 79.882 6.40895 80.6815C5.46407 81.481 5.39139 82.862 6.1909 83.7342C8.37139 86.2781 11.5694 87.7317 15.0582 87.7317C17.7475 87.7317 20.2187 86.8595 22.2538 85.3332C24.289 86.9322 26.7602 87.7317 29.4494 87.7317C32.1387 87.7317 34.6099 86.8595 36.6451 85.3332C38.6802 86.9322 41.1514 87.7317 43.8407 87.7317C46.4573 87.7317 49.0012 86.8595 50.9636 85.3332C52.9987 86.9322 55.5426 87.8771 58.2319 87.8771C58.3046 87.8771 58.3046 87.8771 58.3773 87.8771C61.0665 87.8771 63.6831 86.9322 65.7182 85.3332C65.7182 85.3332 65.7909 85.3332 65.7909 85.4059C65.8636 85.4786 65.9363 85.4786 66.009 85.5513C66.227 85.6966 66.4451 85.9147 66.7358 86.06C66.8085 86.1327 66.9539 86.2054 67.0265 86.2781C67.2446 86.4234 67.5353 86.5688 67.7534 86.6415C67.8261 86.7142 67.9714 86.7142 68.0441 86.7869C68.4075 86.9322 68.6982 87.0776 69.0617 87.223C69.1343 87.223 69.207 87.223 69.207 87.2956C69.4978 87.3683 69.7885 87.441 70.1519 87.5137C70.2973 87.5137 70.37 87.5864 70.5153 87.5864C70.8061 87.6591 71.0241 87.6591 71.3148 87.7317C71.4602 87.7317 71.5329 87.7317 71.6782 87.8044C72.0417 87.8771 72.4778 87.8771 72.8412 87.8771L72.8412 87.8771L72.8412 87.8771C75.5304 87.8771 78.0017 87.0049 80.0368 85.4786C81.9992 87.0049 84.3978 87.8771 86.9417 87.8771C88.1773 87.8771 89.1222 86.9322 89.1948 85.7693C89.1222 84.1703 88.1773 83.1527 86.9417 83.1527Z" fill="none" fill-rule="evenodd" opacity="1" stroke="#050038" stroke-linecap="round" stroke-linejoin="round" stroke-width="1"/>
</g>
</svg>
