<?xml version="1.0" encoding="UTF-8" standalone="no"?>
<!DOCTYPE svg PUBLIC "-//W3C//DTD SVG 1.1//EN" "http://www.w3.org/Graphics/SVG/1.1/DTD/svg11.dtd">
<!-- Created with Vectornator (http://vectornator.io/) -->
<svg height="100%" stroke-miterlimit="10" style="fill-rule:nonzero;clip-rule:evenodd;stroke-linecap:round;stroke-linejoin:round;" version="1.1" viewBox="0 0 100 100" width="100%" xml:space="preserve" xmlns="http://www.w3.org/2000/svg" xmlns:xlink="http://www.w3.org/1999/xlink">
<defs/>
<g id="Calque-1">
<path d="M90.7636 64.8443L88.4951 64.8443L56.4019 14.4027C56.3352 14.2692 56.2017 14.1358 56.135 14.0691L56.0683 8.79805C56.0683 7.73051 55.1342 6.7964 54.0667 6.7964L47.3945 6.7964C46.3269 6.7964 45.3928 7.66378 45.3928 8.79805L44.7256 64.8443L36.6523 64.8443L40.8558 58.2388C41.4562 57.3047 41.1894 56.037 40.2553 55.5033C39.3212 54.9028 38.0534 55.1696 37.5197 56.1038L31.915 64.8443L27.1778 64.8443L40.8558 43.3599C41.4562 42.4258 41.1894 41.1581 40.2553 40.6243C39.3212 40.0238 38.0534 40.2907 37.5197 41.2248L22.4406 64.8443L17.7033 64.8443L40.8558 28.4142C41.4562 27.4801 41.1894 26.2124 40.2553 25.6786C39.3212 25.0782 38.0534 25.345 37.5197 26.2791L12.9661 64.8443L10.6975 64.8443C9.56327 64.8443 8.69589 65.7117 8.69589 66.8459C8.69589 67.9802 9.56327 68.8476 10.6975 68.8476L14.0336 68.8476L14.0336 68.8476L14.0336 68.8476L40.7223 68.8476L40.7223 79.5231C40.7223 80.6573 41.5897 81.5247 42.724 81.5247C43.8582 81.5247 44.7256 80.6573 44.7256 79.5231L44.7256 68.8476L46.7273 68.8476L54.7339 68.8476L56.7355 68.8476L56.7355 79.5231C56.7355 80.6573 57.6029 81.5247 58.7372 81.5247C59.8714 81.5247 60.7388 80.6573 60.7388 79.5231L60.7388 68.8476L87.4275 68.8476L87.4275 68.8476L87.4275 68.8476L90.7636 68.8476C91.8979 68.8476 92.7652 67.9802 92.7652 66.8459C92.7652 65.7117 91.8979 64.8443 90.7636 64.8443ZM48.7289 64.8443L49.3961 10.7997L52.065 10.7997L52.7322 64.8443L48.7289 64.8443ZM56.7355 64.8443L56.6021 51.9003L64.8088 64.8443L56.7355 64.8443ZM69.5461 64.8443L56.4686 44.294L56.4019 36.6877L74.2833 64.8443L69.5461 64.8443ZM79.0206 64.8443L56.4019 29.2816C56.3352 29.2149 56.3352 29.1482 56.2685 29.1482L56.2017 21.5419L83.7578 64.8443L79.0206 64.8443ZM82.6903 83.9267C81.8229 83.2595 80.5552 83.3929 79.888 84.2603C78.6202 85.8616 76.6853 86.7957 74.6169 86.7957C74.6169 86.7957 74.5502 86.7957 74.4835 86.7957C72.4151 86.7957 70.4135 85.8616 69.1458 84.2603C68.7454 83.7933 68.2117 83.5264 67.6112 83.5264C67.0107 83.5264 66.4102 83.7933 66.0766 84.2603L65.9431 84.3938C64.6087 85.9951 62.607 86.9292 60.5387 86.9292L60.4719 86.9292C58.3368 86.9292 56.4019 85.9284 55.0675 84.327C54.6671 83.86 54.1334 83.5931 53.5329 83.5931C52.9324 83.5931 52.3319 83.86 51.9983 84.327C50.6638 85.9284 48.7289 86.8625 46.6605 86.8625C44.5922 86.8625 42.5905 85.9284 41.3228 84.327C40.9225 83.86 40.3887 83.5931 39.7882 83.5931C39.1877 83.5931 38.5872 83.86 38.2536 84.327C36.9192 85.9284 34.9842 86.8625 32.9159 86.8625C30.8475 86.8625 28.8458 85.9284 27.5781 84.327C27.1778 83.86 26.644 83.5931 26.0435 83.5931C25.443 83.5931 24.8425 83.86 24.5089 84.327C23.1745 85.9284 21.2396 86.8625 19.1712 86.8625C17.1028 86.8625 15.1012 85.9284 13.8335 84.327C13.1662 83.4597 11.8985 83.3262 11.0311 83.9934C10.1638 84.6606 10.0303 85.9284 10.6975 86.7957C12.7659 89.3979 15.8351 90.8658 19.1712 90.8658C21.7066 90.8658 24.1753 89.9984 26.1103 88.3971C28.0452 89.9984 30.4472 90.8658 33.0493 90.8658C35.6515 90.8658 38.0534 89.9984 39.9884 88.3971C41.9233 89.9984 44.3253 90.8658 46.9274 90.8658C49.4629 90.8658 51.9316 89.9984 53.8665 88.3971C55.8014 89.9984 58.2701 90.9325 60.8055 90.9325C60.8723 90.9325 60.8723 90.9325 60.939 90.9325C63.5411 90.9325 66.0098 89.9984 68.0115 88.3971C69.8797 89.9317 72.2817 90.8658 74.8171 90.8658C74.8838 90.8658 74.8838 90.8658 74.9505 90.8658C78.2866 90.8658 81.3558 89.3979 83.4242 86.7957C83.6911 85.8616 83.5576 84.5939 82.6903 83.9267ZM91.2974 88.0635C91.2306 87.93 91.1639 87.8633 91.0972 87.7298C91.0305 87.5964 90.9638 87.5297 90.8303 87.463C90.0964 86.729 88.7619 86.729 88.028 87.463C87.9613 87.5297 87.8278 87.6631 87.7611 87.7298C87.6944 87.8633 87.6277 87.93 87.561 88.0635C87.4942 88.1969 87.4942 88.3303 87.4275 88.4638C87.4275 88.5972 87.3608 88.7307 87.3608 88.8641C87.3608 89.3979 87.561 89.9317 87.9613 90.2653C88.3616 90.6656 88.8287 90.8658 89.3624 90.8658C89.8962 90.8658 90.43 90.6656 90.7636 90.2653C91.1639 89.8649 91.3641 89.3979 91.3641 88.8641C91.3641 88.7307 91.3641 88.5972 91.2974 88.4638C91.3641 88.3303 91.2974 88.1969 91.2974 88.0635Z" fill="none" fill-rule="evenodd" opacity="1" stroke="#4262ff" stroke-dasharray="" stroke-linecap="round" stroke-linejoin="round" stroke-width="1"/>
</g>
</svg>
