<svg width="70" height="70" viewBox="0 0 70 70" fill="none" xmlns="http://www.w3.org/2000/svg">
<path d="M56.3417 47.8455C54.6307 46.1331 52.6314 44.7354 50.4355 43.7166C53.5322 41.2078 55.5077 37.3797 55.5077 33.0867C55.5077 25.5125 49.1913 19.2986 41.6171 19.4148C34.1591 19.531 28.1503 25.6082 28.1503 33.0867C28.1503 37.3797 30.1327 41.2078 33.2226 43.7166C31.0262 44.7346 29.0268 46.1324 27.3163 47.8455C23.5839 51.5847 21.4648 56.5203 21.3281 61.784C21.3262 61.8569 21.339 61.9295 21.3657 61.9974C21.3924 62.0654 21.4323 62.1273 21.4833 62.1795C21.5343 62.2318 21.5952 62.2733 21.6624 62.3016C21.7297 62.3299 21.8019 62.3445 21.8749 62.3445H25.7031C25.997 62.3445 26.2431 62.1121 26.2499 61.8181C26.3798 57.8533 27.9863 54.1414 30.8095 51.325C32.2542 49.8726 33.9726 48.7212 35.8653 47.9373C37.758 47.1535 39.7873 46.7529 41.8359 46.7586C45.999 46.7586 49.9159 48.3787 52.8622 51.325C55.6786 54.1414 57.2851 57.8533 57.4218 61.8181C57.4286 62.1121 57.6747 62.3445 57.9687 62.3445H61.7968C61.8698 62.3445 61.942 62.3299 62.0093 62.3016C62.0765 62.2733 62.1375 62.2318 62.1884 62.1795C62.2394 62.1273 62.2794 62.0654 62.306 61.9974C62.3327 61.9295 62.3455 61.8569 62.3437 61.784C62.207 56.5203 60.0878 51.5847 56.3417 47.8455ZM41.8359 41.8367C39.498 41.8367 37.2968 40.9275 35.6493 39.2732C34.8226 38.4529 34.1695 37.4745 33.729 36.3964C33.2886 35.3182 33.0699 34.1624 33.0859 32.9978C33.1064 30.7556 34.0019 28.5886 35.5673 26.9822C37.2079 25.3006 39.4023 24.364 41.747 24.3367C44.0644 24.3162 46.3134 25.2185 47.9677 26.8386C49.663 28.4998 50.5927 30.7215 50.5927 33.0867C50.5927 35.4246 49.6835 37.6189 48.0292 39.2732C47.2176 40.0887 46.2523 40.7352 45.1893 41.1752C44.1262 41.6152 42.9864 41.84 41.8359 41.8367ZM24.7118 34.8914C24.6503 34.2966 24.6161 33.6951 24.6161 33.0867C24.6161 31.9998 24.7187 30.9402 24.9101 29.908C24.9579 29.6619 24.8281 29.409 24.6025 29.3064C23.6728 28.8894 22.8183 28.3152 22.08 27.5906C21.2101 26.7471 20.5255 25.7315 20.07 24.6086C19.6145 23.4858 19.3981 22.2803 19.4345 21.0691C19.496 18.8748 20.3779 16.7898 21.9159 15.2175C23.6044 13.4881 25.8739 12.5447 28.287 12.572C30.4677 12.5925 32.5732 13.4334 34.1659 14.9236C34.706 15.4295 35.1708 15.99 35.5605 16.5916C35.6972 16.8035 35.9638 16.8924 36.1962 16.8103C37.3993 16.3933 38.6708 16.0994 39.9765 15.9627C40.3593 15.9216 40.578 15.5115 40.4072 15.1697C38.1855 10.7742 33.6464 7.73903 28.3964 7.657C20.8154 7.54079 14.499 13.7547 14.499 21.322C14.499 25.615 16.4745 29.4431 19.5712 31.9519C17.3974 32.9568 15.3945 34.3445 13.6581 36.0808C9.91204 39.8201 7.7929 44.7556 7.65618 50.0261C7.65435 50.0991 7.66715 50.1717 7.69381 50.2396C7.72048 50.3076 7.76047 50.3695 7.81144 50.4217C7.8624 50.4739 7.92331 50.5155 7.99057 50.5438C8.05782 50.5721 8.13007 50.5867 8.20305 50.5867H12.038C12.332 50.5867 12.5781 50.3543 12.5849 50.0603C12.7148 46.0955 14.3212 42.3836 17.1445 39.5672C19.1542 37.5574 21.6152 36.1629 24.3017 35.4861C24.5683 35.4177 24.746 35.1648 24.7118 34.8914Z" fill="white"/>
</svg>
