<svg width="70" height="70" viewBox="0 0 70 70" fill="none" xmlns="http://www.w3.org/2000/svg">
<path d="M37.9167 61.25C34.3194 61.25 30.9526 60.5811 27.8162 59.2433C24.6799 57.9056 21.9217 56.071 19.5417 53.7396L23.6979 49.5833C25.5451 51.3819 27.684 52.8043 30.1146 53.8504C32.5451 54.8965 35.1458 55.4186 37.9167 55.4167C43.5556 55.4167 48.3681 53.4236 52.3542 49.4375C56.3403 45.4514 58.3333 40.6389 58.3333 35C58.3333 29.3611 56.3403 24.5486 52.3542 20.5625C48.3681 16.5764 43.5556 14.5833 37.9167 14.5833C32.2778 14.5833 27.4653 16.5764 23.4792 20.5625C19.4931 24.5486 17.5 29.3611 17.5 35V35.5104L22.8229 30.1875L26.9792 34.2708L14.5833 46.6667L2.1875 34.2708L6.34375 30.1875L11.6667 35.5833V35C11.6667 31.3542 12.3599 27.9388 13.7463 24.7538C15.1326 21.5688 17.0042 18.7979 19.3608 16.4413C21.7175 14.0846 24.4883 12.214 27.6733 10.8296C30.8583 9.44514 34.2728 8.75194 37.9167 8.75C41.5625 8.75 44.9779 9.44319 48.1629 10.8296C51.3479 12.216 54.1188 14.0865 56.4754 16.4413C58.8321 18.7999 60.7036 21.5707 62.09 24.7538C63.4764 27.9368 64.1686 31.3522 64.1667 35C64.1667 42.2917 61.6146 48.4896 56.5104 53.5938C51.4062 58.6979 45.2083 61.25 37.9167 61.25ZM32.0833 46.6667C31.2569 46.6667 30.5637 46.3867 30.0037 45.8267C29.4438 45.2667 29.1647 44.5744 29.1667 43.75V35C29.1667 34.1736 29.4467 33.4804 30.0067 32.9204C30.5667 32.3604 31.2589 32.0814 32.0833 32.0833V29.1667C32.0833 27.5625 32.655 26.1887 33.7983 25.0454C34.9417 23.9021 36.3144 23.3314 37.9167 23.3333C39.5208 23.3333 40.8946 23.905 42.0379 25.0483C43.1813 26.1917 43.7519 27.5644 43.75 29.1667V32.0833C44.5764 32.0833 45.2696 32.3633 45.8296 32.9233C46.3896 33.4833 46.6686 34.1756 46.6667 35V43.75C46.6667 44.5764 46.3867 45.2696 45.8267 45.8296C45.2667 46.3896 44.5744 46.6686 43.75 46.6667H32.0833ZM35 32.0833H40.8333V29.1667C40.8333 28.3403 40.5533 27.6471 39.9933 27.0871C39.4333 26.5271 38.7411 26.2481 37.9167 26.25C37.0903 26.25 36.3971 26.53 35.8371 27.09C35.2771 27.65 34.9981 28.3422 35 29.1667V32.0833Z" fill="white"/>
</svg>
