<svg width="70" height="70" viewBox="0 0 70 70" fill="none" xmlns="http://www.w3.org/2000/svg">
<g clip-path="url(#clip0_1184_6447)">
<path d="M25.4626 26.25C28.2567 20.9621 33.4892 17.5 39.2905 17.5C43.5634 17.5 47.4776 19.3434 50.3797 22.4175C50.9164 22.9536 51.6409 23.2595 52.3994 23.2703C53.1579 23.2811 53.8908 22.9959 54.4426 22.4753C54.9943 21.9546 55.3215 21.2395 55.3547 20.4816C55.388 19.7238 55.1246 18.9828 54.6205 18.4159C50.7122 14.2742 45.3047 11.6667 39.2905 11.6667C30.0184 11.6667 22.2951 17.7829 19.0897 26.25H14.5834C13.8099 26.25 13.068 26.5573 12.521 27.1043C11.974 27.6513 11.6667 28.3931 11.6667 29.1667C11.6667 29.9402 11.974 30.6821 12.521 31.2291C13.068 31.7761 13.8099 32.0834 14.5834 32.0834H17.6692C17.4445 34.0213 17.4445 35.9787 17.6692 37.9167H14.5834C13.8099 37.9167 13.068 38.224 12.521 38.771C11.974 39.3179 11.6667 40.0598 11.6667 40.8334C11.6667 41.6069 11.974 42.3488 12.521 42.8957C13.068 43.4427 13.8099 43.75 14.5834 43.75H19.0897C22.2951 52.2171 30.0184 58.3334 39.2905 58.3334C45.3047 58.3334 50.7151 55.7259 54.6205 51.5842C55.1246 51.0173 55.388 50.2763 55.3547 49.5184C55.3215 48.7605 54.9943 48.0454 54.4426 47.5248C53.8908 47.0041 53.1579 46.719 52.3994 46.7297C51.6409 46.7405 50.9164 47.0464 50.3797 47.5825C47.4776 50.6567 43.5634 52.5 39.2876 52.5C33.4863 52.5 28.2538 49.0379 25.4597 43.75H37.9167C38.6903 43.75 39.4322 43.4427 39.9791 42.8957C40.5261 42.3488 40.8334 41.6069 40.8334 40.8334C40.8334 40.0598 40.5261 39.3179 39.9791 38.771C39.4322 38.224 38.6903 37.9167 37.9167 37.9167H23.5522C23.2653 35.9828 23.2653 34.0172 23.5522 32.0834H37.9167C38.6903 32.0834 39.4322 31.7761 39.9791 31.2291C40.5261 30.6821 40.8334 29.9402 40.8334 29.1667C40.8334 28.3931 40.5261 27.6513 39.9791 27.1043C39.4322 26.5573 38.6903 26.25 37.9167 26.25H25.4626Z" fill="white"/>
</g>
<defs>
<clipPath id="clip0_1184_6447">
<rect width="70" height="70" fill="white"/>
</clipPath>
</defs>
</svg>
