<svg width="600" height="485" viewBox="0 0 600 485" fill="none" xmlns="http://www.w3.org/2000/svg">
<g clip-path="url(#clip0_1197_6283)">
<path d="M478.737 159.599L428.137 160.231C427.187 160.23 426.277 159.853 425.605 159.181C424.933 158.51 424.556 157.599 424.554 156.65V139.937C424.554 132.866 427.364 126.084 432.366 121.085C437.367 116.085 444.151 113.276 451.224 113.276C458.298 113.276 465.081 116.085 470.083 121.085C475.084 126.084 477.894 132.866 477.894 139.937L482.32 156.018C482.319 156.967 481.941 157.878 481.269 158.549C480.598 159.22 479.687 159.598 478.737 159.599Z" fill="#2F2E41"/>
<path d="M503.51 305.361C502.668 304.599 502.003 303.662 501.563 302.615C501.122 301.569 500.917 300.439 500.96 299.304C501.004 298.17 501.296 297.058 501.816 296.049C502.336 295.04 503.07 294.156 503.969 293.461L495.163 267.305L509.033 270.969L515.268 295.246C516.336 296.832 516.785 298.754 516.53 300.648C516.274 302.543 515.333 304.278 513.884 305.525C512.434 306.771 510.578 307.443 508.666 307.413C506.754 307.383 504.919 306.653 503.51 305.361Z" fill="#FFB6B6"/>
<path d="M443.514 473.615L433.127 471.931L434.685 431.082L450.014 433.569L443.514 473.615Z" fill="#FFB6B6"/>
<path d="M444.529 484.109L411.041 478.677L411.109 478.254C411.67 474.798 413.582 471.707 416.423 469.659C419.264 467.612 422.802 466.777 426.259 467.337L426.259 467.337L446.713 470.655L444.529 484.109Z" fill="#2F2E41"/>
<path d="M493.146 449.829L483.752 454.566L461.001 420.6L474.865 413.607L493.146 449.829Z" fill="#FFB6B6"/>
<path d="M500.136 457.723L469.847 473L469.654 472.617C468.076 469.492 467.805 465.868 468.901 462.542C469.996 459.217 472.368 456.463 475.494 454.885L475.495 454.885L493.995 445.554L500.136 457.723Z" fill="#2F2E41"/>
<path d="M451.003 160.058C461.204 160.058 469.473 151.791 469.473 141.595C469.473 131.398 461.204 123.131 451.003 123.131C440.803 123.131 432.534 131.398 432.534 141.595C432.534 151.791 440.803 160.058 451.003 160.058Z" fill="#FFB8B8"/>
<path d="M465.628 438.833L422.372 328.572C406.892 286.299 420.724 257.164 420.865 256.874L420.934 256.733L421.082 256.679C422.721 256.078 461.392 242.097 476.018 254.378C481.406 258.901 484.918 267.649 486.457 280.377C488.062 294.032 486.845 307.871 482.881 321.036L465.842 378.777L486.922 426.249L465.628 438.833Z" fill="#2F2E41"/>
<path d="M444.77 370.442L429.149 449.613L449.953 453.534L463.04 385.004L444.77 370.442Z" fill="#2F2E41"/>
<path d="M464.626 169.073L440.747 169.391L419.844 174.197L421.083 257.893C421.083 257.893 458.875 268.582 475.474 253.8L486.423 175.465L464.626 169.073Z" fill="#E4E4E4"/>
<path d="M480.446 180.424L486.423 175.465C486.423 175.465 491.738 177.035 495.449 187.5C499.161 197.964 514.367 281.572 514.367 281.572L497.991 289.173L475.815 215.282L480.446 180.424Z" fill="#E4E4E4"/>
<path d="M349.22 279.992C349.374 278.867 349.774 277.79 350.39 276.837C351.006 275.883 351.824 275.076 352.786 274.472C353.748 273.868 354.83 273.483 355.957 273.343C357.085 273.203 358.229 273.312 359.309 273.661L375.953 251.643L380.747 265.16L364.206 283.997C363.498 285.772 362.163 287.227 360.454 288.084C358.745 288.942 356.781 289.143 354.934 288.649C353.086 288.155 351.484 287.001 350.431 285.406C349.378 283.81 348.947 281.884 349.22 279.992Z" fill="#FFB6B6"/>
<path d="M426.054 179.255L420.077 174.295C420.077 174.295 414.762 175.866 411.05 186.33C407.339 196.795 359.965 266.955 359.965 266.955L376.341 274.556L430.685 214.112L426.054 179.255Z" fill="#E4E4E4"/>
<path d="M381.058 151.883C380.849 150.792 380.63 149.705 380.399 148.621C379.882 146.192 379.314 143.768 378.7 141.366C378.397 140.151 378.07 138.937 377.738 137.727V137.722C367.014 99.3202 344.378 65.3105 313.088 40.5873C281.799 15.8641 243.47 1.7025 203.618 0.140653H203.6C201.187 0.0450527 198.768 -0.00181297 196.343 5.36219e-05C195.679 5.36219e-05 195.016 0.00567749 194.357 0.0169402C153.699 0.464004 114.276 14.0477 81.9767 38.7391C49.6774 63.4306 26.2349 97.9049 15.1506 137.013C14.8017 138.239 14.4698 139.469 14.1548 140.702C13.5246 143.126 12.9508 145.562 12.4162 148.014V148.019C12.18 149.116 11.955 150.207 11.7355 151.304C9.34811 163.432 8.14977 175.764 8.15751 188.124C8.15751 192.843 8.33195 197.567 8.68082 202.201C8.73136 202.865 8.78192 203.529 8.83825 204.187C8.9734 205.846 9.14206 207.572 9.33902 209.327C14.1246 251.406 32.97 290.642 62.8269 320.687C92.6838 350.732 131.806 369.83 173.867 374.892C215.928 379.954 258.466 370.684 294.603 348.581C330.74 326.478 358.362 292.835 373.001 253.093C374.301 249.567 375.49 246.005 376.568 242.408C379.216 233.637 381.21 224.681 382.532 215.615C382.841 213.523 383.113 211.427 383.347 209.327C383.544 207.572 383.713 205.846 383.848 204.192C384.298 198.923 384.529 193.518 384.529 188.124C384.535 175.961 383.373 163.825 381.058 151.883Z" fill="white"/>
<path d="M240.444 35.7158C240.379 35.716 240.315 35.7034 240.255 35.6787C240.194 35.6539 240.14 35.6176 240.094 35.5717C240.048 35.5258 240.011 35.4712 239.986 35.4111C239.961 35.3511 239.948 35.2867 239.948 35.2216C239.948 35.1566 239.961 35.0922 239.986 35.0321C240.011 34.972 240.048 34.9175 240.094 34.8716C240.14 34.8256 240.194 34.7893 240.255 34.7646C240.315 34.7398 240.379 34.7272 240.444 34.7274H273.166C273.99 31.3323 275.927 28.3109 278.67 26.1453C281.412 23.9796 284.801 22.7946 288.295 22.7794C289.539 18.7564 291.925 15.1812 295.163 12.488C298.402 9.7949 302.352 8.09979 306.536 7.60862C310.719 7.11746 314.955 7.85138 318.73 9.72123C322.504 11.5911 325.653 14.5164 327.796 18.1417C328.282 18.1039 328.759 18.0848 329.218 18.0848C333.871 18.0974 338.348 19.8662 341.753 23.0372C345.158 26.2083 347.239 30.5476 347.581 35.187C347.585 35.2517 347.577 35.3167 347.556 35.3783C347.536 35.4398 347.503 35.4967 347.461 35.5457C347.418 35.5947 347.366 35.6349 347.308 35.6638C347.25 35.6928 347.187 35.71 347.122 35.7146C347.11 35.7154 347.099 35.7158 347.087 35.7158C346.962 35.7157 346.842 35.6682 346.75 35.5829C346.659 35.4976 346.603 35.3809 346.594 35.2562L240.444 35.7158Z" fill="#E6E6E6"/>
<path d="M341.205 42.0519H260.136C260.005 42.0515 259.88 41.9992 259.787 41.9066C259.695 41.8139 259.643 41.6885 259.643 41.5578C259.643 41.427 259.695 41.3016 259.787 41.209C259.88 41.1163 260.005 41.0641 260.136 41.0636H341.205C341.336 41.0641 341.461 41.1163 341.554 41.209C341.646 41.3016 341.698 41.427 341.698 41.5578C341.698 41.6885 341.646 41.8139 341.554 41.9066C341.461 41.9992 341.336 42.0515 341.205 42.0519Z" fill="#E6E6E6"/>
<path d="M64.9126 203.608H42.4109V255.754H64.9126V203.608Z" fill="#3F3D56"/>
<path d="M350.276 203.608H327.774V255.754H350.276V203.608Z" fill="#3F3D56"/>
<path d="M372.208 252.801C345.873 324.361 277.069 375.405 196.343 375.405C115.617 375.405 46.8128 324.361 20.478 252.801H372.208Z" fill="#050038"/>
<path d="M64.6976 159.442C100.429 159.442 129.395 130.485 129.395 94.7652C129.395 59.0453 100.429 30.0886 64.6976 30.0886C28.9661 30.0886 0 59.0453 0 94.7652C0 130.485 28.9661 159.442 64.6976 159.442Z" fill="#E4E4E4"/>
<path d="M381.058 151.883C380.849 150.792 380.63 149.705 380.399 148.621C379.882 146.192 379.314 143.768 378.7 141.366C378.397 140.151 378.07 138.937 377.738 137.727V137.722C367.014 99.3202 344.378 65.3105 313.088 40.5873C281.799 15.8641 243.47 1.7025 203.618 0.140653H203.6C201.187 0.0450527 198.768 -0.00181297 196.343 5.36219e-05C195.679 5.36219e-05 195.016 0.00567749 194.357 0.0169402C153.699 0.464004 114.276 14.0477 81.9767 38.7391C49.6774 63.4306 26.2349 97.9049 15.1506 137.013C14.8017 138.239 14.4698 139.469 14.1548 140.702C13.5246 143.126 12.9508 145.562 12.4162 148.014V148.019C12.18 149.116 11.955 150.207 11.7355 151.304C9.34811 163.432 8.14977 175.764 8.15751 188.124C8.15751 192.843 8.33195 197.567 8.68082 202.201C8.73136 202.865 8.78192 203.529 8.83825 204.187C8.9734 205.846 9.14206 207.572 9.33902 209.327C14.1246 251.406 32.97 290.642 62.8269 320.687C92.6838 350.732 131.806 369.83 173.867 374.892C215.928 379.954 258.466 370.684 294.603 348.581C330.74 326.478 358.362 292.835 373.001 253.093C374.301 249.567 375.49 246.005 376.568 242.408C379.216 233.637 381.21 224.681 382.532 215.615C382.841 213.523 383.113 211.427 383.347 209.327C383.544 207.572 383.713 205.846 383.848 204.192C384.298 198.923 384.529 193.518 384.529 188.124C384.535 175.961 383.373 163.825 381.058 151.883ZM382.166 204.052C382.036 205.688 381.868 207.404 381.671 209.136C381.434 211.222 381.166 213.303 380.866 215.379C379.547 224.363 377.571 233.239 374.953 241.935C373.879 245.495 372.699 249.02 371.415 252.509C344.551 325.514 274.194 374.562 196.343 374.562C118.492 374.562 48.135 325.514 21.2715 252.509C16.1193 238.516 12.6757 223.953 11.0155 209.136C10.8185 207.404 10.6499 205.688 10.5147 204.046C10.4584 203.394 10.4079 202.741 10.3573 202.083C10.0197 197.489 9.84524 192.798 9.84524 188.125C9.83723 175.125 11.1911 162.16 13.8847 149.442C14.121 148.312 14.374 147.187 14.6272 146.062V146.057C15.2236 143.515 15.8669 140.991 16.557 138.487C16.6526 138.138 16.7482 137.789 16.8496 137.446C16.9394 137.114 17.035 136.783 17.1364 136.451C17.305 135.843 17.4852 135.242 17.6652 134.645C40.5343 58.4227 110.982 2.5647 194.369 1.69861C195.027 1.69298 195.685 1.68735 196.343 1.68735C198.751 1.68735 201.152 1.73234 203.544 1.82232C284.906 4.92681 353.086 60.3912 375.246 135.393C375.617 136.653 375.978 137.921 376.326 139.195C377.001 141.67 377.626 144.173 378.2 146.687C378.453 147.8 378.695 148.919 378.925 150.044C381.537 162.569 382.849 175.33 382.841 188.125C382.841 193.467 382.616 198.827 382.166 204.052Z" fill="#3F3D56"/>
<path d="M62.3555 173.445H44.9678V206.164H62.3555V173.445Z" fill="#3F3D56"/>
<path d="M51.6161 102.894H47.5249V176.512H51.6161V102.894Z" fill="#3F3D56"/>
<path d="M59.7985 102.894H55.7073V176.512H59.7985V102.894Z" fill="#3F3D56"/>
<path d="M58.7758 105.962H49.5706V111.074H58.7758V105.962Z" fill="#3F3D56"/>
<path d="M58.7758 126.411H49.5706V131.524H58.7758V126.411Z" fill="#3F3D56"/>
<path d="M58.7758 148.906H49.5706V154.018H58.7758V148.906Z" fill="#3F3D56"/>
<path d="M50.5932 99.8269H48.5476V104.939H50.5932V99.8269Z" fill="#3F3D56"/>
<path d="M58.7758 99.8269H56.7302V104.939H58.7758V99.8269Z" fill="#3F3D56"/>
<path d="M347.719 173.445H330.331V206.164H347.719V173.445Z" fill="#3F3D56"/>
<path d="M336.979 102.894H332.888V176.512H336.979V102.894Z" fill="#3F3D56"/>
<path d="M345.162 102.894H341.07V176.512H345.162V102.894Z" fill="#3F3D56"/>
<path d="M344.139 105.962H334.933V111.074H344.139V105.962Z" fill="#3F3D56"/>
<path d="M344.139 126.411H334.933V131.524H344.139V126.411Z" fill="#3F3D56"/>
<path d="M344.139 148.906H334.933V154.018H344.139V148.906Z" fill="#3F3D56"/>
<path d="M335.956 99.8269H333.911V104.939H335.956V99.8269Z" fill="#3F3D56"/>
<path d="M344.139 99.8269H342.093V104.939H344.139V99.8269Z" fill="#3F3D56"/>
<path d="M383.01 204.119C382.869 205.834 382.702 207.539 382.509 209.231H10.177C9.98583 207.539 9.81899 205.834 9.67651 204.119H383.01Z" fill="#3F3D56"/>
<path d="M199.146 196.165C150.106 196.165 99.5272 164.325 48.7747 101.492L50.3663 100.207C101.415 163.407 152.164 195.022 201.176 194.102C248.814 193.231 296.295 161.651 342.297 100.236L343.935 101.462C297.534 163.408 249.516 195.264 201.213 196.147C200.525 196.159 199.836 196.165 199.146 196.165Z" fill="#3F3D56"/>
<path d="M198.991 189.293C152.669 189.293 104.898 159.767 56.9629 101.499L58.5431 100.2C106.749 158.798 154.645 188.063 200.95 187.23C245.903 186.405 290.708 157.134 334.12 100.229L335.747 101.469C291.936 158.896 246.597 188.438 200.988 189.275C200.323 189.287 199.656 189.293 198.991 189.293Z" fill="#3F3D56"/>
<path d="M381.058 151.883C380.349 151.276 379.634 150.663 378.925 150.044C363.617 136.721 348.27 120.536 332.883 101.492L334.475 100.209C349.086 118.302 363.66 133.794 378.2 146.686C378.931 147.339 379.664 147.984 380.399 148.621C380.63 149.706 380.849 150.794 381.058 151.883Z" fill="#3F3D56"/>
<path d="M378.7 141.366C377.907 140.657 377.116 139.934 376.326 139.195C363.727 127.448 351.947 114.853 341.069 101.497L342.65 100.198C352.765 112.602 363.652 124.357 375.246 135.393C376.079 136.186 376.906 136.962 377.738 137.722V137.727C378.07 138.936 378.397 140.151 378.7 141.366Z" fill="#3F3D56"/>
<path d="M72.6987 116.982H70.6531V205.653H72.6987V116.982Z" fill="#3F3D56"/>
<path d="M91.7295 136.448H89.6838V205.653H91.7295V136.448Z" fill="#3F3D56"/>
<path d="M117.651 158.09H115.606V206.164H117.651V158.09Z" fill="#3F3D56"/>
<path d="M142.467 173.445H140.421V205.653H142.467V173.445Z" fill="#3F3D56"/>
<path d="M163.058 182.127H161.012V206.675H163.058V182.127Z" fill="#3F3D56"/>
<path d="M356.243 116.982H354.198V205.653H356.243V116.982Z" fill="#3F3D56"/>
<path d="M375.274 136.448H373.228V205.653H375.274V136.448Z" fill="#3F3D56"/>
<path d="M59.2405 101.492C52.1296 110.293 45.0241 118.489 37.9242 126.08C37.2377 126.805 36.557 127.527 35.8821 128.245C30.2112 134.201 24.5496 139.769 18.8973 144.949C18.2111 145.578 17.5286 146.199 16.8497 146.81C15.8594 147.699 14.8749 148.576 13.8849 149.442C13.6541 149.645 13.4291 149.847 13.1984 150.044C12.7146 150.466 12.2251 150.888 11.7356 151.304C11.9551 150.207 12.1801 149.116 12.4163 148.019V148.014C12.9229 147.581 13.4234 147.136 13.9241 146.686C14.1604 146.478 14.3911 146.27 14.6274 146.062V146.056C15.3699 145.398 16.1107 144.731 16.8497 144.054C17.5359 143.436 18.2184 142.808 18.8973 142.17C24.5515 136.934 30.2131 131.297 35.8821 125.259C36.5628 124.533 37.2435 123.808 37.9242 123.071C44.4951 115.979 51.0699 108.358 57.6486 100.209L59.2405 101.492Z" fill="#3F3D56"/>
<path d="M51.0548 101.497C46.6047 106.908 42.1584 112.069 37.7159 116.98C37.1028 117.655 36.4951 118.324 35.882 118.988C30.1602 125.225 24.4424 131.046 18.7286 136.451C18.0984 137.047 17.4721 137.635 16.8496 138.217C16.754 138.312 16.6526 138.402 16.557 138.487C16.3038 138.728 16.0508 138.959 15.7975 139.195C15.2517 139.707 14.7061 140.207 14.1548 140.702C14.4699 139.471 14.8018 138.241 15.1506 137.013C15.7299 136.484 16.3056 135.944 16.8776 135.393C17.1421 135.146 17.4009 134.898 17.6652 134.645C23.5611 129.049 29.4627 123.005 35.3699 116.513C40.0676 111.351 44.7689 105.912 49.4739 100.198L51.0548 101.497Z" fill="#3F3D56"/>
<path d="M37.9265 116.982H35.8809V205.653H37.9265V116.982Z" fill="#3F3D56"/>
<path d="M18.8955 136.448H16.8499V205.653H18.8955V136.448Z" fill="#3F3D56"/>
<path d="M325.102 114.937H323.056V205.653H325.102V114.937Z" fill="#3F3D56"/>
<path d="M306.071 136.448H304.025V205.653H306.071V136.448Z" fill="#3F3D56"/>
<path d="M280.149 158.09H278.104V206.164H280.149V158.09Z" fill="#3F3D56"/>
<path d="M255.334 173.445H253.288V205.653H255.334V173.445Z" fill="#3F3D56"/>
<path d="M234.743 182.127H232.697V206.675H234.743V182.127Z" fill="#3F3D56"/>
<path d="M195.086 188.161H193.041V206.675H195.086V188.161Z" fill="#3F3D56"/>
<path d="M182.051 302.512H134.763C134.033 302.512 133.333 302.223 132.817 301.707C132.301 301.191 132.011 300.491 132.011 299.762C132.011 299.032 132.301 298.333 132.817 297.817C133.333 297.301 134.033 297.011 134.763 297.011H182.051C182.781 297.011 183.481 297.301 183.997 297.817C184.513 298.333 184.802 299.032 184.802 299.762C184.802 300.491 184.513 301.191 183.997 301.707C183.481 302.223 182.781 302.512 182.051 302.512Z" fill="white"/>
<path d="M257.924 285.579H210.636C209.906 285.579 209.206 285.289 208.69 284.773C208.174 284.257 207.884 283.558 207.884 282.828C207.884 282.099 208.174 281.399 208.69 280.883C209.206 280.367 209.906 280.078 210.636 280.078H257.924C258.653 280.078 259.353 280.367 259.869 280.883C260.385 281.399 260.675 282.099 260.675 282.828C260.675 283.558 260.385 284.257 259.869 284.773C259.353 285.289 258.653 285.579 257.924 285.579Z" fill="white"/>
<path d="M227.191 326.195H179.903C179.173 326.195 178.473 325.905 177.957 325.389C177.441 324.873 177.151 324.174 177.151 323.444C177.151 322.715 177.441 322.015 177.957 321.499C178.473 320.983 179.173 320.693 179.903 320.693H227.191C227.921 320.693 228.621 320.983 229.137 321.499C229.653 322.015 229.943 322.715 229.943 323.444C229.943 324.174 229.653 324.873 229.137 325.389C228.621 325.905 227.921 326.195 227.191 326.195Z" fill="white"/>
<path d="M149.403 83.1179C149.338 83.1181 149.273 83.1055 149.213 83.0808C149.153 83.056 149.098 83.0197 149.052 82.9738C149.006 82.9279 148.969 82.8733 148.944 82.8132C148.919 82.7532 148.906 82.6888 148.906 82.6237C148.906 82.5587 148.919 82.4943 148.944 82.4342C148.969 82.3741 149.006 82.3196 149.052 82.2737C149.098 82.2278 149.153 82.1914 149.213 82.1667C149.273 82.1419 149.338 82.1293 149.403 82.1296H182.124C182.948 78.7344 184.886 75.713 187.628 73.5474C190.37 71.3817 193.759 70.1967 197.254 70.1815C198.498 66.1585 200.884 62.5833 204.122 59.8901C207.36 57.197 211.311 55.5019 215.494 55.0107C219.677 54.5196 223.914 55.2535 227.688 57.1233C231.462 58.9932 234.612 61.9185 236.754 65.5438C237.241 65.506 237.718 65.4869 238.176 65.4869C242.83 65.4995 247.307 67.2683 250.711 70.4393C254.116 73.6104 256.197 77.9497 256.539 82.5891C256.543 82.6538 256.535 82.7188 256.515 82.7804C256.494 82.842 256.461 82.8988 256.419 82.9478C256.376 82.9968 256.324 83.037 256.266 83.0659C256.208 83.0949 256.145 83.1121 256.08 83.1167C256.069 83.1175 256.057 83.1179 256.045 83.1179C255.92 83.1178 255.8 83.0703 255.708 82.985C255.617 82.8997 255.561 82.783 255.553 82.6583L149.403 83.1179Z" fill="#E6E6E6"/>
<path d="M188.867 96.6194H161.679C161.548 96.619 161.423 96.5667 161.331 96.4741C161.238 96.3815 161.187 96.256 161.187 96.1253C161.187 95.9945 161.238 95.8691 161.331 95.7765C161.423 95.6838 161.548 95.6316 161.679 95.6311H188.867C188.932 95.6309 188.997 95.6435 189.057 95.6682C189.117 95.6929 189.172 95.7293 189.218 95.7752C189.264 95.8211 189.3 95.8757 189.325 95.9358C189.35 95.9958 189.363 96.0602 189.363 96.1253C189.363 96.1903 189.35 96.2547 189.325 96.3148C189.3 96.3749 189.264 96.4294 189.218 96.4753C189.172 96.5212 189.117 96.5576 189.057 96.5823C188.997 96.6071 188.932 96.6197 188.867 96.6194Z" fill="#E6E6E6"/>
<path d="M204.28 28.8172L208.391 25.5303C205.198 25.1781 203.885 26.9192 203.348 28.2974C200.853 27.2617 198.137 28.619 198.137 28.619L206.363 31.6042C205.948 30.4962 205.225 29.5294 204.28 28.8172Z" fill="#3F3D56"/>
<path d="M218.907 114.303L223.019 111.016C219.825 110.664 218.513 112.405 217.976 113.783C215.481 112.747 212.764 114.105 212.764 114.105L220.99 117.09C220.575 115.982 219.852 115.015 218.907 114.303Z" fill="#3F3D56"/>
<path d="M315.11 82.2456L319.221 78.9586C316.027 78.6064 314.715 80.3476 314.178 81.7258C311.683 80.6901 308.967 82.0474 308.967 82.0474L317.192 85.0325C316.777 83.9246 316.055 82.9578 315.11 82.2456Z" fill="#3F3D56"/>
<path d="M72.5739 246.052H32.6301V252.801H72.5739V246.052Z" fill="#3F3D56"/>
<path d="M358.931 246.052H318.987V252.801H358.931V246.052Z" fill="#3F3D56"/>
<path d="M383.308 199.181H9.31299V200.868H383.308V199.181Z" fill="#3F3D56"/>
<path d="M599.218 484.839H301.291C301.084 484.839 300.885 484.756 300.738 484.61C300.592 484.463 300.509 484.264 300.509 484.057C300.509 483.85 300.592 483.651 300.738 483.504C300.885 483.358 301.084 483.275 301.291 483.275H599.218C599.425 483.275 599.624 483.358 599.771 483.504C599.918 483.651 600 483.85 600 484.057C600 484.264 599.918 484.463 599.771 484.61C599.624 484.756 599.425 484.839 599.218 484.839Z" fill="#CACACA"/>
<path d="M470.25 140.376H444.435C443.95 140.376 443.481 140.198 443.118 139.877C442.754 139.557 442.52 139.114 442.46 138.633L442.125 135.96C442.093 135.703 441.978 135.464 441.798 135.278C441.618 135.092 441.382 134.969 441.126 134.929C440.87 134.889 440.608 134.933 440.379 135.054C440.151 135.176 439.968 135.369 439.858 135.604L438.166 139.228C438.005 139.571 437.75 139.861 437.431 140.064C437.111 140.267 436.741 140.375 436.362 140.376H432.441C432.164 140.376 431.889 140.319 431.636 140.206C431.382 140.094 431.155 139.93 430.968 139.725C430.781 139.52 430.64 139.278 430.552 139.015C430.465 138.752 430.433 138.473 430.46 138.197L432.006 122.052C432.039 121.707 432.161 121.376 432.361 121.092C432.56 120.808 432.83 120.58 433.143 120.432C444.966 114.914 456.955 114.921 468.778 120.453C469.077 120.594 469.338 120.807 469.534 121.074C469.731 121.34 469.858 121.652 469.904 121.98L472.22 138.104C472.261 138.386 472.24 138.674 472.16 138.948C472.079 139.221 471.941 139.474 471.754 139.69C471.567 139.906 471.336 140.078 471.077 140.197C470.817 140.315 470.535 140.376 470.25 140.376Z" fill="#2F2E41"/>
</g>
<defs>
<clipPath id="clip0_1197_6283">
<rect width="600" height="484.839" fill="white"/>
</clipPath>
</defs>
</svg>
