<svg width="81" height="81" viewBox="0 0 81 81" fill="none" xmlns="http://www.w3.org/2000/svg">
<path d="M72.9516 13.9031C72.8583 12.3805 72.2114 10.9445 71.1327 9.86576C70.054 8.78706 68.618 8.14012 67.0953 8.04687C62.9922 7.80625 52.5172 8.17812 43.8203 16.8719L42.6859 18H24.9859C24.1648 17.9973 23.3513 18.1577 22.5928 18.4721C21.8342 18.7865 21.1457 19.2485 20.5672 19.8312L9.83282 30.5594C9.01106 31.3808 8.43452 32.4149 8.16795 33.5458C7.90137 34.6767 7.95531 35.8595 8.3237 36.9615C8.69209 38.0634 9.36036 39.0408 10.2535 39.784C11.1466 40.5272 12.2292 41.0067 13.3797 41.1687L24.9859 42.7875L38.2109 56.0125L39.8328 67.6312C39.9908 68.7836 40.4691 69.8684 41.2132 70.7623C41.9574 71.6562 42.9376 72.3232 44.0422 72.6875C44.6846 72.8979 45.3568 73.0035 46.0328 73C46.8519 72.9995 47.6628 72.8372 48.4189 72.5224C49.1751 72.2076 49.8616 71.7465 50.4391 71.1656L61.1703 60.4312C61.7523 59.8523 62.2135 59.1636 62.5273 58.4051C62.8411 57.6466 63.0013 56.8334 62.9985 56.0125V38.3125L64.1235 37.1906C72.8203 28.4812 73.1922 18 72.9516 13.9031ZM25.4984 25.5H35.1859L25.4203 35.275L16.9109 34.0875L25.4984 25.5ZM49.1235 22.1781C51.2633 20.0206 53.8164 18.3171 56.6301 17.1696C59.4438 16.0222 62.4601 15.4543 65.4985 15.5C65.546 18.5393 64.9786 21.5569 63.8305 24.3714C62.6823 27.1859 60.9771 29.7393 58.8172 31.8781L41.7484 48.9375L32.0609 39.25L49.1235 22.1781ZM55.4985 55.5L46.9078 64.0906L45.7203 55.5812L55.4985 45.8125V55.5ZM33.1016 62.2562C30.3953 66.0156 24.9234 70.5 14.2484 70.5C13.2539 70.5 12.3001 70.1049 11.5968 69.4016C10.8935 68.6984 10.4984 67.7446 10.4984 66.75C10.4984 56.0781 14.9828 50.6062 18.7453 47.8969C19.5537 47.3633 20.5372 47.1631 21.4899 47.3384C22.4425 47.5137 23.2903 48.0508 23.8558 48.8373C24.4213 49.6237 24.6606 50.5984 24.5235 51.5573C24.3863 52.5162 23.8835 53.3848 23.1203 53.9812C21.2453 55.3281 19.0922 57.8875 18.3016 62.6906C23.1047 61.9 25.6641 59.7406 27.0109 57.8719C27.2892 57.4504 27.6497 57.0894 28.0709 56.8106C28.4921 56.5319 28.9652 56.3411 29.4619 56.2497C29.9587 56.1583 30.4687 56.1681 30.9616 56.2787C31.4544 56.3893 31.9198 56.5983 32.3298 56.8931C32.7399 57.188 33.0862 57.5626 33.3479 57.9946C33.6096 58.4266 33.7813 58.907 33.8528 59.407C33.9243 59.9069 33.8941 60.4162 33.7639 60.9042C33.6337 61.3922 33.4063 61.8489 33.0953 62.2469L33.1016 62.2562Z" fill="white"/>
</svg>
