<svg width="81" height="81" viewBox="0 0 81 81" fill="none" xmlns="http://www.w3.org/2000/svg">
<path d="M40.5 12.5C38.9087 12.5 37.3826 13.1321 36.2574 14.2574C35.1321 15.3826 34.5 16.9087 34.5 18.5C34.5 20.0913 35.1321 21.6174 36.2574 22.7426C37.3826 23.8679 38.9087 24.5 40.5 24.5C42.0913 24.5 43.6174 23.8679 44.7426 22.7426C45.8679 21.6174 46.5 20.0913 46.5 18.5C46.5 16.9087 45.8679 15.3826 44.7426 14.2574C43.6174 13.1321 42.0913 12.5 40.5 12.5ZM30.5 18.5C30.5 15.8478 31.5536 13.3043 33.4289 11.4289C35.3043 9.55357 37.8478 8.5 40.5 8.5C43.1522 8.5 45.6957 9.55357 47.5711 11.4289C49.4464 13.3043 50.5 15.8478 50.5 18.5C50.5 21.1522 49.4464 23.6957 47.5711 25.5711C45.6957 27.4464 43.1522 28.5 40.5 28.5C37.8478 28.5 35.3043 27.4464 33.4289 25.5711C31.5536 23.6957 30.5 21.1522 30.5 18.5ZM62.5 16.5C61.4391 16.5 60.4217 16.9214 59.6716 17.6716C58.9214 18.4217 58.5 19.4391 58.5 20.5C58.5 21.5609 58.9214 22.5783 59.6716 23.3284C60.4217 24.0786 61.4391 24.5 62.5 24.5C63.5609 24.5 64.5783 24.0786 65.3284 23.3284C66.0786 22.5783 66.5 21.5609 66.5 20.5C66.5 19.4391 66.0786 18.4217 65.3284 17.6716C64.5783 16.9214 63.5609 16.5 62.5 16.5ZM54.5 20.5C54.5 18.3783 55.3429 16.3434 56.8431 14.8431C58.3434 13.3429 60.3783 12.5 62.5 12.5C64.6217 12.5 66.6566 13.3429 68.1569 14.8431C69.6571 16.3434 70.5 18.3783 70.5 20.5C70.5 22.6217 69.6571 24.6566 68.1569 26.1569C66.6566 27.6571 64.6217 28.5 62.5 28.5C60.3783 28.5 58.3434 27.6571 56.8431 26.1569C55.3429 24.6566 54.5 22.6217 54.5 20.5ZM14.5 20.5C14.5 19.4391 14.9214 18.4217 15.6716 17.6716C16.4217 16.9214 17.4391 16.5 18.5 16.5C19.5609 16.5 20.5783 16.9214 21.3284 17.6716C22.0786 18.4217 22.5 19.4391 22.5 20.5C22.5 21.5609 22.0786 22.5783 21.3284 23.3284C20.5783 24.0786 19.5609 24.5 18.5 24.5C17.4391 24.5 16.4217 24.0786 15.6716 23.3284C14.9214 22.5783 14.5 21.5609 14.5 20.5ZM18.5 12.5C16.3783 12.5 14.3434 13.3429 12.8431 14.8431C11.3429 16.3434 10.5 18.3783 10.5 20.5C10.5 22.6217 11.3429 24.6566 12.8431 26.1569C14.3434 27.6571 16.3783 28.5 18.5 28.5C20.6217 28.5 22.6566 27.6571 24.1569 26.1569C25.6571 24.6566 26.5 22.6217 26.5 20.5C26.5 18.3783 25.6571 16.3434 24.1569 14.8431C22.6566 13.3429 20.6217 12.5 18.5 12.5ZM20.9 60.492C19.8169 60.5462 18.7341 60.3797 17.7174 60.0025C16.7007 59.6253 15.7713 59.0454 14.9857 58.2979C14.2 57.5504 13.5745 56.651 13.1472 55.6543C12.7199 54.6576 12.4997 53.5844 12.5 52.5V37.5C12.5 37.2348 12.6054 36.9804 12.7929 36.7929C12.9804 36.6054 13.2348 36.5 13.5 36.5H20.556C20.716 35.032 21.236 33.668 22.016 32.5H13.5C10.74 32.5 8.5 34.74 8.5 37.5V52.5C8.49981 54.2125 8.86615 55.9052 9.57441 57.4643C10.2827 59.0235 11.3164 60.413 12.6062 61.5395C13.896 62.666 15.412 63.5033 17.0523 63.9954C18.6925 64.4874 20.4191 64.6226 22.116 64.392C21.5776 63.1373 21.1701 61.8304 20.9 60.492ZM58.884 64.392C60.5809 64.6226 62.3075 64.4874 63.9477 63.9954C65.588 63.5033 67.104 62.666 68.3938 61.5395C69.6836 60.413 70.7173 59.0235 71.4256 57.4643C72.1338 55.9052 72.5002 54.2125 72.5 52.5V37.5C72.5 34.74 70.26 32.5 67.5 32.5H58.984C59.768 33.668 60.284 35.032 60.444 36.5H67.5C67.7652 36.5 68.0196 36.6054 68.2071 36.7929C68.3946 36.9804 68.5 37.2348 68.5 37.5V52.5C68.5003 53.5844 68.2801 54.6576 67.8528 55.6543C67.4255 56.651 66.8 57.5504 66.0143 58.2979C65.2287 59.0454 64.2993 59.6253 63.2826 60.0025C62.2659 60.3797 61.1831 60.5462 60.1 60.492C59.8298 61.8303 59.4223 63.1372 58.884 64.392ZM29.5 32.5C26.74 32.5 24.5 34.74 24.5 37.5V56.5C24.5 60.7435 26.1857 64.8131 29.1863 67.8137C32.1869 70.8143 36.2565 72.5 40.5 72.5C44.7435 72.5 48.8131 70.8143 51.8137 67.8137C54.8143 64.8131 56.5 60.7435 56.5 56.5V37.5C56.5 34.74 54.26 32.5 51.5 32.5H29.5ZM28.5 37.5C28.5 37.2348 28.6054 36.9804 28.7929 36.7929C28.9804 36.6054 29.2348 36.5 29.5 36.5H51.5C51.7652 36.5 52.0196 36.6054 52.2071 36.7929C52.3946 36.9804 52.5 37.2348 52.5 37.5V56.5C52.5 59.6826 51.2357 62.7348 48.9853 64.9853C46.7348 67.2357 43.6826 68.5 40.5 68.5C37.3174 68.5 34.2652 67.2357 32.0147 64.9853C29.7643 62.7348 28.5 59.6826 28.5 56.5V37.5Z" fill="white"/>
</svg>
