<svg width="720" height="626" viewBox="0 0 720 626" fill="none" xmlns="http://www.w3.org/2000/svg">
<rect width="720" height="626" fill="white"/>
<path d="M257.114 213V195.545H267.58V197.42H259.227V203.318H266.795V205.193H259.227V213H257.114ZM270.927 213V199.909H272.938V213H270.927ZM271.95 197.727C271.558 197.727 271.219 197.594 270.935 197.327C270.657 197.06 270.518 196.739 270.518 196.364C270.518 195.989 270.657 195.668 270.935 195.401C271.219 195.134 271.558 195 271.95 195C272.342 195 272.677 195.134 272.955 195.401C273.239 195.668 273.381 195.989 273.381 196.364C273.381 196.739 273.239 197.06 272.955 197.327C272.677 197.594 272.342 197.727 271.95 197.727ZM278.088 213.136C277.668 213.136 277.307 212.986 277.006 212.685C276.705 212.384 276.554 212.023 276.554 211.602C276.554 211.182 276.705 210.821 277.006 210.52C277.307 210.219 277.668 210.068 278.088 210.068C278.509 210.068 278.869 210.219 279.17 210.52C279.472 210.821 279.622 211.182 279.622 211.602C279.622 211.881 279.551 212.136 279.409 212.369C279.273 212.602 279.088 212.79 278.855 212.932C278.628 213.068 278.372 213.136 278.088 213.136ZM291.447 210.767C291.027 210.767 290.666 210.616 290.365 210.315C290.064 210.014 289.913 209.653 289.913 209.233C289.913 208.812 290.064 208.452 290.365 208.151C290.666 207.849 291.027 207.699 291.447 207.699C291.868 207.699 292.229 207.849 292.53 208.151C292.831 208.452 292.982 208.812 292.982 209.233C292.982 209.511 292.911 209.767 292.768 210C292.632 210.233 292.447 210.42 292.214 210.562C291.987 210.699 291.732 210.767 291.447 210.767ZM291.447 201.938C291.027 201.938 290.666 201.787 290.365 201.486C290.064 201.185 289.913 200.824 289.913 200.403C289.913 199.983 290.064 199.622 290.365 199.321C290.666 199.02 291.027 198.869 291.447 198.869C291.868 198.869 292.229 199.02 292.53 199.321C292.831 199.622 292.982 199.983 292.982 200.403C292.982 200.682 292.911 200.938 292.768 201.17C292.632 201.403 292.447 201.591 292.214 201.733C291.987 201.869 291.732 201.938 291.447 201.938ZM303.614 213V195.545H314.08V197.42H305.727V203.318H313.295V205.193H305.727V213H303.614ZM317.427 213V199.909H319.438V213H317.427ZM318.45 197.727C318.058 197.727 317.719 197.594 317.435 197.327C317.157 197.06 317.018 196.739 317.018 196.364C317.018 195.989 317.157 195.668 317.435 195.401C317.719 195.134 318.058 195 318.45 195C318.842 195 319.177 195.134 319.455 195.401C319.739 195.668 319.881 195.989 319.881 196.364C319.881 196.739 319.739 197.06 319.455 197.327C319.177 197.594 318.842 197.727 318.45 197.727ZM332.395 202.841L330.588 203.352C330.474 203.051 330.307 202.759 330.085 202.474C329.869 202.185 329.574 201.946 329.199 201.759C328.824 201.571 328.344 201.477 327.759 201.477C326.957 201.477 326.29 201.662 325.756 202.031C325.227 202.395 324.963 202.858 324.963 203.42C324.963 203.92 325.145 204.315 325.509 204.605C325.872 204.895 326.44 205.136 327.213 205.33L329.156 205.807C330.327 206.091 331.199 206.526 331.773 207.111C332.347 207.69 332.634 208.437 332.634 209.352C332.634 210.102 332.418 210.773 331.986 211.364C331.56 211.955 330.963 212.42 330.196 212.761C329.429 213.102 328.537 213.273 327.52 213.273C326.185 213.273 325.08 212.983 324.205 212.403C323.33 211.824 322.776 210.977 322.543 209.864L324.452 209.386C324.634 210.091 324.977 210.619 325.483 210.972C325.994 211.324 326.662 211.5 327.486 211.5C328.423 211.5 329.168 211.301 329.719 210.903C330.276 210.5 330.554 210.017 330.554 209.455C330.554 209 330.395 208.619 330.077 208.312C329.759 208 329.27 207.767 328.611 207.614L326.429 207.102C325.23 206.818 324.349 206.378 323.787 205.781C323.23 205.179 322.952 204.426 322.952 203.523C322.952 202.784 323.159 202.131 323.574 201.562C323.994 200.994 324.565 200.548 325.287 200.224C326.014 199.901 326.838 199.739 327.759 199.739C329.054 199.739 330.071 200.023 330.81 200.591C331.554 201.159 332.082 201.909 332.395 202.841ZM344.934 202.841L343.127 203.352C343.013 203.051 342.846 202.759 342.624 202.474C342.408 202.185 342.113 201.946 341.738 201.759C341.363 201.571 340.883 201.477 340.298 201.477C339.496 201.477 338.829 201.662 338.295 202.031C337.766 202.395 337.502 202.858 337.502 203.42C337.502 203.92 337.684 204.315 338.048 204.605C338.411 204.895 338.979 205.136 339.752 205.33L341.695 205.807C342.866 206.091 343.738 206.526 344.312 207.111C344.886 207.69 345.173 208.437 345.173 209.352C345.173 210.102 344.957 210.773 344.525 211.364C344.099 211.955 343.502 212.42 342.735 212.761C341.968 213.102 341.076 213.273 340.059 213.273C338.724 213.273 337.619 212.983 336.744 212.403C335.869 211.824 335.315 210.977 335.082 209.864L336.991 209.386C337.173 210.091 337.516 210.619 338.022 210.972C338.533 211.324 339.201 211.5 340.025 211.5C340.962 211.5 341.707 211.301 342.258 210.903C342.815 210.5 343.093 210.017 343.093 209.455C343.093 209 342.934 208.619 342.616 208.312C342.298 208 341.809 207.767 341.15 207.614L338.968 207.102C337.769 206.818 336.888 206.378 336.326 205.781C335.769 205.179 335.491 204.426 335.491 203.523C335.491 202.784 335.698 202.131 336.113 201.562C336.533 200.994 337.104 200.548 337.826 200.224C338.553 199.901 339.377 199.739 340.298 199.739C341.593 199.739 342.61 200.023 343.349 200.591C344.093 201.159 344.621 201.909 344.934 202.841ZM356.45 207.648V199.909H358.462V213H356.45V210.784H356.314C356.007 211.449 355.53 212.014 354.882 212.48C354.234 212.94 353.416 213.17 352.428 213.17C351.609 213.17 350.882 212.991 350.246 212.634C349.609 212.27 349.109 211.724 348.746 210.997C348.382 210.264 348.2 209.341 348.2 208.227V199.909H350.212V208.091C350.212 209.045 350.479 209.807 351.013 210.375C351.553 210.943 352.24 211.227 353.075 211.227C353.575 211.227 354.084 211.099 354.601 210.844C355.124 210.588 355.561 210.196 355.913 209.668C356.271 209.139 356.45 208.466 356.45 207.648ZM362.146 213V199.909H364.089V201.886H364.225C364.464 201.239 364.896 200.713 365.521 200.31C366.146 199.906 366.85 199.705 367.634 199.705C367.782 199.705 367.967 199.707 368.188 199.713C368.41 199.719 368.577 199.727 368.691 199.739V201.784C368.623 201.767 368.467 201.741 368.222 201.707C367.984 201.668 367.731 201.648 367.464 201.648C366.827 201.648 366.259 201.781 365.759 202.048C365.265 202.31 364.873 202.673 364.583 203.139C364.299 203.599 364.157 204.125 364.157 204.716V213H362.146ZM376.165 213.273C374.904 213.273 373.816 212.994 372.901 212.438C371.992 211.875 371.29 211.091 370.796 210.085C370.308 209.074 370.063 207.898 370.063 206.557C370.063 205.216 370.308 204.034 370.796 203.011C371.29 201.983 371.978 201.182 372.859 200.608C373.745 200.028 374.779 199.739 375.961 199.739C376.643 199.739 377.316 199.852 377.981 200.08C378.646 200.307 379.251 200.676 379.796 201.188C380.342 201.693 380.776 202.364 381.1 203.199C381.424 204.034 381.586 205.062 381.586 206.284V207.136H371.495V205.398H379.54C379.54 204.659 379.393 204 379.097 203.42C378.808 202.841 378.393 202.384 377.853 202.048C377.319 201.713 376.688 201.545 375.961 201.545C375.16 201.545 374.467 201.744 373.881 202.142C373.302 202.534 372.856 203.045 372.543 203.676C372.231 204.307 372.075 204.983 372.075 205.705V206.864C372.075 207.852 372.245 208.69 372.586 209.378C372.933 210.06 373.413 210.58 374.026 210.938C374.64 211.29 375.353 211.466 376.165 211.466C376.694 211.466 377.171 211.392 377.597 211.244C378.029 211.091 378.401 210.864 378.714 210.562C379.026 210.256 379.268 209.875 379.438 209.42L381.381 209.966C381.177 210.625 380.833 211.205 380.35 211.705C379.867 212.199 379.271 212.585 378.56 212.864C377.85 213.136 377.052 213.273 376.165 213.273Z" fill="#4262FF"/>
<path d="M62.1136 101V83.5455H72.5795V85.4205H64.2273V91.3182H71.7955V93.1932H64.2273V101H62.1136ZM75.7862 101V87.9091H77.7294V89.8864H77.8658C78.1044 89.2386 78.5362 88.7131 79.1612 88.3097C79.7862 87.9062 80.4908 87.7045 81.2749 87.7045C81.4226 87.7045 81.6072 87.7074 81.8288 87.7131C82.0504 87.7187 82.218 87.7273 82.3317 87.7386V89.7841C82.2635 89.767 82.1072 89.7415 81.8629 89.7074C81.6243 89.6676 81.3714 89.6477 81.1044 89.6477C80.468 89.6477 79.8999 89.7812 79.3999 90.0483C78.9055 90.3097 78.5135 90.6733 78.2237 91.1392C77.9396 91.5994 77.7976 92.125 77.7976 92.7159V101H75.7862ZM84.6818 101.136C84.2614 101.136 83.9006 100.986 83.5994 100.685C83.2983 100.384 83.1477 100.023 83.1477 99.6023C83.1477 99.1818 83.2983 98.821 83.5994 98.5199C83.9006 98.2187 84.2614 98.0682 84.6818 98.0682C85.1023 98.0682 85.4631 98.2187 85.7642 98.5199C86.0653 98.821 86.2159 99.1818 86.2159 99.6023C86.2159 99.8807 86.1449 100.136 86.0028 100.369C85.8665 100.602 85.6818 100.79 85.4489 100.932C85.2216 101.068 84.9659 101.136 84.6818 101.136ZM98.0412 98.767C97.6207 98.767 97.2599 98.6165 96.9588 98.3153C96.6577 98.0142 96.5071 97.6534 96.5071 97.233C96.5071 96.8125 96.6577 96.4517 96.9588 96.1506C97.2599 95.8494 97.6207 95.6989 98.0412 95.6989C98.4616 95.6989 98.8224 95.8494 99.1236 96.1506C99.4247 96.4517 99.5753 96.8125 99.5753 97.233C99.5753 97.5114 99.5043 97.767 99.3622 98C99.2259 98.233 99.0412 98.4205 98.8082 98.5625C98.581 98.6989 98.3253 98.767 98.0412 98.767ZM98.0412 89.9375C97.6207 89.9375 97.2599 89.7869 96.9588 89.4858C96.6577 89.1847 96.5071 88.8239 96.5071 88.4034C96.5071 87.983 96.6577 87.6222 96.9588 87.321C97.2599 87.0199 97.6207 86.8693 98.0412 86.8693C98.4616 86.8693 98.8224 87.0199 99.1236 87.321C99.4247 87.6222 99.5753 87.983 99.5753 88.4034C99.5753 88.6818 99.5043 88.9375 99.3622 89.1705C99.2259 89.4034 99.0412 89.5909 98.8082 89.733C98.581 89.8693 98.3253 89.9375 98.0412 89.9375ZM110.207 101V83.5455H120.673V85.4205H112.321V91.3182H119.889V93.1932H112.321V101H110.207ZM123.88 101V87.9091H125.823V89.8864H125.96C126.198 89.2386 126.63 88.7131 127.255 88.3097C127.88 87.9062 128.585 87.7045 129.369 87.7045C129.516 87.7045 129.701 87.7074 129.923 87.7131C130.144 87.7187 130.312 87.7273 130.425 87.7386V89.7841C130.357 89.767 130.201 89.7415 129.957 89.7074C129.718 89.6676 129.465 89.6477 129.198 89.6477C128.562 89.6477 127.994 89.7812 127.494 90.0483C126.999 90.3097 126.607 90.6733 126.317 91.1392C126.033 91.5994 125.891 92.125 125.891 92.7159V101H123.88ZM136.662 101.307C135.832 101.307 135.08 101.151 134.403 100.838C133.727 100.52 133.19 100.062 132.793 99.4659C132.395 98.8636 132.196 98.1364 132.196 97.2841C132.196 96.5341 132.344 95.9261 132.639 95.4602C132.935 94.9886 133.33 94.6193 133.824 94.3523C134.318 94.0852 134.864 93.8864 135.46 93.7557C136.063 93.6193 136.668 93.5114 137.276 93.4318C138.071 93.3295 138.716 93.2528 139.21 93.2017C139.71 93.1449 140.074 93.0511 140.301 92.9205C140.534 92.7898 140.651 92.5625 140.651 92.2386V92.1705C140.651 91.3295 140.42 90.6761 139.96 90.2102C139.506 89.7443 138.815 89.5114 137.889 89.5114C136.929 89.5114 136.176 89.7216 135.631 90.142C135.085 90.5625 134.702 91.0114 134.48 91.4886L132.571 90.8068C132.912 90.0114 133.366 89.392 133.935 88.9489C134.509 88.5 135.134 88.1875 135.81 88.0114C136.491 87.8295 137.162 87.7386 137.821 87.7386C138.241 87.7386 138.724 87.7898 139.27 87.892C139.821 87.9886 140.352 88.1903 140.864 88.4972C141.381 88.804 141.81 89.267 142.151 89.8864C142.491 90.5057 142.662 91.3352 142.662 92.375V101H140.651V99.2273H140.548C140.412 99.5114 140.185 99.8153 139.866 100.139C139.548 100.463 139.125 100.739 138.597 100.966C138.068 101.193 137.423 101.307 136.662 101.307ZM136.969 99.5C137.764 99.5 138.435 99.3438 138.98 99.0312C139.531 98.7188 139.946 98.3153 140.224 97.821C140.509 97.3267 140.651 96.8068 140.651 96.2614V94.4205C140.565 94.5227 140.378 94.6165 140.088 94.7017C139.804 94.7812 139.474 94.8523 139.099 94.9148C138.73 94.9716 138.369 95.0227 138.017 95.0682C137.67 95.108 137.389 95.142 137.173 95.1705C136.651 95.2386 136.162 95.3494 135.707 95.5028C135.259 95.6506 134.895 95.875 134.616 96.1761C134.344 96.4716 134.207 96.875 134.207 97.3864C134.207 98.0852 134.466 98.6136 134.983 98.9716C135.506 99.3239 136.168 99.5 136.969 99.5ZM151.651 101.273C150.424 101.273 149.367 100.983 148.481 100.403C147.594 99.8239 146.913 99.0256 146.435 98.0085C145.958 96.9915 145.719 95.8295 145.719 94.5227C145.719 93.1932 145.964 92.0199 146.452 91.0028C146.947 89.9801 147.634 89.1818 148.515 88.608C149.401 88.0284 150.435 87.7386 151.617 87.7386C152.538 87.7386 153.367 87.9091 154.106 88.25C154.844 88.5909 155.45 89.0682 155.921 89.6818C156.393 90.2955 156.685 91.0114 156.799 91.8295H154.788C154.634 91.233 154.293 90.7045 153.765 90.2443C153.242 89.7784 152.538 89.5455 151.651 89.5455C150.867 89.5455 150.18 89.75 149.589 90.1591C149.004 90.5625 148.546 91.1335 148.217 91.8722C147.893 92.6051 147.731 93.4659 147.731 94.4545C147.731 95.4659 147.89 96.3466 148.208 97.0966C148.532 97.8466 148.987 98.429 149.572 98.8438C150.163 99.2585 150.856 99.4659 151.651 99.4659C152.174 99.4659 152.648 99.375 153.075 99.1932C153.501 99.0114 153.862 98.75 154.157 98.4091C154.452 98.0682 154.663 97.6591 154.788 97.1818H156.799C156.685 97.9545 156.404 98.6506 155.955 99.2699C155.512 99.8835 154.924 100.372 154.191 100.736C153.464 101.094 152.617 101.273 151.651 101.273ZM165.433 87.9091V89.6136H158.648V87.9091H165.433ZM160.626 84.7727H162.637V97.25C162.637 97.8182 162.719 98.2443 162.884 98.5284C163.055 98.8068 163.271 98.9943 163.532 99.0909C163.799 99.1818 164.08 99.2273 164.376 99.2273C164.597 99.2273 164.779 99.2159 164.921 99.1932C165.063 99.1648 165.177 99.142 165.262 99.125L165.671 100.932C165.535 100.983 165.344 101.034 165.1 101.085C164.856 101.142 164.546 101.17 164.171 101.17C163.603 101.17 163.046 101.048 162.501 100.804C161.961 100.56 161.512 100.188 161.154 99.6875C160.802 99.1875 160.626 98.5568 160.626 97.7955V84.7727ZM176.708 95.6477V87.9091H178.719V101H176.708V98.7841H176.572C176.265 99.4489 175.788 100.014 175.14 100.48C174.492 100.94 173.674 101.17 172.685 101.17C171.867 101.17 171.14 100.991 170.504 100.634C169.867 100.27 169.367 99.7244 169.004 98.9972C168.64 98.2642 168.458 97.3409 168.458 96.2273V87.9091H170.469V96.0909C170.469 97.0455 170.737 97.8068 171.271 98.375C171.81 98.9432 172.498 99.2273 173.333 99.2273C173.833 99.2273 174.342 99.0994 174.859 98.8438C175.381 98.5881 175.819 98.196 176.171 97.6676C176.529 97.1392 176.708 96.4659 176.708 95.6477ZM182.403 101V87.9091H184.347V89.8864H184.483C184.722 89.2386 185.153 88.7131 185.778 88.3097C186.403 87.9062 187.108 87.7045 187.892 87.7045C188.04 87.7045 188.224 87.7074 188.446 87.7131C188.668 87.7187 188.835 87.7273 188.949 87.7386V89.7841C188.881 89.767 188.724 89.7415 188.48 89.7074C188.241 89.6676 187.989 89.6477 187.722 89.6477C187.085 89.6477 186.517 89.7812 186.017 90.0483C185.523 90.3097 185.131 90.6733 184.841 91.1392C184.557 91.5994 184.415 92.125 184.415 92.7159V101H182.403ZM196.423 101.273C195.162 101.273 194.074 100.994 193.159 100.438C192.25 99.875 191.548 99.0909 191.054 98.0852C190.565 97.0739 190.321 95.8977 190.321 94.5568C190.321 93.2159 190.565 92.0341 191.054 91.0114C191.548 89.983 192.236 89.1818 193.116 88.608C194.003 88.0284 195.037 87.7386 196.219 87.7386C196.901 87.7386 197.574 87.8523 198.239 88.0795C198.903 88.3068 199.509 88.6761 200.054 89.1875C200.599 89.6932 201.034 90.3636 201.358 91.1989C201.682 92.0341 201.844 93.0625 201.844 94.2841V95.1364H191.753V93.3977H199.798C199.798 92.6591 199.651 92 199.355 91.4205C199.065 90.8409 198.651 90.3835 198.111 90.0483C197.577 89.7131 196.946 89.5455 196.219 89.5455C195.418 89.5455 194.724 89.7443 194.139 90.142C193.56 90.5341 193.114 91.0455 192.801 91.6761C192.489 92.3068 192.332 92.983 192.332 93.7045V94.8636C192.332 95.8523 192.503 96.6903 192.844 97.3778C193.19 98.0597 193.67 98.5795 194.284 98.9375C194.898 99.2898 195.611 99.4659 196.423 99.4659C196.952 99.4659 197.429 99.392 197.855 99.2443C198.287 99.0909 198.659 98.8636 198.972 98.5625C199.284 98.2557 199.526 97.875 199.696 97.4205L201.639 97.9659C201.435 98.625 201.091 99.2045 200.608 99.7045C200.125 100.199 199.528 100.585 198.818 100.864C198.108 101.136 197.31 101.273 196.423 101.273Z" fill="#FF7565"/>
<path d="M50.1136 278V260.545H60.6477V262.42H52.2273V268.318H60.1023V270.193H52.2273V276.125H60.7841V278H50.1136ZM64.4574 278V260.545H66.4688V266.989H66.6392C66.7869 266.761 66.9915 266.472 67.2528 266.119C67.5199 265.761 67.9006 265.443 68.3949 265.165C68.8949 264.881 69.571 264.739 70.4233 264.739C71.5256 264.739 72.4972 265.014 73.3381 265.565C74.179 266.116 74.8352 266.898 75.3068 267.909C75.7784 268.92 76.0142 270.114 76.0142 271.489C76.0142 272.875 75.7784 274.077 75.3068 275.094C74.8352 276.105 74.1818 276.889 73.3466 277.446C72.5114 277.997 71.5483 278.273 70.4574 278.273C69.6165 278.273 68.9432 278.134 68.4375 277.855C67.9318 277.571 67.5426 277.25 67.2699 276.892C66.9972 276.528 66.7869 276.227 66.6392 275.989H66.4006V278H64.4574ZM66.4347 271.455C66.4347 272.443 66.5795 273.315 66.8693 274.071C67.1591 274.821 67.5824 275.409 68.1392 275.835C68.696 276.256 69.3778 276.466 70.1847 276.466C71.0256 276.466 71.7273 276.244 72.2898 275.801C72.858 275.352 73.2841 274.75 73.5682 273.994C73.858 273.233 74.0028 272.386 74.0028 271.455C74.0028 270.534 73.8608 269.705 73.5767 268.966C73.2983 268.222 72.875 267.634 72.3068 267.202C71.7443 266.764 71.0369 266.545 70.1847 266.545C69.3665 266.545 68.679 266.753 68.1222 267.168C67.5653 267.577 67.1449 268.151 66.8608 268.889C66.5767 269.622 66.4347 270.477 66.4347 271.455ZM84.9205 264.909V266.614H77.8636V264.909H84.9205ZM79.9773 278V263.102C79.9773 262.352 80.1534 261.727 80.5057 261.227C80.858 260.727 81.3153 260.352 81.8778 260.102C82.4403 259.852 83.0341 259.727 83.6591 259.727C84.1534 259.727 84.5568 259.767 84.8693 259.847C85.1818 259.926 85.4148 260 85.5682 260.068L84.9886 261.807C84.8864 261.773 84.7443 261.73 84.5625 261.679C84.3864 261.628 84.1534 261.602 83.8636 261.602C83.1989 261.602 82.7188 261.77 82.4233 262.105C82.1335 262.44 81.9886 262.932 81.9886 263.58V278H79.9773ZM87.8459 278.136C87.4254 278.136 87.0646 277.986 86.7635 277.685C86.4624 277.384 86.3118 277.023 86.3118 276.602C86.3118 276.182 86.4624 275.821 86.7635 275.52C87.0646 275.219 87.4254 275.068 87.8459 275.068C88.2663 275.068 88.6271 275.219 88.9283 275.52C89.2294 275.821 89.38 276.182 89.38 276.602C89.38 276.881 89.3089 277.136 89.1669 277.369C89.0305 277.602 88.8459 277.79 88.6129 277.932C88.3857 278.068 88.13 278.136 87.8459 278.136ZM101.205 275.767C100.785 275.767 100.424 275.616 100.123 275.315C99.8217 275.014 99.6712 274.653 99.6712 274.233C99.6712 273.812 99.8217 273.452 100.123 273.151C100.424 272.849 100.785 272.699 101.205 272.699C101.626 272.699 101.987 272.849 102.288 273.151C102.589 273.452 102.739 273.812 102.739 274.233C102.739 274.511 102.668 274.767 102.526 275C102.39 275.233 102.205 275.42 101.972 275.562C101.745 275.699 101.489 275.767 101.205 275.767ZM101.205 266.938C100.785 266.938 100.424 266.787 100.123 266.486C99.8217 266.185 99.6712 265.824 99.6712 265.403C99.6712 264.983 99.8217 264.622 100.123 264.321C100.424 264.02 100.785 263.869 101.205 263.869C101.626 263.869 101.987 264.02 102.288 264.321C102.589 264.622 102.739 264.983 102.739 265.403C102.739 265.682 102.668 265.938 102.526 266.17C102.39 266.403 102.205 266.591 101.972 266.733C101.745 266.869 101.489 266.938 101.205 266.938ZM106.621 278V260.545H117.156V262.42H108.735V268.318H116.61V270.193H108.735V276.125H117.292V278H106.621ZM120.692 282.909V264.909H122.636V266.989H122.874C123.022 266.761 123.227 266.472 123.488 266.119C123.755 265.761 124.136 265.443 124.63 265.165C125.13 264.881 125.806 264.739 126.658 264.739C127.761 264.739 128.732 265.014 129.573 265.565C130.414 266.116 131.07 266.898 131.542 267.909C132.013 268.92 132.249 270.114 132.249 271.489C132.249 272.875 132.013 274.077 131.542 275.094C131.07 276.105 130.417 276.889 129.582 277.446C128.746 277.997 127.783 278.273 126.692 278.273C125.852 278.273 125.178 278.134 124.673 277.855C124.167 277.571 123.778 277.25 123.505 276.892C123.232 276.528 123.022 276.227 122.874 275.989H122.704V282.909H120.692ZM122.67 271.455C122.67 272.443 122.815 273.315 123.104 274.071C123.394 274.821 123.817 275.409 124.374 275.835C124.931 276.256 125.613 276.466 126.42 276.466C127.261 276.466 127.962 276.244 128.525 275.801C129.093 275.352 129.519 274.75 129.803 273.994C130.093 273.233 130.238 272.386 130.238 271.455C130.238 270.534 130.096 269.705 129.812 268.966C129.533 268.222 129.11 267.634 128.542 267.202C127.979 266.764 127.272 266.545 126.42 266.545C125.602 266.545 124.914 266.753 124.357 267.168C123.8 267.577 123.38 268.151 123.096 268.889C122.812 269.622 122.67 270.477 122.67 271.455ZM139.17 278.307C138.34 278.307 137.587 278.151 136.911 277.838C136.235 277.52 135.698 277.062 135.3 276.466C134.903 275.864 134.704 275.136 134.704 274.284C134.704 273.534 134.852 272.926 135.147 272.46C135.442 271.989 135.837 271.619 136.332 271.352C136.826 271.085 137.371 270.886 137.968 270.756C138.57 270.619 139.175 270.511 139.783 270.432C140.579 270.33 141.224 270.253 141.718 270.202C142.218 270.145 142.582 270.051 142.809 269.92C143.042 269.79 143.158 269.562 143.158 269.239V269.17C143.158 268.33 142.928 267.676 142.468 267.21C142.013 266.744 141.323 266.511 140.397 266.511C139.437 266.511 138.684 266.722 138.138 267.142C137.593 267.562 137.21 268.011 136.988 268.489L135.079 267.807C135.42 267.011 135.874 266.392 136.442 265.949C137.016 265.5 137.641 265.187 138.317 265.011C138.999 264.83 139.67 264.739 140.329 264.739C140.749 264.739 141.232 264.79 141.778 264.892C142.329 264.989 142.86 265.19 143.371 265.497C143.888 265.804 144.317 266.267 144.658 266.886C144.999 267.506 145.17 268.335 145.17 269.375V278H143.158V276.227H143.056C142.92 276.511 142.692 276.815 142.374 277.139C142.056 277.463 141.633 277.739 141.104 277.966C140.576 278.193 139.931 278.307 139.17 278.307ZM139.477 276.5C140.272 276.5 140.942 276.344 141.488 276.031C142.039 275.719 142.454 275.315 142.732 274.821C143.016 274.327 143.158 273.807 143.158 273.261V271.42C143.073 271.523 142.886 271.616 142.596 271.702C142.312 271.781 141.982 271.852 141.607 271.915C141.238 271.972 140.877 272.023 140.525 272.068C140.178 272.108 139.897 272.142 139.681 272.17C139.158 272.239 138.67 272.349 138.215 272.503C137.766 272.651 137.403 272.875 137.124 273.176C136.852 273.472 136.715 273.875 136.715 274.386C136.715 275.085 136.974 275.614 137.491 275.972C138.013 276.324 138.675 276.5 139.477 276.5ZM157.091 272.648V264.909H159.102V278H157.091V275.784H156.955C156.648 276.449 156.17 277.014 155.523 277.48C154.875 277.94 154.057 278.17 153.068 278.17C152.25 278.17 151.523 277.991 150.886 277.634C150.25 277.27 149.75 276.724 149.386 275.997C149.023 275.264 148.841 274.341 148.841 273.227V264.909H150.852V273.091C150.852 274.045 151.119 274.807 151.653 275.375C152.193 275.943 152.881 276.227 153.716 276.227C154.216 276.227 154.724 276.099 155.241 275.844C155.764 275.588 156.202 275.196 156.554 274.668C156.912 274.139 157.091 273.466 157.091 272.648ZM168.616 264.909V266.614H161.559V264.909H168.616ZM163.673 278V263.102C163.673 262.352 163.849 261.727 164.201 261.227C164.553 260.727 165.011 260.352 165.573 260.102C166.136 259.852 166.729 259.727 167.354 259.727C167.849 259.727 168.252 259.767 168.565 259.847C168.877 259.926 169.11 260 169.263 260.068L168.684 261.807C168.582 261.773 168.44 261.73 168.258 261.679C168.082 261.628 167.849 261.602 167.559 261.602C166.894 261.602 166.414 261.77 166.119 262.105C165.829 262.44 165.684 262.932 165.684 263.58V278H163.673ZM171.435 278V264.909H173.378V266.886H173.514C173.753 266.239 174.185 265.713 174.81 265.31C175.435 264.906 176.139 264.705 176.923 264.705C177.071 264.705 177.256 264.707 177.477 264.713C177.699 264.719 177.866 264.727 177.98 264.739V266.784C177.912 266.767 177.756 266.741 177.511 266.707C177.273 266.668 177.02 266.648 176.753 266.648C176.116 266.648 175.548 266.781 175.048 267.048C174.554 267.31 174.162 267.673 173.872 268.139C173.588 268.599 173.446 269.125 173.446 269.716V278H171.435ZM188.614 272.648V264.909H190.626V278H188.614V275.784H188.478C188.171 276.449 187.694 277.014 187.046 277.48C186.398 277.94 185.58 278.17 184.592 278.17C183.773 278.17 183.046 277.991 182.41 277.634C181.773 277.27 181.273 276.724 180.91 275.997C180.546 275.264 180.364 274.341 180.364 273.227V264.909H182.376V273.091C182.376 274.045 182.643 274.807 183.177 275.375C183.717 275.943 184.404 276.227 185.239 276.227C185.739 276.227 186.248 276.099 186.765 275.844C187.288 275.588 187.725 275.196 188.077 274.668C188.435 274.139 188.614 273.466 188.614 272.648ZM194.31 278V264.909H196.253V266.886H196.389C196.628 266.239 197.06 265.713 197.685 265.31C198.31 264.906 199.014 264.705 199.798 264.705C199.946 264.705 200.131 264.707 200.352 264.713C200.574 264.719 200.741 264.727 200.855 264.739V266.784C200.787 266.767 200.631 266.741 200.386 266.707C200.148 266.668 199.895 266.648 199.628 266.648C198.991 266.648 198.423 266.781 197.923 267.048C197.429 267.31 197.037 267.673 196.747 268.139C196.463 268.599 196.321 269.125 196.321 269.716V278H194.31ZM208.33 278.273C207.068 278.273 205.98 277.994 205.065 277.438C204.156 276.875 203.455 276.091 202.96 275.085C202.472 274.074 202.227 272.898 202.227 271.557C202.227 270.216 202.472 269.034 202.96 268.011C203.455 266.983 204.142 266.182 205.023 265.608C205.909 265.028 206.943 264.739 208.125 264.739C208.807 264.739 209.48 264.852 210.145 265.08C210.81 265.307 211.415 265.676 211.96 266.188C212.506 266.693 212.94 267.364 213.264 268.199C213.588 269.034 213.75 270.062 213.75 271.284V272.136H203.659V270.398H211.705C211.705 269.659 211.557 269 211.261 268.42C210.972 267.841 210.557 267.384 210.017 267.048C209.483 266.713 208.852 266.545 208.125 266.545C207.324 266.545 206.631 266.744 206.045 267.142C205.466 267.534 205.02 268.045 204.707 268.676C204.395 269.307 204.239 269.983 204.239 270.705V271.864C204.239 272.852 204.409 273.69 204.75 274.378C205.097 275.06 205.577 275.58 206.19 275.938C206.804 276.29 207.517 276.466 208.33 276.466C208.858 276.466 209.335 276.392 209.761 276.244C210.193 276.091 210.565 275.864 210.878 275.562C211.19 275.256 211.432 274.875 211.602 274.42L213.545 274.966C213.341 275.625 212.997 276.205 212.514 276.705C212.031 277.199 211.435 277.585 210.724 277.864C210.014 278.136 209.216 278.273 208.33 278.273Z" fill="#FFD02F"/>
<path d="M331.5 121H326.114V103.545H331.739C333.432 103.545 334.881 103.895 336.085 104.594C337.29 105.287 338.213 106.284 338.855 107.585C339.497 108.881 339.818 110.432 339.818 112.239C339.818 114.057 339.494 115.622 338.847 116.935C338.199 118.241 337.256 119.247 336.017 119.952C334.778 120.651 333.273 121 331.5 121ZM328.227 119.125H331.364C332.807 119.125 334.003 118.847 334.952 118.29C335.901 117.733 336.608 116.94 337.074 115.912C337.54 114.884 337.773 113.659 337.773 112.239C337.773 110.83 337.543 109.616 337.082 108.599C336.622 107.577 335.935 106.793 335.02 106.247C334.105 105.696 332.966 105.42 331.602 105.42H328.227V119.125ZM343.091 121V107.909H345.102V121H343.091ZM344.114 105.727C343.722 105.727 343.384 105.594 343.099 105.327C342.821 105.06 342.682 104.739 342.682 104.364C342.682 103.989 342.821 103.668 343.099 103.401C343.384 103.134 343.722 103 344.114 103C344.506 103 344.841 103.134 345.119 103.401C345.403 103.668 345.545 103.989 345.545 104.364C345.545 104.739 345.403 105.06 345.119 105.327C344.841 105.594 344.506 105.727 344.114 105.727ZM358.059 110.841L356.252 111.352C356.138 111.051 355.971 110.759 355.749 110.474C355.533 110.185 355.238 109.946 354.863 109.759C354.488 109.571 354.008 109.477 353.423 109.477C352.621 109.477 351.954 109.662 351.42 110.031C350.891 110.395 350.627 110.858 350.627 111.42C350.627 111.92 350.809 112.315 351.173 112.605C351.536 112.895 352.104 113.136 352.877 113.33L354.82 113.807C355.991 114.091 356.863 114.526 357.437 115.111C358.011 115.69 358.298 116.437 358.298 117.352C358.298 118.102 358.082 118.773 357.65 119.364C357.224 119.955 356.627 120.42 355.86 120.761C355.093 121.102 354.201 121.273 353.184 121.273C351.849 121.273 350.744 120.983 349.869 120.403C348.994 119.824 348.44 118.977 348.207 117.864L350.116 117.386C350.298 118.091 350.641 118.619 351.147 118.972C351.658 119.324 352.326 119.5 353.15 119.5C354.087 119.5 354.832 119.301 355.383 118.903C355.94 118.5 356.218 118.017 356.218 117.455C356.218 117 356.059 116.619 355.741 116.312C355.423 116 354.934 115.767 354.275 115.614L352.093 115.102C350.894 114.818 350.013 114.378 349.451 113.781C348.894 113.179 348.616 112.426 348.616 111.523C348.616 110.784 348.823 110.131 349.238 109.562C349.658 108.994 350.229 108.548 350.951 108.224C351.678 107.901 352.502 107.739 353.423 107.739C354.718 107.739 355.735 108.023 356.474 108.591C357.218 109.159 357.746 109.909 358.059 110.841ZM361.325 107.909H363.337V121.955C363.337 122.761 363.197 123.46 362.919 124.051C362.646 124.642 362.232 125.099 361.675 125.423C361.124 125.747 360.428 125.909 359.587 125.909C359.518 125.909 359.45 125.909 359.382 125.909C359.314 125.909 359.246 125.909 359.178 125.909V124.034C359.246 124.034 359.308 124.034 359.365 124.034C359.422 124.034 359.484 124.034 359.553 124.034C360.166 124.034 360.615 123.852 360.899 123.489C361.183 123.131 361.325 122.619 361.325 121.955V107.909ZM362.314 105.727C361.922 105.727 361.584 105.594 361.3 105.327C361.021 105.06 360.882 104.739 360.882 104.364C360.882 103.989 361.021 103.668 361.3 103.401C361.584 103.134 361.922 103 362.314 103C362.706 103 363.041 103.134 363.32 103.401C363.604 103.668 363.746 103.989 363.746 104.364C363.746 104.739 363.604 105.06 363.32 105.327C363.041 105.594 362.706 105.727 362.314 105.727ZM368.487 121.136C368.066 121.136 367.705 120.986 367.404 120.685C367.103 120.384 366.952 120.023 366.952 119.602C366.952 119.182 367.103 118.821 367.404 118.52C367.705 118.219 368.066 118.068 368.487 118.068C368.907 118.068 369.268 118.219 369.569 118.52C369.87 118.821 370.021 119.182 370.021 119.602C370.021 119.881 369.95 120.136 369.808 120.369C369.671 120.602 369.487 120.79 369.254 120.932C369.026 121.068 368.771 121.136 368.487 121.136ZM381.846 118.767C381.425 118.767 381.065 118.616 380.763 118.315C380.462 118.014 380.312 117.653 380.312 117.233C380.312 116.812 380.462 116.452 380.763 116.151C381.065 115.849 381.425 115.699 381.846 115.699C382.266 115.699 382.627 115.849 382.928 116.151C383.229 116.452 383.38 116.812 383.38 117.233C383.38 117.511 383.309 117.767 383.167 118C383.031 118.233 382.846 118.42 382.613 118.562C382.386 118.699 382.13 118.767 381.846 118.767ZM381.846 109.938C381.425 109.938 381.065 109.787 380.763 109.486C380.462 109.185 380.312 108.824 380.312 108.403C380.312 107.983 380.462 107.622 380.763 107.321C381.065 107.02 381.425 106.869 381.846 106.869C382.266 106.869 382.627 107.02 382.928 107.321C383.229 107.622 383.38 107.983 383.38 108.403C383.38 108.682 383.309 108.938 383.167 109.17C383.031 109.403 382.846 109.591 382.613 109.733C382.386 109.869 382.13 109.938 381.846 109.938ZM392.648 121H387.262V103.545H392.887C394.58 103.545 396.029 103.895 397.234 104.594C398.438 105.287 399.362 106.284 400.004 107.585C400.646 108.881 400.967 110.432 400.967 112.239C400.967 114.057 400.643 115.622 399.995 116.935C399.347 118.241 398.404 119.247 397.165 119.952C395.927 120.651 394.421 121 392.648 121ZM389.376 119.125H392.512C393.955 119.125 395.151 118.847 396.1 118.29C397.049 117.733 397.756 116.94 398.222 115.912C398.688 114.884 398.921 113.659 398.921 112.239C398.921 110.83 398.691 109.616 398.231 108.599C397.771 107.577 397.083 106.793 396.168 106.247C395.254 105.696 394.114 105.42 392.751 105.42H389.376V119.125ZM404.239 121V107.909H406.251V121H404.239ZM405.262 105.727C404.87 105.727 404.532 105.594 404.248 105.327C403.969 105.06 403.83 104.739 403.83 104.364C403.83 103.989 403.969 103.668 404.248 103.401C404.532 103.134 404.87 103 405.262 103C405.654 103 405.989 103.134 406.268 103.401C406.552 103.668 406.694 103.989 406.694 104.364C406.694 104.739 406.552 105.06 406.268 105.327C405.989 105.594 405.654 105.727 405.262 105.727ZM419.207 110.841L417.401 111.352C417.287 111.051 417.119 110.759 416.898 110.474C416.682 110.185 416.386 109.946 416.011 109.759C415.636 109.571 415.156 109.477 414.571 109.477C413.77 109.477 413.102 109.662 412.568 110.031C412.04 110.395 411.776 110.858 411.776 111.42C411.776 111.92 411.957 112.315 412.321 112.605C412.685 112.895 413.253 113.136 414.026 113.33L415.969 113.807C417.139 114.091 418.011 114.526 418.585 115.111C419.159 115.69 419.446 116.437 419.446 117.352C419.446 118.102 419.23 118.773 418.798 119.364C418.372 119.955 417.776 120.42 417.009 120.761C416.241 121.102 415.349 121.273 414.332 121.273C412.997 121.273 411.892 120.983 411.017 120.403C410.142 119.824 409.588 118.977 409.355 117.864L411.264 117.386C411.446 118.091 411.79 118.619 412.295 118.972C412.807 119.324 413.474 119.5 414.298 119.5C415.236 119.5 415.98 119.301 416.531 118.903C417.088 118.5 417.366 118.017 417.366 117.455C417.366 117 417.207 116.619 416.889 116.312C416.571 116 416.082 115.767 415.423 115.614L413.241 115.102C412.043 114.818 411.162 114.378 410.599 113.781C410.043 113.179 409.764 112.426 409.764 111.523C409.764 110.784 409.972 110.131 410.386 109.562C410.807 108.994 411.378 108.548 412.099 108.224C412.827 107.901 413.651 107.739 414.571 107.739C415.866 107.739 416.884 108.023 417.622 108.591C418.366 109.159 418.895 109.909 419.207 110.841ZM422.474 107.909H424.485V121.955C424.485 122.761 424.346 123.46 424.067 124.051C423.795 124.642 423.38 125.099 422.823 125.423C422.272 125.747 421.576 125.909 420.735 125.909C420.667 125.909 420.599 125.909 420.531 125.909C420.462 125.909 420.394 125.909 420.326 125.909V124.034C420.394 124.034 420.457 124.034 420.513 124.034C420.57 124.034 420.633 124.034 420.701 124.034C421.315 124.034 421.763 123.852 422.048 123.489C422.332 123.131 422.474 122.619 422.474 121.955V107.909ZM423.462 105.727C423.07 105.727 422.732 105.594 422.448 105.327C422.17 105.06 422.031 104.739 422.031 104.364C422.031 103.989 422.17 103.668 422.448 103.401C422.732 103.134 423.07 103 423.462 103C423.854 103 424.19 103.134 424.468 103.401C424.752 103.668 424.894 103.989 424.894 104.364C424.894 104.739 424.752 105.06 424.468 105.327C424.19 105.594 423.854 105.727 423.462 105.727ZM433.487 121.273C432.305 121.273 431.268 120.991 430.376 120.429C429.49 119.866 428.797 119.08 428.297 118.068C427.803 117.057 427.555 115.875 427.555 114.523C427.555 113.159 427.803 111.969 428.297 110.952C428.797 109.935 429.49 109.145 430.376 108.582C431.268 108.02 432.305 107.739 433.487 107.739C434.669 107.739 435.703 108.02 436.589 108.582C437.482 109.145 438.175 109.935 438.669 110.952C439.169 111.969 439.419 113.159 439.419 114.523C439.419 115.875 439.169 117.057 438.669 118.068C438.175 119.08 437.482 119.866 436.589 120.429C435.703 120.991 434.669 121.273 433.487 121.273ZM433.487 119.466C434.385 119.466 435.124 119.236 435.703 118.776C436.283 118.315 436.712 117.71 436.99 116.96C437.268 116.21 437.408 115.398 437.408 114.523C437.408 113.648 437.268 112.832 436.99 112.077C436.712 111.321 436.283 110.71 435.703 110.244C435.124 109.778 434.385 109.545 433.487 109.545C432.589 109.545 431.851 109.778 431.271 110.244C430.692 110.71 430.263 111.321 429.984 112.077C429.706 112.832 429.567 113.648 429.567 114.523C429.567 115.398 429.706 116.21 429.984 116.96C430.263 117.71 430.692 118.315 431.271 118.776C431.851 119.236 432.589 119.466 433.487 119.466ZM442.489 121V107.909H444.501V121H442.489ZM443.512 105.727C443.12 105.727 442.782 105.594 442.498 105.327C442.219 105.06 442.08 104.739 442.08 104.364C442.08 103.989 442.219 103.668 442.498 103.401C442.782 103.134 443.12 103 443.512 103C443.904 103 444.239 103.134 444.518 103.401C444.802 103.668 444.944 103.989 444.944 104.364C444.944 104.739 444.802 105.06 444.518 105.327C444.239 105.594 443.904 105.727 443.512 105.727ZM450.196 113.125V121H448.185V107.909H450.128V109.955H450.298C450.605 109.29 451.071 108.756 451.696 108.352C452.321 107.943 453.128 107.739 454.116 107.739C455.003 107.739 455.778 107.92 456.443 108.284C457.108 108.642 457.625 109.188 457.994 109.92C458.364 110.648 458.548 111.568 458.548 112.682V121H456.537V112.818C456.537 111.79 456.27 110.989 455.736 110.415C455.202 109.835 454.469 109.545 453.537 109.545C452.895 109.545 452.321 109.685 451.815 109.963C451.315 110.241 450.92 110.648 450.631 111.182C450.341 111.716 450.196 112.364 450.196 113.125ZM467.917 107.909V109.614H461.133V107.909H467.917ZM463.11 104.773H465.121V117.25C465.121 117.818 465.204 118.244 465.369 118.528C465.539 118.807 465.755 118.994 466.016 119.091C466.283 119.182 466.565 119.227 466.86 119.227C467.082 119.227 467.263 119.216 467.406 119.193C467.548 119.165 467.661 119.142 467.746 119.125L468.156 120.932C468.019 120.983 467.829 121.034 467.585 121.085C467.34 121.142 467.031 121.17 466.656 121.17C466.087 121.17 465.531 121.048 464.985 120.804C464.445 120.56 463.996 120.188 463.638 119.688C463.286 119.188 463.11 118.557 463.11 117.795V104.773ZM476.29 121.273C475.029 121.273 473.941 120.994 473.026 120.438C472.117 119.875 471.415 119.091 470.921 118.085C470.433 117.074 470.188 115.898 470.188 114.557C470.188 113.216 470.433 112.034 470.921 111.011C471.415 109.983 472.103 109.182 472.984 108.608C473.87 108.028 474.904 107.739 476.086 107.739C476.768 107.739 477.441 107.852 478.106 108.08C478.771 108.307 479.376 108.676 479.921 109.188C480.467 109.693 480.901 110.364 481.225 111.199C481.549 112.034 481.711 113.062 481.711 114.284V115.136H471.62V113.398H479.665C479.665 112.659 479.518 112 479.222 111.42C478.933 110.841 478.518 110.384 477.978 110.048C477.444 109.713 476.813 109.545 476.086 109.545C475.285 109.545 474.592 109.744 474.006 110.142C473.427 110.534 472.981 111.045 472.668 111.676C472.356 112.307 472.2 112.983 472.2 113.705V114.864C472.2 115.852 472.37 116.69 472.711 117.378C473.058 118.06 473.538 118.58 474.151 118.938C474.765 119.29 475.478 119.466 476.29 119.466C476.819 119.466 477.296 119.392 477.722 119.244C478.154 119.091 478.526 118.864 478.839 118.562C479.151 118.256 479.393 117.875 479.563 117.42L481.506 117.966C481.302 118.625 480.958 119.205 480.475 119.705C479.992 120.199 479.396 120.585 478.685 120.864C477.975 121.136 477.177 121.273 476.29 121.273ZM484.771 121V107.909H486.714V109.955H486.884C487.157 109.256 487.597 108.713 488.205 108.327C488.813 107.935 489.543 107.739 490.396 107.739C491.259 107.739 491.978 107.935 492.552 108.327C493.131 108.713 493.583 109.256 493.907 109.955H494.043C494.379 109.278 494.881 108.741 495.552 108.344C496.222 107.94 497.026 107.739 497.964 107.739C499.134 107.739 500.092 108.105 500.836 108.838C501.58 109.565 501.952 110.699 501.952 112.239V121H499.941V112.239C499.941 111.273 499.677 110.582 499.148 110.168C498.62 109.753 497.998 109.545 497.282 109.545C496.362 109.545 495.648 109.824 495.143 110.381C494.637 110.932 494.384 111.631 494.384 112.477V121H492.339V112.034C492.339 111.29 492.097 110.69 491.614 110.236C491.131 109.776 490.509 109.545 489.748 109.545C489.225 109.545 488.737 109.685 488.282 109.963C487.833 110.241 487.469 110.628 487.191 111.122C486.918 111.611 486.782 112.176 486.782 112.818V121H484.771ZM511.119 121.273C509.857 121.273 508.769 120.994 507.854 120.438C506.945 119.875 506.244 119.091 505.749 118.085C505.261 117.074 505.016 115.898 505.016 114.557C505.016 113.216 505.261 112.034 505.749 111.011C506.244 109.983 506.931 109.182 507.812 108.608C508.698 108.028 509.732 107.739 510.914 107.739C511.596 107.739 512.269 107.852 512.934 108.08C513.599 108.307 514.204 108.676 514.749 109.188C515.295 109.693 515.729 110.364 516.053 111.199C516.377 112.034 516.539 113.062 516.539 114.284V115.136H506.448V113.398H514.494C514.494 112.659 514.346 112 514.05 111.42C513.761 110.841 513.346 110.384 512.806 110.048C512.272 109.713 511.641 109.545 510.914 109.545C510.113 109.545 509.42 109.744 508.835 110.142C508.255 110.534 507.809 111.045 507.496 111.676C507.184 112.307 507.028 112.983 507.028 113.705V114.864C507.028 115.852 507.198 116.69 507.539 117.378C507.886 118.06 508.366 118.58 508.979 118.938C509.593 119.29 510.306 119.466 511.119 119.466C511.647 119.466 512.124 119.392 512.55 119.244C512.982 119.091 513.354 118.864 513.667 118.562C513.979 118.256 514.221 117.875 514.391 117.42L516.335 117.966C516.13 118.625 515.786 119.205 515.303 119.705C514.82 120.199 514.224 120.585 513.513 120.864C512.803 121.136 512.005 121.273 511.119 121.273ZM521.61 113.125V121H519.599V107.909H521.542V109.955H521.712C522.019 109.29 522.485 108.756 523.11 108.352C523.735 107.943 524.542 107.739 525.531 107.739C526.417 107.739 527.192 107.92 527.857 108.284C528.522 108.642 529.039 109.188 529.408 109.92C529.778 110.648 529.962 111.568 529.962 112.682V121H527.951V112.818C527.951 111.79 527.684 110.989 527.15 110.415C526.616 109.835 525.883 109.545 524.951 109.545C524.309 109.545 523.735 109.685 523.229 109.963C522.729 110.241 522.335 110.648 522.045 111.182C521.755 111.716 521.61 112.364 521.61 113.125ZM539.331 107.909V109.614H532.547V107.909H539.331ZM534.524 104.773H536.536V117.25C536.536 117.818 536.618 118.244 536.783 118.528C536.953 118.807 537.169 118.994 537.43 119.091C537.697 119.182 537.979 119.227 538.274 119.227C538.496 119.227 538.678 119.216 538.82 119.193C538.962 119.165 539.075 119.142 539.161 119.125L539.57 120.932C539.433 120.983 539.243 121.034 538.999 121.085C538.754 121.142 538.445 121.17 538.07 121.17C537.501 121.17 536.945 121.048 536.399 120.804C535.859 120.56 535.411 120.188 535.053 119.688C534.7 119.188 534.524 118.557 534.524 117.795V104.773Z" fill="#050038"/>
<path d="M65.1591 548.42V546.545H78.25V548.42H72.7614V564H70.6477V548.42H65.1591ZM83.3104 564.307C82.4808 564.307 81.728 564.151 81.0518 563.838C80.3757 563.52 79.8388 563.062 79.4411 562.466C79.0433 561.864 78.8445 561.136 78.8445 560.284C78.8445 559.534 78.9922 558.926 79.2876 558.46C79.5831 557.989 79.978 557.619 80.4723 557.352C80.9666 557.085 81.5121 556.886 82.1087 556.756C82.7109 556.619 83.3161 556.511 83.924 556.432C84.7195 556.33 85.3643 556.253 85.8587 556.202C86.3587 556.145 86.7223 556.051 86.9496 555.92C87.1825 555.79 87.299 555.562 87.299 555.239V555.17C87.299 554.33 87.0689 553.676 86.6087 553.21C86.1541 552.744 85.4638 552.511 84.5376 552.511C83.5774 552.511 82.8246 552.722 82.2791 553.142C81.7337 553.562 81.3501 554.011 81.1286 554.489L79.2195 553.807C79.5604 553.011 80.0149 552.392 80.5831 551.949C81.157 551.5 81.782 551.187 82.4581 551.011C83.1399 550.83 83.8104 550.739 84.4695 550.739C84.8899 550.739 85.3729 550.79 85.9183 550.892C86.4695 550.989 87.0007 551.19 87.5121 551.497C88.0291 551.804 88.4581 552.267 88.799 552.886C89.1399 553.506 89.3104 554.335 89.3104 555.375V564H87.299V562.227H87.1967C87.0604 562.511 86.8331 562.815 86.5149 563.139C86.1967 563.463 85.7734 563.739 85.245 563.966C84.7166 564.193 84.0717 564.307 83.3104 564.307ZM83.6172 562.5C84.4126 562.5 85.0831 562.344 85.6286 562.031C86.1797 561.719 86.5945 561.315 86.8729 560.821C87.157 560.327 87.299 559.807 87.299 559.261V557.42C87.2138 557.523 87.0263 557.616 86.7365 557.702C86.4524 557.781 86.1229 557.852 85.7479 557.915C85.3786 557.972 85.0178 558.023 84.6655 558.068C84.3189 558.108 84.0376 558.142 83.8217 558.17C83.299 558.239 82.8104 558.349 82.3558 558.503C81.907 558.651 81.5433 558.875 81.2649 559.176C80.9922 559.472 80.8558 559.875 80.8558 560.386C80.8558 561.085 81.1143 561.614 81.6314 561.972C82.1541 562.324 82.8161 562.5 83.6172 562.5ZM102.254 553.841L100.447 554.352C100.334 554.051 100.166 553.759 99.9446 553.474C99.7287 553.185 99.4332 552.946 99.0582 552.759C98.6832 552.571 98.2031 552.477 97.6179 552.477C96.8168 552.477 96.1491 552.662 95.6151 553.031C95.0866 553.395 94.8224 553.858 94.8224 554.42C94.8224 554.92 95.0043 555.315 95.3679 555.605C95.7315 555.895 96.2997 556.136 97.0724 556.33L99.0156 556.807C100.186 557.091 101.058 557.526 101.632 558.111C102.206 558.69 102.493 559.437 102.493 560.352C102.493 561.102 102.277 561.773 101.845 562.364C101.419 562.955 100.822 563.42 100.055 563.761C99.2884 564.102 98.3963 564.273 97.3793 564.273C96.044 564.273 94.9389 563.983 94.0639 563.403C93.1889 562.824 92.6349 561.977 92.402 560.864L94.3111 560.386C94.4929 561.091 94.8366 561.619 95.3423 561.972C95.8537 562.324 96.5213 562.5 97.3452 562.5C98.2827 562.5 99.027 562.301 99.5781 561.903C100.135 561.5 100.413 561.017 100.413 560.455C100.413 560 100.254 559.619 99.9361 559.312C99.6179 559 99.1293 558.767 98.4702 558.614L96.2884 558.102C95.0895 557.818 94.2088 557.378 93.6463 556.781C93.0895 556.179 92.8111 555.426 92.8111 554.523C92.8111 553.784 93.0185 553.131 93.4332 552.562C93.8537 551.994 94.4247 551.548 95.1463 551.224C95.8736 550.901 96.6974 550.739 97.6179 550.739C98.9134 550.739 99.9304 551.023 100.669 551.591C101.413 552.159 101.942 552.909 102.254 553.841ZM106.987 564.136C106.566 564.136 106.205 563.986 105.904 563.685C105.603 563.384 105.452 563.023 105.452 562.602C105.452 562.182 105.603 561.821 105.904 561.52C106.205 561.219 106.566 561.068 106.987 561.068C107.407 561.068 107.768 561.219 108.069 561.52C108.37 561.821 108.521 562.182 108.521 562.602C108.521 562.881 108.45 563.136 108.308 563.369C108.171 563.602 107.987 563.79 107.754 563.932C107.526 564.068 107.271 564.136 106.987 564.136ZM120.346 561.767C119.925 561.767 119.565 561.616 119.263 561.315C118.962 561.014 118.812 560.653 118.812 560.233C118.812 559.812 118.962 559.452 119.263 559.151C119.565 558.849 119.925 558.699 120.346 558.699C120.766 558.699 121.127 558.849 121.428 559.151C121.729 559.452 121.88 559.812 121.88 560.233C121.88 560.511 121.809 560.767 121.667 561C121.531 561.233 121.346 561.42 121.113 561.562C120.886 561.699 120.63 561.767 120.346 561.767ZM120.346 552.938C119.925 552.938 119.565 552.787 119.263 552.486C118.962 552.185 118.812 551.824 118.812 551.403C118.812 550.983 118.962 550.622 119.263 550.321C119.565 550.02 119.925 549.869 120.346 549.869C120.766 549.869 121.127 550.02 121.428 550.321C121.729 550.622 121.88 550.983 121.88 551.403C121.88 551.682 121.809 551.938 121.667 552.17C121.531 552.403 121.346 552.591 121.113 552.733C120.886 552.869 120.63 552.938 120.346 552.938ZM131.558 548.42V546.545H144.648V548.42H139.16V564H137.046V548.42H131.558ZM149.709 564.307C148.879 564.307 148.126 564.151 147.45 563.838C146.774 563.52 146.237 563.062 145.839 562.466C145.442 561.864 145.243 561.136 145.243 560.284C145.243 559.534 145.391 558.926 145.686 558.46C145.982 557.989 146.376 557.619 146.871 557.352C147.365 557.085 147.911 556.886 148.507 556.756C149.109 556.619 149.714 556.511 150.322 556.432C151.118 556.33 151.763 556.253 152.257 556.202C152.757 556.145 153.121 556.051 153.348 555.92C153.581 555.79 153.697 555.562 153.697 555.239V555.17C153.697 554.33 153.467 553.676 153.007 553.21C152.553 552.744 151.862 552.511 150.936 552.511C149.976 552.511 149.223 552.722 148.678 553.142C148.132 553.562 147.749 554.011 147.527 554.489L145.618 553.807C145.959 553.011 146.413 552.392 146.982 551.949C147.555 551.5 148.18 551.187 148.857 551.011C149.538 550.83 150.209 550.739 150.868 550.739C151.288 550.739 151.771 550.79 152.317 550.892C152.868 550.989 153.399 551.19 153.911 551.497C154.428 551.804 154.857 552.267 155.197 552.886C155.538 553.506 155.709 554.335 155.709 555.375V564H153.697V562.227H153.595C153.459 562.511 153.232 562.815 152.913 563.139C152.595 563.463 152.172 563.739 151.643 563.966C151.115 564.193 150.47 564.307 149.709 564.307ZM150.016 562.5C150.811 562.5 151.482 562.344 152.027 562.031C152.578 561.719 152.993 561.315 153.271 560.821C153.555 560.327 153.697 559.807 153.697 559.261V557.42C153.612 557.523 153.425 557.616 153.135 557.702C152.851 557.781 152.521 557.852 152.146 557.915C151.777 557.972 151.416 558.023 151.064 558.068C150.717 558.108 150.436 558.142 150.22 558.17C149.697 558.239 149.209 558.349 148.754 558.503C148.305 558.651 147.942 558.875 147.663 559.176C147.391 559.472 147.254 559.875 147.254 560.386C147.254 561.085 147.513 561.614 148.03 561.972C148.553 562.324 149.214 562.5 150.016 562.5ZM168.653 553.841L166.846 554.352C166.732 554.051 166.565 553.759 166.343 553.474C166.127 553.185 165.832 552.946 165.457 552.759C165.082 552.571 164.602 552.477 164.016 552.477C163.215 552.477 162.548 552.662 162.013 553.031C161.485 553.395 161.221 553.858 161.221 554.42C161.221 554.92 161.403 555.315 161.766 555.605C162.13 555.895 162.698 556.136 163.471 556.33L165.414 556.807C166.585 557.091 167.457 557.526 168.031 558.111C168.604 558.69 168.891 559.437 168.891 560.352C168.891 561.102 168.675 561.773 168.244 562.364C167.817 562.955 167.221 563.42 166.454 563.761C165.687 564.102 164.795 564.273 163.778 564.273C162.442 564.273 161.337 563.983 160.462 563.403C159.587 562.824 159.033 561.977 158.8 560.864L160.71 560.386C160.891 561.091 161.235 561.619 161.741 561.972C162.252 562.324 162.92 562.5 163.744 562.5C164.681 562.5 165.425 562.301 165.977 561.903C166.533 561.5 166.812 561.017 166.812 560.455C166.812 560 166.653 559.619 166.335 559.312C166.016 559 165.528 558.767 164.869 558.614L162.687 558.102C161.488 557.818 160.607 557.378 160.045 556.781C159.488 556.179 159.21 555.426 159.21 554.523C159.21 553.784 159.417 553.131 159.832 552.562C160.252 551.994 160.823 551.548 161.545 551.224C162.272 550.901 163.096 550.739 164.016 550.739C165.312 550.739 166.329 551.023 167.067 551.591C167.812 552.159 168.34 552.909 168.653 553.841ZM181.192 553.841L179.385 554.352C179.271 554.051 179.104 553.759 178.882 553.474C178.666 553.185 178.371 552.946 177.996 552.759C177.621 552.571 177.141 552.477 176.555 552.477C175.754 552.477 175.087 552.662 174.553 553.031C174.024 553.395 173.76 553.858 173.76 554.42C173.76 554.92 173.942 555.315 174.305 555.605C174.669 555.895 175.237 556.136 176.01 556.33L177.953 556.807C179.124 557.091 179.996 557.526 180.57 558.111C181.143 558.69 181.43 559.437 181.43 560.352C181.43 561.102 181.214 561.773 180.783 562.364C180.357 562.955 179.76 563.42 178.993 563.761C178.226 564.102 177.334 564.273 176.317 564.273C174.982 564.273 173.876 563.983 173.001 563.403C172.126 562.824 171.572 561.977 171.339 560.864L173.249 560.386C173.43 561.091 173.774 561.619 174.28 561.972C174.791 562.324 175.459 562.5 176.283 562.5C177.22 562.5 177.964 562.301 178.516 561.903C179.072 561.5 179.351 561.017 179.351 560.455C179.351 560 179.192 559.619 178.874 559.312C178.555 559 178.067 558.767 177.408 558.614L175.226 558.102C174.027 557.818 173.146 557.378 172.584 556.781C172.027 556.179 171.749 555.426 171.749 554.523C171.749 553.784 171.956 553.131 172.371 552.562C172.791 551.994 173.362 551.548 174.084 551.224C174.811 550.901 175.635 550.739 176.555 550.739C177.851 550.739 178.868 551.023 179.607 551.591C180.351 552.159 180.879 552.909 181.192 553.841ZM189.947 564.273C188.685 564.273 187.597 563.994 186.683 563.438C185.773 562.875 185.072 562.091 184.577 561.085C184.089 560.074 183.844 558.898 183.844 557.557C183.844 556.216 184.089 555.034 184.577 554.011C185.072 552.983 185.759 552.182 186.64 551.608C187.526 551.028 188.56 550.739 189.742 550.739C190.424 550.739 191.097 550.852 191.762 551.08C192.427 551.307 193.032 551.676 193.577 552.188C194.123 552.693 194.558 553.364 194.881 554.199C195.205 555.034 195.367 556.062 195.367 557.284V558.136H185.276V556.398H193.322C193.322 555.659 193.174 555 192.879 554.42C192.589 553.841 192.174 553.384 191.634 553.048C191.1 552.713 190.469 552.545 189.742 552.545C188.941 552.545 188.248 552.744 187.663 553.142C187.083 553.534 186.637 554.045 186.325 554.676C186.012 555.307 185.856 555.983 185.856 556.705V557.864C185.856 558.852 186.026 559.69 186.367 560.378C186.714 561.06 187.194 561.58 187.808 561.938C188.421 562.29 189.134 562.466 189.947 562.466C190.475 562.466 190.952 562.392 191.379 562.244C191.81 562.091 192.183 561.864 192.495 561.562C192.808 561.256 193.049 560.875 193.219 560.42L195.163 560.966C194.958 561.625 194.614 562.205 194.131 562.705C193.648 563.199 193.052 563.585 192.342 563.864C191.631 564.136 190.833 564.273 189.947 564.273ZM198.427 564V550.909H200.37V552.955H200.54C200.813 552.256 201.254 551.713 201.862 551.327C202.469 550.935 203.2 550.739 204.052 550.739C204.915 550.739 205.634 550.935 206.208 551.327C206.788 551.713 207.239 552.256 207.563 552.955H207.7C208.035 552.278 208.538 551.741 209.208 551.344C209.879 550.94 210.683 550.739 211.62 550.739C212.79 550.739 213.748 551.105 214.492 551.838C215.237 552.565 215.609 553.699 215.609 555.239V564H213.597V555.239C213.597 554.273 213.333 553.582 212.805 553.168C212.276 552.753 211.654 552.545 210.938 552.545C210.018 552.545 209.305 552.824 208.799 553.381C208.293 553.932 208.04 554.631 208.04 555.477V564H205.995V555.034C205.995 554.29 205.754 553.69 205.271 553.236C204.788 552.776 204.165 552.545 203.404 552.545C202.881 552.545 202.393 552.685 201.938 552.963C201.489 553.241 201.126 553.628 200.847 554.122C200.575 554.611 200.438 555.176 200.438 555.818V564H198.427ZM224.775 564.273C223.513 564.273 222.425 563.994 221.511 563.438C220.602 562.875 219.9 562.091 219.406 561.085C218.917 560.074 218.673 558.898 218.673 557.557C218.673 556.216 218.917 555.034 219.406 554.011C219.9 552.983 220.587 552.182 221.468 551.608C222.354 551.028 223.388 550.739 224.57 550.739C225.252 550.739 225.925 550.852 226.59 551.08C227.255 551.307 227.86 551.676 228.406 552.188C228.951 552.693 229.386 553.364 229.71 554.199C230.033 555.034 230.195 556.062 230.195 557.284V558.136H220.104V556.398H228.15C228.15 555.659 228.002 555 227.707 554.42C227.417 553.841 227.002 553.384 226.462 553.048C225.928 552.713 225.298 552.545 224.57 552.545C223.769 552.545 223.076 552.744 222.491 553.142C221.911 553.534 221.465 554.045 221.153 554.676C220.84 555.307 220.684 555.983 220.684 556.705V557.864C220.684 558.852 220.854 559.69 221.195 560.378C221.542 561.06 222.022 561.58 222.636 561.938C223.249 562.29 223.962 562.466 224.775 562.466C225.303 562.466 225.781 562.392 226.207 562.244C226.638 562.091 227.011 561.864 227.323 561.562C227.636 561.256 227.877 560.875 228.048 560.42L229.991 560.966C229.786 561.625 229.442 562.205 228.96 562.705C228.477 563.199 227.88 563.585 227.17 563.864C226.46 564.136 225.661 564.273 224.775 564.273ZM235.266 556.125V564H233.255V550.909H235.198V552.955H235.369C235.675 552.29 236.141 551.756 236.766 551.352C237.391 550.943 238.198 550.739 239.187 550.739C240.073 550.739 240.849 550.92 241.513 551.284C242.178 551.642 242.695 552.188 243.065 552.92C243.434 553.648 243.619 554.568 243.619 555.682V564H241.607V555.818C241.607 554.79 241.34 553.989 240.806 553.415C240.272 552.835 239.539 552.545 238.607 552.545C237.965 552.545 237.391 552.685 236.886 552.963C236.386 553.241 235.991 553.648 235.701 554.182C235.411 554.716 235.266 555.364 235.266 556.125ZM252.987 550.909V552.614H246.203V550.909H252.987ZM248.18 547.773H250.192V560.25C250.192 560.818 250.274 561.244 250.439 561.528C250.609 561.807 250.825 561.994 251.087 562.091C251.354 562.182 251.635 562.227 251.93 562.227C252.152 562.227 252.334 562.216 252.476 562.193C252.618 562.165 252.732 562.142 252.817 562.125L253.226 563.932C253.089 563.983 252.899 564.034 252.655 564.085C252.411 564.142 252.101 564.17 251.726 564.17C251.158 564.17 250.601 564.048 250.055 563.804C249.516 563.56 249.067 563.188 248.709 562.688C248.357 562.188 248.18 561.557 248.18 560.795V547.773Z" fill="#4262FF"/>
<path d="M487.83 462H485.614L492.023 444.545H494.205L500.614 462H498.398L493.182 447.307H493.045L487.83 462ZM488.648 455.182H497.58V457.057H488.648V455.182ZM508.889 448.909V450.614H501.832V448.909H508.889ZM503.946 462V447.102C503.946 446.352 504.122 445.727 504.474 445.227C504.827 444.727 505.284 444.352 505.847 444.102C506.409 443.852 507.003 443.727 507.628 443.727C508.122 443.727 508.526 443.767 508.838 443.847C509.151 443.926 509.384 444 509.537 444.068L508.957 445.807C508.855 445.773 508.713 445.73 508.531 445.679C508.355 445.628 508.122 445.602 507.832 445.602C507.168 445.602 506.688 445.77 506.392 446.105C506.102 446.44 505.957 446.932 505.957 447.58V462H503.946ZM517.538 448.909V450.614H510.481V448.909H517.538ZM512.594 462V447.102C512.594 446.352 512.771 445.727 513.123 445.227C513.475 444.727 513.933 444.352 514.495 444.102C515.058 443.852 515.651 443.727 516.276 443.727C516.771 443.727 517.174 443.767 517.487 443.847C517.799 443.926 518.032 444 518.185 444.068L517.606 445.807C517.504 445.773 517.362 445.73 517.18 445.679C517.004 445.628 516.771 445.602 516.481 445.602C515.816 445.602 515.336 445.77 515.04 446.105C514.751 446.44 514.606 446.932 514.606 447.58V462H512.594ZM520.463 462.136C520.043 462.136 519.682 461.986 519.381 461.685C519.08 461.384 518.929 461.023 518.929 460.602C518.929 460.182 519.08 459.821 519.381 459.52C519.682 459.219 520.043 459.068 520.463 459.068C520.884 459.068 521.244 459.219 521.545 459.52C521.847 459.821 521.997 460.182 521.997 460.602C521.997 460.881 521.926 461.136 521.784 461.369C521.648 461.602 521.463 461.79 521.23 461.932C521.003 462.068 520.747 462.136 520.463 462.136ZM533.822 459.767C533.402 459.767 533.041 459.616 532.74 459.315C532.439 459.014 532.288 458.653 532.288 458.233C532.288 457.812 532.439 457.452 532.74 457.151C533.041 456.849 533.402 456.699 533.822 456.699C534.243 456.699 534.604 456.849 534.905 457.151C535.206 457.452 535.357 457.812 535.357 458.233C535.357 458.511 535.286 458.767 535.143 459C535.007 459.233 534.822 459.42 534.589 459.562C534.362 459.699 534.107 459.767 533.822 459.767ZM533.822 450.938C533.402 450.938 533.041 450.787 532.74 450.486C532.439 450.185 532.288 449.824 532.288 449.403C532.288 448.983 532.439 448.622 532.74 448.321C533.041 448.02 533.402 447.869 533.822 447.869C534.243 447.869 534.604 448.02 534.905 448.321C535.206 448.622 535.357 448.983 535.357 449.403C535.357 449.682 535.286 449.938 535.143 450.17C535.007 450.403 534.822 450.591 534.589 450.733C534.362 450.869 534.107 450.938 533.822 450.938ZM546.705 462H544.489L550.898 444.545H553.08L559.489 462H557.273L552.057 447.307H551.92L546.705 462ZM547.523 455.182H556.455V457.057H547.523V455.182ZM567.764 448.909V450.614H560.707V448.909H567.764ZM562.821 462V447.102C562.821 446.352 562.997 445.727 563.349 445.227C563.702 444.727 564.159 444.352 564.722 444.102C565.284 443.852 565.878 443.727 566.503 443.727C566.997 443.727 567.401 443.767 567.713 443.847C568.026 443.926 568.259 444 568.412 444.068L567.832 445.807C567.73 445.773 567.588 445.73 567.406 445.679C567.23 445.628 566.997 445.602 566.707 445.602C566.043 445.602 565.563 445.77 565.267 446.105C564.977 446.44 564.832 446.932 564.832 447.58V462H562.821ZM576.413 448.909V450.614H569.356V448.909H576.413ZM571.469 462V447.102C571.469 446.352 571.646 445.727 571.998 445.227C572.35 444.727 572.808 444.352 573.37 444.102C573.933 443.852 574.526 443.727 575.151 443.727C575.646 443.727 576.049 443.767 576.362 443.847C576.674 443.926 576.907 444 577.06 444.068L576.481 445.807C576.379 445.773 576.237 445.73 576.055 445.679C575.879 445.628 575.646 445.602 575.356 445.602C574.691 445.602 574.211 445.77 573.915 446.105C573.626 446.44 573.481 446.932 573.481 447.58V462H571.469ZM582.709 462.307C581.879 462.307 581.126 462.151 580.45 461.838C579.774 461.52 579.237 461.062 578.839 460.466C578.442 459.864 578.243 459.136 578.243 458.284C578.243 457.534 578.391 456.926 578.686 456.46C578.982 455.989 579.376 455.619 579.871 455.352C580.365 455.085 580.911 454.886 581.507 454.756C582.109 454.619 582.714 454.511 583.322 454.432C584.118 454.33 584.763 454.253 585.257 454.202C585.757 454.145 586.121 454.051 586.348 453.92C586.581 453.79 586.697 453.562 586.697 453.239V453.17C586.697 452.33 586.467 451.676 586.007 451.21C585.553 450.744 584.862 450.511 583.936 450.511C582.976 450.511 582.223 450.722 581.678 451.142C581.132 451.562 580.749 452.011 580.527 452.489L578.618 451.807C578.959 451.011 579.413 450.392 579.982 449.949C580.555 449.5 581.18 449.187 581.857 449.011C582.538 448.83 583.209 448.739 583.868 448.739C584.288 448.739 584.771 448.79 585.317 448.892C585.868 448.989 586.399 449.19 586.911 449.497C587.428 449.804 587.857 450.267 588.197 450.886C588.538 451.506 588.709 452.335 588.709 453.375V462H586.697V460.227H586.595C586.459 460.511 586.232 460.815 585.913 461.139C585.595 461.463 585.172 461.739 584.643 461.966C584.115 462.193 583.47 462.307 582.709 462.307ZM583.016 460.5C583.811 460.5 584.482 460.344 585.027 460.031C585.578 459.719 585.993 459.315 586.271 458.821C586.555 458.327 586.697 457.807 586.697 457.261V455.42C586.612 455.523 586.425 455.616 586.135 455.702C585.851 455.781 585.521 455.852 585.146 455.915C584.777 455.972 584.416 456.023 584.064 456.068C583.717 456.108 583.436 456.142 583.22 456.17C582.697 456.239 582.209 456.349 581.754 456.503C581.305 456.651 580.942 456.875 580.663 457.176C580.391 457.472 580.254 457.875 580.254 458.386C580.254 459.085 580.513 459.614 581.03 459.972C581.553 460.324 582.214 460.5 583.016 460.5ZM592.38 462V448.909H594.391V462H592.38ZM593.403 446.727C593.011 446.727 592.673 446.594 592.388 446.327C592.11 446.06 591.971 445.739 591.971 445.364C591.971 444.989 592.11 444.668 592.388 444.401C592.673 444.134 593.011 444 593.403 444C593.795 444 594.13 444.134 594.408 444.401C594.692 444.668 594.835 444.989 594.835 445.364C594.835 445.739 594.692 446.06 594.408 446.327C594.13 446.594 593.795 446.727 593.403 446.727ZM607.348 451.841L605.541 452.352C605.428 452.051 605.26 451.759 605.038 451.474C604.822 451.185 604.527 450.946 604.152 450.759C603.777 450.571 603.297 450.477 602.712 450.477C601.911 450.477 601.243 450.662 600.709 451.031C600.18 451.395 599.916 451.858 599.916 452.42C599.916 452.92 600.098 453.315 600.462 453.605C600.825 453.895 601.393 454.136 602.166 454.33L604.109 454.807C605.28 455.091 606.152 455.526 606.726 456.111C607.3 456.69 607.587 457.437 607.587 458.352C607.587 459.102 607.371 459.773 606.939 460.364C606.513 460.955 605.916 461.42 605.149 461.761C604.382 462.102 603.49 462.273 602.473 462.273C601.138 462.273 600.033 461.983 599.158 461.403C598.283 460.824 597.729 459.977 597.496 458.864L599.405 458.386C599.587 459.091 599.93 459.619 600.436 459.972C600.947 460.324 601.615 460.5 602.439 460.5C603.376 460.5 604.121 460.301 604.672 459.903C605.229 459.5 605.507 459.017 605.507 458.455C605.507 458 605.348 457.619 605.03 457.312C604.712 457 604.223 456.767 603.564 456.614L601.382 456.102C600.183 455.818 599.303 455.378 598.74 454.781C598.183 454.179 597.905 453.426 597.905 452.523C597.905 451.784 598.112 451.131 598.527 450.562C598.947 449.994 599.518 449.548 600.24 449.224C600.967 448.901 601.791 448.739 602.712 448.739C604.007 448.739 605.024 449.023 605.763 449.591C606.507 450.159 607.036 450.909 607.348 451.841ZM619.887 451.841L618.08 452.352C617.967 452.051 617.799 451.759 617.577 451.474C617.362 451.185 617.066 450.946 616.691 450.759C616.316 450.571 615.836 450.477 615.251 450.477C614.45 450.477 613.782 450.662 613.248 451.031C612.719 451.395 612.455 451.858 612.455 452.42C612.455 452.92 612.637 453.315 613.001 453.605C613.364 453.895 613.933 454.136 614.705 454.33L616.648 454.807C617.819 455.091 618.691 455.526 619.265 456.111C619.839 456.69 620.126 457.437 620.126 458.352C620.126 459.102 619.91 459.773 619.478 460.364C619.052 460.955 618.455 461.42 617.688 461.761C616.921 462.102 616.029 462.273 615.012 462.273C613.677 462.273 612.572 461.983 611.697 461.403C610.822 460.824 610.268 459.977 610.035 458.864L611.944 458.386C612.126 459.091 612.469 459.619 612.975 459.972C613.487 460.324 614.154 460.5 614.978 460.5C615.915 460.5 616.66 460.301 617.211 459.903C617.768 459.5 618.046 459.017 618.046 458.455C618.046 458 617.887 457.619 617.569 457.312C617.251 457 616.762 456.767 616.103 456.614L613.921 456.102C612.722 455.818 611.842 455.378 611.279 454.781C610.722 454.179 610.444 453.426 610.444 452.523C610.444 451.784 610.651 451.131 611.066 450.562C611.487 449.994 612.058 449.548 612.779 449.224C613.506 448.901 614.33 448.739 615.251 448.739C616.546 448.739 617.563 449.023 618.302 449.591C619.046 450.159 619.575 450.909 619.887 451.841ZM628.642 462.273C627.381 462.273 626.293 461.994 625.378 461.438C624.469 460.875 623.767 460.091 623.273 459.085C622.784 458.074 622.54 456.898 622.54 455.557C622.54 454.216 622.784 453.034 623.273 452.011C623.767 450.983 624.455 450.182 625.335 449.608C626.222 449.028 627.256 448.739 628.438 448.739C629.119 448.739 629.793 448.852 630.457 449.08C631.122 449.307 631.727 449.676 632.273 450.188C632.818 450.693 633.253 451.364 633.577 452.199C633.901 453.034 634.062 454.062 634.062 455.284V456.136H623.972V454.398H632.017C632.017 453.659 631.869 453 631.574 452.42C631.284 451.841 630.869 451.384 630.33 451.048C629.795 450.713 629.165 450.545 628.438 450.545C627.636 450.545 626.943 450.744 626.358 451.142C625.778 451.534 625.332 452.045 625.02 452.676C624.707 453.307 624.551 453.983 624.551 454.705V455.864C624.551 456.852 624.722 457.69 625.062 458.378C625.409 459.06 625.889 459.58 626.503 459.938C627.116 460.29 627.83 460.466 628.642 460.466C629.17 460.466 629.648 460.392 630.074 460.244C630.506 460.091 630.878 459.864 631.19 459.562C631.503 459.256 631.744 458.875 631.915 458.42L633.858 458.966C633.653 459.625 633.31 460.205 632.827 460.705C632.344 461.199 631.747 461.585 631.037 461.864C630.327 462.136 629.528 462.273 628.642 462.273ZM637.122 462V448.909H639.065V450.955H639.236C639.509 450.256 639.949 449.713 640.557 449.327C641.165 448.935 641.895 448.739 642.747 448.739C643.611 448.739 644.33 448.935 644.903 449.327C645.483 449.713 645.935 450.256 646.259 450.955H646.395C646.73 450.278 647.233 449.741 647.903 449.344C648.574 448.94 649.378 448.739 650.315 448.739C651.486 448.739 652.443 449.105 653.188 449.838C653.932 450.565 654.304 451.699 654.304 453.239V462H652.293V453.239C652.293 452.273 652.028 451.582 651.5 451.168C650.972 450.753 650.349 450.545 649.634 450.545C648.713 450.545 648 450.824 647.494 451.381C646.989 451.932 646.736 452.631 646.736 453.477V462H644.69V453.034C644.69 452.29 644.449 451.69 643.966 451.236C643.483 450.776 642.861 450.545 642.099 450.545C641.577 450.545 641.088 450.685 640.634 450.963C640.185 451.241 639.821 451.628 639.543 452.122C639.27 452.611 639.134 453.176 639.134 453.818V462H637.122ZM663.47 462.273C662.209 462.273 661.121 461.994 660.206 461.438C659.297 460.875 658.595 460.091 658.101 459.085C657.612 458.074 657.368 456.898 657.368 455.557C657.368 454.216 657.612 453.034 658.101 452.011C658.595 450.983 659.283 450.182 660.163 449.608C661.05 449.028 662.084 448.739 663.266 448.739C663.947 448.739 664.621 448.852 665.286 449.08C665.95 449.307 666.555 449.676 667.101 450.188C667.646 450.693 668.081 451.364 668.405 452.199C668.729 453.034 668.891 454.062 668.891 455.284V456.136H658.8V454.398H666.845C666.845 453.659 666.697 453 666.402 452.42C666.112 451.841 665.697 451.384 665.158 451.048C664.624 450.713 663.993 450.545 663.266 450.545C662.464 450.545 661.771 450.744 661.186 451.142C660.607 451.534 660.161 452.045 659.848 452.676C659.536 453.307 659.379 453.983 659.379 454.705V455.864C659.379 456.852 659.55 457.69 659.891 458.378C660.237 459.06 660.717 459.58 661.331 459.938C661.945 460.29 662.658 460.466 663.47 460.466C663.999 460.466 664.476 460.392 664.902 460.244C665.334 460.091 665.706 459.864 666.018 459.562C666.331 459.256 666.572 458.875 666.743 458.42L668.686 458.966C668.482 459.625 668.138 460.205 667.655 460.705C667.172 461.199 666.575 461.585 665.865 461.864C665.155 462.136 664.357 462.273 663.47 462.273ZM673.962 454.125V462H671.95V448.909H673.893V450.955H674.064C674.371 450.29 674.837 449.756 675.462 449.352C676.087 448.943 676.893 448.739 677.882 448.739C678.768 448.739 679.544 448.92 680.209 449.284C680.874 449.642 681.391 450.188 681.76 450.92C682.129 451.648 682.314 452.568 682.314 453.682V462H680.303V453.818C680.303 452.79 680.036 451.989 679.501 451.415C678.967 450.835 678.234 450.545 677.303 450.545C676.661 450.545 676.087 450.685 675.581 450.963C675.081 451.241 674.686 451.648 674.396 452.182C674.107 452.716 673.962 453.364 673.962 454.125ZM691.683 448.909V450.614H684.898V448.909H691.683ZM686.876 445.773H688.887V458.25C688.887 458.818 688.969 459.244 689.134 459.528C689.305 459.807 689.521 459.994 689.782 460.091C690.049 460.182 690.33 460.227 690.626 460.227C690.847 460.227 691.029 460.216 691.171 460.193C691.313 460.165 691.427 460.142 691.512 460.125L691.921 461.932C691.785 461.983 691.594 462.034 691.35 462.085C691.106 462.142 690.796 462.17 690.421 462.17C689.853 462.17 689.296 462.048 688.751 461.804C688.211 461.56 687.762 461.188 687.404 460.688C687.052 460.188 686.876 459.557 686.876 458.795V445.773Z" fill="#FFD02F"/>
<path d="M474.114 317V299.545H484.648V301.42H476.227V307.318H484.102V309.193H476.227V315.125H484.784V317H474.114ZM493.503 317.273C492.276 317.273 491.219 316.983 490.332 316.403C489.446 315.824 488.764 315.026 488.287 314.009C487.81 312.991 487.571 311.83 487.571 310.523C487.571 309.193 487.815 308.02 488.304 307.003C488.798 305.98 489.486 305.182 490.366 304.608C491.253 304.028 492.287 303.739 493.469 303.739C494.389 303.739 495.219 303.909 495.957 304.25C496.696 304.591 497.301 305.068 497.773 305.682C498.244 306.295 498.537 307.011 498.651 307.83H496.639C496.486 307.233 496.145 306.705 495.616 306.244C495.094 305.778 494.389 305.545 493.503 305.545C492.719 305.545 492.031 305.75 491.44 306.159C490.855 306.562 490.398 307.134 490.068 307.872C489.744 308.605 489.582 309.466 489.582 310.455C489.582 311.466 489.741 312.347 490.06 313.097C490.384 313.847 490.838 314.429 491.423 314.844C492.014 315.259 492.707 315.466 493.503 315.466C494.026 315.466 494.5 315.375 494.926 315.193C495.352 315.011 495.713 314.75 496.009 314.409C496.304 314.068 496.514 313.659 496.639 313.182H498.651C498.537 313.955 498.256 314.651 497.807 315.27C497.364 315.884 496.776 316.372 496.043 316.736C495.315 317.094 494.469 317.273 493.503 317.273ZM503.057 317.136C502.636 317.136 502.276 316.986 501.974 316.685C501.673 316.384 501.523 316.023 501.523 315.602C501.523 315.182 501.673 314.821 501.974 314.52C502.276 314.219 502.636 314.068 503.057 314.068C503.477 314.068 503.838 314.219 504.139 314.52C504.44 314.821 504.591 315.182 504.591 315.602C504.591 315.881 504.52 316.136 504.378 316.369C504.241 316.602 504.057 316.79 503.824 316.932C503.597 317.068 503.341 317.136 503.057 317.136ZM516.416 314.767C515.996 314.767 515.635 314.616 515.334 314.315C515.033 314.014 514.882 313.653 514.882 313.233C514.882 312.812 515.033 312.452 515.334 312.151C515.635 311.849 515.996 311.699 516.416 311.699C516.837 311.699 517.197 311.849 517.499 312.151C517.8 312.452 517.95 312.812 517.95 313.233C517.95 313.511 517.879 313.767 517.737 314C517.601 314.233 517.416 314.42 517.183 314.562C516.956 314.699 516.7 314.767 516.416 314.767ZM516.416 305.938C515.996 305.938 515.635 305.787 515.334 305.486C515.033 305.185 514.882 304.824 514.882 304.403C514.882 303.983 515.033 303.622 515.334 303.321C515.635 303.02 515.996 302.869 516.416 302.869C516.837 302.869 517.197 303.02 517.499 303.321C517.8 303.622 517.95 303.983 517.95 304.403C517.95 304.682 517.879 304.938 517.737 305.17C517.601 305.403 517.416 305.591 517.183 305.733C516.956 305.869 516.7 305.938 516.416 305.938ZM528.582 317V299.545H539.116V301.42H530.696V307.318H538.571V309.193H530.696V315.125H539.253V317H528.582ZM547.972 317.273C546.744 317.273 545.688 316.983 544.801 316.403C543.915 315.824 543.233 315.026 542.756 314.009C542.278 312.991 542.04 311.83 542.04 310.523C542.04 309.193 542.284 308.02 542.773 307.003C543.267 305.98 543.955 305.182 544.835 304.608C545.722 304.028 546.756 303.739 547.938 303.739C548.858 303.739 549.688 303.909 550.426 304.25C551.165 304.591 551.77 305.068 552.241 305.682C552.713 306.295 553.006 307.011 553.119 307.83H551.108C550.955 307.233 550.614 306.705 550.085 306.244C549.563 305.778 548.858 305.545 547.972 305.545C547.188 305.545 546.5 305.75 545.909 306.159C545.324 306.562 544.866 307.134 544.537 307.872C544.213 308.605 544.051 309.466 544.051 310.455C544.051 311.466 544.21 312.347 544.528 313.097C544.852 313.847 545.307 314.429 545.892 314.844C546.483 315.259 547.176 315.466 547.972 315.466C548.494 315.466 548.969 315.375 549.395 315.193C549.821 315.011 550.182 314.75 550.477 314.409C550.773 314.068 550.983 313.659 551.108 313.182H553.119C553.006 313.955 552.724 314.651 552.276 315.27C551.832 315.884 551.244 316.372 550.511 316.736C549.784 317.094 548.938 317.273 547.972 317.273ZM558.071 299.545V317H556.06V299.545H558.071ZM565.607 317.307C564.778 317.307 564.025 317.151 563.349 316.838C562.673 316.52 562.136 316.062 561.738 315.466C561.34 314.864 561.141 314.136 561.141 313.284C561.141 312.534 561.289 311.926 561.585 311.46C561.88 310.989 562.275 310.619 562.769 310.352C563.263 310.085 563.809 309.886 564.406 309.756C565.008 309.619 565.613 309.511 566.221 309.432C567.016 309.33 567.661 309.253 568.156 309.202C568.656 309.145 569.019 309.051 569.246 308.92C569.479 308.79 569.596 308.562 569.596 308.239V308.17C569.596 307.33 569.366 306.676 568.906 306.21C568.451 305.744 567.761 305.511 566.835 305.511C565.874 305.511 565.121 305.722 564.576 306.142C564.031 306.562 563.647 307.011 563.425 307.489L561.516 306.807C561.857 306.011 562.312 305.392 562.88 304.949C563.454 304.5 564.079 304.187 564.755 304.011C565.437 303.83 566.107 303.739 566.766 303.739C567.187 303.739 567.67 303.79 568.215 303.892C568.766 303.989 569.298 304.19 569.809 304.497C570.326 304.804 570.755 305.267 571.096 305.886C571.437 306.506 571.607 307.335 571.607 308.375V317H569.596V315.227H569.494C569.357 315.511 569.13 315.815 568.812 316.139C568.494 316.463 568.07 316.739 567.542 316.966C567.013 317.193 566.369 317.307 565.607 317.307ZM565.914 315.5C566.71 315.5 567.38 315.344 567.925 315.031C568.477 314.719 568.891 314.315 569.17 313.821C569.454 313.327 569.596 312.807 569.596 312.261V310.42C569.511 310.523 569.323 310.616 569.033 310.702C568.749 310.781 568.42 310.852 568.045 310.915C567.675 310.972 567.315 311.023 566.962 311.068C566.616 311.108 566.335 311.142 566.119 311.17C565.596 311.239 565.107 311.349 564.653 311.503C564.204 311.651 563.84 311.875 563.562 312.176C563.289 312.472 563.153 312.875 563.153 313.386C563.153 314.085 563.411 314.614 563.928 314.972C564.451 315.324 565.113 315.5 565.914 315.5ZM580.972 303.909V305.614H574.188V303.909H580.972ZM576.165 300.773H578.176V313.25C578.176 313.818 578.259 314.244 578.423 314.528C578.594 314.807 578.81 314.994 579.071 315.091C579.338 315.182 579.619 315.227 579.915 315.227C580.136 315.227 580.318 315.216 580.46 315.193C580.602 315.165 580.716 315.142 580.801 315.125L581.21 316.932C581.074 316.983 580.884 317.034 580.639 317.085C580.395 317.142 580.085 317.17 579.71 317.17C579.142 317.17 578.585 317.048 578.04 316.804C577.5 316.56 577.051 316.188 576.693 315.688C576.341 315.188 576.165 314.557 576.165 313.795V300.773Z" fill="#050038"/>
<path d="M186.659 385.909C186.557 385.045 186.142 384.375 185.415 383.898C184.688 383.42 183.795 383.182 182.739 383.182C181.966 383.182 181.29 383.307 180.71 383.557C180.136 383.807 179.688 384.151 179.364 384.588C179.045 385.026 178.886 385.523 178.886 386.08C178.886 386.545 178.997 386.946 179.219 387.281C179.446 387.611 179.736 387.886 180.088 388.108C180.44 388.324 180.81 388.503 181.196 388.645C181.582 388.781 181.938 388.892 182.261 388.977L184.034 389.455C184.489 389.574 184.994 389.739 185.551 389.949C186.114 390.159 186.651 390.446 187.162 390.81C187.679 391.168 188.105 391.628 188.44 392.19C188.776 392.753 188.943 393.443 188.943 394.261C188.943 395.205 188.696 396.057 188.202 396.818C187.713 397.58 186.997 398.185 186.054 398.634C185.116 399.082 183.977 399.307 182.636 399.307C181.386 399.307 180.304 399.105 179.389 398.702C178.48 398.298 177.764 397.736 177.241 397.014C176.724 396.293 176.432 395.455 176.364 394.5H178.545C178.602 395.159 178.824 395.705 179.21 396.136C179.602 396.562 180.097 396.881 180.693 397.091C181.295 397.295 181.943 397.398 182.636 397.398C183.443 397.398 184.168 397.267 184.81 397.006C185.452 396.739 185.96 396.369 186.335 395.898C186.71 395.42 186.898 394.864 186.898 394.227C186.898 393.648 186.736 393.176 186.412 392.812C186.088 392.449 185.662 392.153 185.134 391.926C184.605 391.699 184.034 391.5 183.42 391.33L181.273 390.716C179.909 390.324 178.83 389.764 178.034 389.037C177.239 388.31 176.841 387.358 176.841 386.182C176.841 385.205 177.105 384.352 177.634 383.625C178.168 382.892 178.884 382.324 179.781 381.92C180.685 381.511 181.693 381.307 182.807 381.307C183.932 381.307 184.932 381.509 185.807 381.912C186.682 382.31 187.375 382.855 187.886 383.548C188.403 384.241 188.676 385.028 188.705 385.909H186.659ZM197.634 399.273C196.373 399.273 195.285 398.994 194.37 398.438C193.461 397.875 192.759 397.091 192.265 396.085C191.776 395.074 191.532 393.898 191.532 392.557C191.532 391.216 191.776 390.034 192.265 389.011C192.759 387.983 193.447 387.182 194.327 386.608C195.214 386.028 196.248 385.739 197.43 385.739C198.112 385.739 198.785 385.852 199.45 386.08C200.114 386.307 200.719 386.676 201.265 387.188C201.81 387.693 202.245 388.364 202.569 389.199C202.893 390.034 203.055 391.062 203.055 392.284V393.136H192.964V391.398H201.009C201.009 390.659 200.862 390 200.566 389.42C200.276 388.841 199.862 388.384 199.322 388.048C198.788 387.713 198.157 387.545 197.43 387.545C196.629 387.545 195.935 387.744 195.35 388.142C194.771 388.534 194.325 389.045 194.012 389.676C193.7 390.307 193.543 390.983 193.543 391.705V392.864C193.543 393.852 193.714 394.69 194.055 395.378C194.401 396.06 194.881 396.58 195.495 396.938C196.109 397.29 196.822 397.466 197.634 397.466C198.163 397.466 198.64 397.392 199.066 397.244C199.498 397.091 199.87 396.864 200.183 396.562C200.495 396.256 200.737 395.875 200.907 395.42L202.85 395.966C202.646 396.625 202.302 397.205 201.819 397.705C201.336 398.199 200.739 398.585 200.029 398.864C199.319 399.136 198.521 399.273 197.634 399.273ZM211.398 404.182C210.427 404.182 209.592 404.057 208.893 403.807C208.194 403.562 207.612 403.239 207.146 402.835C206.685 402.438 206.319 402.011 206.046 401.557L207.648 400.432C207.83 400.67 208.06 400.943 208.339 401.25C208.617 401.562 208.998 401.832 209.481 402.06C209.969 402.293 210.609 402.409 211.398 402.409C212.455 402.409 213.327 402.153 214.015 401.642C214.702 401.131 215.046 400.33 215.046 399.239V396.58H214.876C214.728 396.818 214.518 397.114 214.245 397.466C213.978 397.812 213.592 398.122 213.086 398.395C212.586 398.662 211.91 398.795 211.058 398.795C210.001 398.795 209.052 398.545 208.211 398.045C207.376 397.545 206.714 396.818 206.225 395.864C205.742 394.909 205.501 393.75 205.501 392.386C205.501 391.045 205.737 389.878 206.208 388.884C206.68 387.884 207.336 387.111 208.177 386.565C209.018 386.014 209.989 385.739 211.092 385.739C211.944 385.739 212.62 385.881 213.12 386.165C213.626 386.443 214.012 386.761 214.279 387.119C214.552 387.472 214.762 387.761 214.91 387.989H215.114V385.909H217.058V399.375C217.058 400.5 216.802 401.415 216.29 402.119C215.785 402.83 215.103 403.349 214.245 403.679C213.393 404.014 212.444 404.182 211.398 404.182ZM211.33 396.989C212.137 396.989 212.819 396.804 213.376 396.435C213.933 396.065 214.356 395.534 214.646 394.841C214.935 394.148 215.08 393.318 215.08 392.352C215.08 391.409 214.938 390.577 214.654 389.855C214.37 389.134 213.95 388.568 213.393 388.159C212.836 387.75 212.148 387.545 211.33 387.545C210.478 387.545 209.768 387.761 209.2 388.193C208.637 388.625 208.214 389.205 207.93 389.932C207.651 390.659 207.512 391.466 207.512 392.352C207.512 393.261 207.654 394.065 207.938 394.764C208.228 395.457 208.654 396.003 209.217 396.401C209.785 396.793 210.489 396.989 211.33 396.989ZM222.205 399.136C221.785 399.136 221.424 398.986 221.123 398.685C220.822 398.384 220.671 398.023 220.671 397.602C220.671 397.182 220.822 396.821 221.123 396.52C221.424 396.219 221.785 396.068 222.205 396.068C222.626 396.068 222.987 396.219 223.288 396.52C223.589 396.821 223.739 397.182 223.739 397.602C223.739 397.881 223.668 398.136 223.526 398.369C223.39 398.602 223.205 398.79 222.972 398.932C222.745 399.068 222.489 399.136 222.205 399.136ZM235.565 396.767C235.144 396.767 234.783 396.616 234.482 396.315C234.181 396.014 234.031 395.653 234.031 395.233C234.031 394.812 234.181 394.452 234.482 394.151C234.783 393.849 235.144 393.699 235.565 393.699C235.985 393.699 236.346 393.849 236.647 394.151C236.948 394.452 237.099 394.812 237.099 395.233C237.099 395.511 237.028 395.767 236.886 396C236.749 396.233 236.565 396.42 236.332 396.562C236.104 396.699 235.849 396.767 235.565 396.767ZM235.565 387.938C235.144 387.938 234.783 387.787 234.482 387.486C234.181 387.185 234.031 386.824 234.031 386.403C234.031 385.983 234.181 385.622 234.482 385.321C234.783 385.02 235.144 384.869 235.565 384.869C235.985 384.869 236.346 385.02 236.647 385.321C236.948 385.622 237.099 385.983 237.099 386.403C237.099 386.682 237.028 386.938 236.886 387.17C236.749 387.403 236.565 387.591 236.332 387.733C236.104 387.869 235.849 387.938 235.565 387.938ZM257.276 385.909C257.174 385.045 256.759 384.375 256.032 383.898C255.305 383.42 254.413 383.182 253.356 383.182C252.583 383.182 251.907 383.307 251.327 383.557C250.754 383.807 250.305 384.151 249.981 384.588C249.663 385.026 249.504 385.523 249.504 386.08C249.504 386.545 249.614 386.946 249.836 387.281C250.063 387.611 250.353 387.886 250.705 388.108C251.058 388.324 251.427 388.503 251.813 388.645C252.2 388.781 252.555 388.892 252.879 388.977L254.651 389.455C255.106 389.574 255.612 389.739 256.168 389.949C256.731 390.159 257.268 390.446 257.779 390.81C258.296 391.168 258.722 391.628 259.058 392.19C259.393 392.753 259.56 393.443 259.56 394.261C259.56 395.205 259.313 396.057 258.819 396.818C258.33 397.58 257.614 398.185 256.671 398.634C255.734 399.082 254.594 399.307 253.254 399.307C252.004 399.307 250.921 399.105 250.006 398.702C249.097 398.298 248.381 397.736 247.859 397.014C247.342 396.293 247.049 395.455 246.981 394.5H249.163C249.219 395.159 249.441 395.705 249.827 396.136C250.219 396.562 250.714 396.881 251.31 397.091C251.913 397.295 252.56 397.398 253.254 397.398C254.06 397.398 254.785 397.267 255.427 397.006C256.069 396.739 256.577 396.369 256.952 395.898C257.327 395.42 257.515 394.864 257.515 394.227C257.515 393.648 257.353 393.176 257.029 392.812C256.705 392.449 256.279 392.153 255.751 391.926C255.222 391.699 254.651 391.5 254.038 391.33L251.89 390.716C250.526 390.324 249.447 389.764 248.651 389.037C247.856 388.31 247.458 387.358 247.458 386.182C247.458 385.205 247.722 384.352 248.251 383.625C248.785 382.892 249.501 382.324 250.398 381.92C251.302 381.511 252.31 381.307 253.424 381.307C254.549 381.307 255.549 381.509 256.424 381.912C257.299 382.31 257.992 382.855 258.504 383.548C259.021 384.241 259.293 385.028 259.322 385.909H257.276ZM268.251 399.273C266.99 399.273 265.902 398.994 264.987 398.438C264.078 397.875 263.376 397.091 262.882 396.085C262.393 395.074 262.149 393.898 262.149 392.557C262.149 391.216 262.393 390.034 262.882 389.011C263.376 387.983 264.064 387.182 264.945 386.608C265.831 386.028 266.865 385.739 268.047 385.739C268.729 385.739 269.402 385.852 270.067 386.08C270.732 386.307 271.337 386.676 271.882 387.188C272.428 387.693 272.862 388.364 273.186 389.199C273.51 390.034 273.672 391.062 273.672 392.284V393.136H263.581V391.398H271.626C271.626 390.659 271.479 390 271.183 389.42C270.893 388.841 270.479 388.384 269.939 388.048C269.405 387.713 268.774 387.545 268.047 387.545C267.246 387.545 266.553 387.744 265.967 388.142C265.388 388.534 264.942 389.045 264.629 389.676C264.317 390.307 264.161 390.983 264.161 391.705V392.864C264.161 393.852 264.331 394.69 264.672 395.378C265.018 396.06 265.499 396.58 266.112 396.938C266.726 397.29 267.439 397.466 268.251 397.466C268.78 397.466 269.257 397.392 269.683 397.244C270.115 397.091 270.487 396.864 270.8 396.562C271.112 396.256 271.354 395.875 271.524 395.42L273.467 395.966C273.263 396.625 272.919 397.205 272.436 397.705C271.953 398.199 271.357 398.585 270.646 398.864C269.936 399.136 269.138 399.273 268.251 399.273ZM282.016 404.182C281.044 404.182 280.209 404.057 279.51 403.807C278.811 403.562 278.229 403.239 277.763 402.835C277.303 402.438 276.936 402.011 276.663 401.557L278.266 400.432C278.447 400.67 278.678 400.943 278.956 401.25C279.234 401.562 279.615 401.832 280.098 402.06C280.587 402.293 281.226 402.409 282.016 402.409C283.072 402.409 283.945 402.153 284.632 401.642C285.32 401.131 285.663 400.33 285.663 399.239V396.58H285.493C285.345 396.818 285.135 397.114 284.862 397.466C284.595 397.812 284.209 398.122 283.703 398.395C283.203 398.662 282.527 398.795 281.675 398.795C280.618 398.795 279.669 398.545 278.828 398.045C277.993 397.545 277.331 396.818 276.842 395.864C276.359 394.909 276.118 393.75 276.118 392.386C276.118 391.045 276.354 389.878 276.825 388.884C277.297 387.884 277.953 387.111 278.794 386.565C279.635 386.014 280.607 385.739 281.709 385.739C282.561 385.739 283.237 385.881 283.737 386.165C284.243 386.443 284.629 386.761 284.896 387.119C285.169 387.472 285.379 387.761 285.527 387.989H285.732V385.909H287.675V399.375C287.675 400.5 287.419 401.415 286.908 402.119C286.402 402.83 285.72 403.349 284.862 403.679C284.01 404.014 283.061 404.182 282.016 404.182ZM281.947 396.989C282.754 396.989 283.436 396.804 283.993 396.435C284.55 396.065 284.973 395.534 285.263 394.841C285.553 394.148 285.697 393.318 285.697 392.352C285.697 391.409 285.555 390.577 285.271 389.855C284.987 389.134 284.567 388.568 284.01 388.159C283.453 387.75 282.766 387.545 281.947 387.545C281.095 387.545 280.385 387.761 279.817 388.193C279.254 388.625 278.831 389.205 278.547 389.932C278.268 390.659 278.129 391.466 278.129 392.352C278.129 393.261 278.271 394.065 278.555 394.764C278.845 395.457 279.271 396.003 279.834 396.401C280.402 396.793 281.107 396.989 281.947 396.989ZM291.357 399V385.909H293.3V387.886H293.436C293.675 387.239 294.107 386.713 294.732 386.31C295.357 385.906 296.061 385.705 296.845 385.705C296.993 385.705 297.178 385.707 297.399 385.713C297.621 385.719 297.788 385.727 297.902 385.739V387.784C297.834 387.767 297.678 387.741 297.433 387.707C297.195 387.668 296.942 387.648 296.675 387.648C296.038 387.648 295.47 387.781 294.97 388.048C294.476 388.31 294.084 388.673 293.794 389.139C293.51 389.599 293.368 390.125 293.368 390.716V399H291.357ZM305.376 399.273C304.115 399.273 303.027 398.994 302.112 398.438C301.203 397.875 300.501 397.091 300.007 396.085C299.518 395.074 299.274 393.898 299.274 392.557C299.274 391.216 299.518 390.034 300.007 389.011C300.501 387.983 301.189 387.182 302.07 386.608C302.956 386.028 303.99 385.739 305.172 385.739C305.854 385.739 306.527 385.852 307.192 386.08C307.857 386.307 308.462 386.676 309.007 387.188C309.553 387.693 309.987 388.364 310.311 389.199C310.635 390.034 310.797 391.062 310.797 392.284V393.136H300.706V391.398H308.751C308.751 390.659 308.604 390 308.308 389.42C308.018 388.841 307.604 388.384 307.064 388.048C306.53 387.713 305.899 387.545 305.172 387.545C304.371 387.545 303.678 387.744 303.092 388.142C302.513 388.534 302.067 389.045 301.754 389.676C301.442 390.307 301.286 390.983 301.286 391.705V392.864C301.286 393.852 301.456 394.69 301.797 395.378C302.143 396.06 302.624 396.58 303.237 396.938C303.851 397.29 304.564 397.466 305.376 397.466C305.905 397.466 306.382 397.392 306.808 397.244C307.24 397.091 307.612 396.864 307.925 396.562C308.237 396.256 308.479 395.875 308.649 395.42L310.592 395.966C310.388 396.625 310.044 397.205 309.561 397.705C309.078 398.199 308.482 398.585 307.771 398.864C307.061 399.136 306.263 399.273 305.376 399.273ZM304.149 384.136L306.229 380.182H308.581L305.922 384.136H304.149ZM319.141 404.182C318.169 404.182 317.334 404.057 316.635 403.807C315.936 403.562 315.354 403.239 314.888 402.835C314.428 402.438 314.061 402.011 313.788 401.557L315.391 400.432C315.572 400.67 315.803 400.943 316.081 401.25C316.359 401.562 316.74 401.832 317.223 402.06C317.712 402.293 318.351 402.409 319.141 402.409C320.197 402.409 321.07 402.153 321.757 401.642C322.445 401.131 322.788 400.33 322.788 399.239V396.58H322.618C322.47 396.818 322.26 397.114 321.987 397.466C321.72 397.812 321.334 398.122 320.828 398.395C320.328 398.662 319.652 398.795 318.8 398.795C317.743 398.795 316.794 398.545 315.953 398.045C315.118 397.545 314.456 396.818 313.967 395.864C313.484 394.909 313.243 393.75 313.243 392.386C313.243 391.045 313.479 389.878 313.95 388.884C314.422 387.884 315.078 387.111 315.919 386.565C316.76 386.014 317.732 385.739 318.834 385.739C319.686 385.739 320.362 385.881 320.862 386.165C321.368 386.443 321.754 386.761 322.021 387.119C322.294 387.472 322.504 387.761 322.652 387.989H322.857V385.909H324.8V399.375C324.8 400.5 324.544 401.415 324.033 402.119C323.527 402.83 322.845 403.349 321.987 403.679C321.135 404.014 320.186 404.182 319.141 404.182ZM319.072 396.989C319.879 396.989 320.561 396.804 321.118 396.435C321.675 396.065 322.098 395.534 322.388 394.841C322.678 394.148 322.822 393.318 322.822 392.352C322.822 391.409 322.68 390.577 322.396 389.855C322.112 389.134 321.692 388.568 321.135 388.159C320.578 387.75 319.891 387.545 319.072 387.545C318.22 387.545 317.51 387.761 316.942 388.193C316.379 388.625 315.956 389.205 315.672 389.932C315.393 390.659 315.254 391.466 315.254 392.352C315.254 393.261 315.396 394.065 315.68 394.764C315.97 395.457 316.396 396.003 316.959 396.401C317.527 396.793 318.232 396.989 319.072 396.989ZM332.334 399.307C331.504 399.307 330.751 399.151 330.075 398.838C329.399 398.52 328.862 398.062 328.464 397.466C328.067 396.864 327.868 396.136 327.868 395.284C327.868 394.534 328.016 393.926 328.311 393.46C328.607 392.989 329.001 392.619 329.496 392.352C329.99 392.085 330.536 391.886 331.132 391.756C331.734 391.619 332.339 391.511 332.947 391.432C333.743 391.33 334.388 391.253 334.882 391.202C335.382 391.145 335.746 391.051 335.973 390.92C336.206 390.79 336.322 390.562 336.322 390.239V390.17C336.322 389.33 336.092 388.676 335.632 388.21C335.178 387.744 334.487 387.511 333.561 387.511C332.601 387.511 331.848 387.722 331.303 388.142C330.757 388.562 330.374 389.011 330.152 389.489L328.243 388.807C328.584 388.011 329.038 387.392 329.607 386.949C330.18 386.5 330.805 386.187 331.482 386.011C332.163 385.83 332.834 385.739 333.493 385.739C333.913 385.739 334.396 385.79 334.942 385.892C335.493 385.989 336.024 386.19 336.536 386.497C337.053 386.804 337.482 387.267 337.822 387.886C338.163 388.506 338.334 389.335 338.334 390.375V399H336.322V397.227H336.22C336.084 397.511 335.857 397.815 335.538 398.139C335.22 398.463 334.797 398.739 334.268 398.966C333.74 399.193 333.095 399.307 332.334 399.307ZM332.641 397.5C333.436 397.5 334.107 397.344 334.652 397.031C335.203 396.719 335.618 396.315 335.896 395.821C336.18 395.327 336.322 394.807 336.322 394.261V392.42C336.237 392.523 336.05 392.616 335.76 392.702C335.476 392.781 335.146 392.852 334.771 392.915C334.402 392.972 334.041 393.023 333.689 393.068C333.342 393.108 333.061 393.142 332.845 393.17C332.322 393.239 331.834 393.349 331.379 393.503C330.93 393.651 330.567 393.875 330.288 394.176C330.016 394.472 329.879 394.875 329.879 395.386C329.879 396.085 330.138 396.614 330.655 396.972C331.178 397.324 331.839 397.5 332.641 397.5ZM347.698 385.909V387.614H340.914V385.909H347.698ZM342.891 382.773H344.903V395.25C344.903 395.818 344.985 396.244 345.15 396.528C345.32 396.807 345.536 396.994 345.798 397.091C346.065 397.182 346.346 397.227 346.641 397.227C346.863 397.227 347.045 397.216 347.187 397.193C347.329 397.165 347.442 397.142 347.528 397.125L347.937 398.932C347.8 398.983 347.61 399.034 347.366 399.085C347.121 399.142 346.812 399.17 346.437 399.17C345.869 399.17 345.312 399.048 344.766 398.804C344.227 398.56 343.778 398.188 343.42 397.688C343.067 397.188 342.891 396.557 342.891 395.795V382.773ZM350.724 399V385.909H352.735V399H350.724ZM351.746 383.727C351.354 383.727 351.016 383.594 350.732 383.327C350.454 383.06 350.315 382.739 350.315 382.364C350.315 381.989 350.454 381.668 350.732 381.401C351.016 381.134 351.354 381 351.746 381C352.138 381 352.474 381.134 352.752 381.401C353.036 381.668 353.178 381.989 353.178 382.364C353.178 382.739 353.036 383.06 352.752 383.327C352.474 383.594 352.138 383.727 351.746 383.727ZM361.737 399.273C360.555 399.273 359.518 398.991 358.626 398.429C357.74 397.866 357.047 397.08 356.547 396.068C356.053 395.057 355.805 393.875 355.805 392.523C355.805 391.159 356.053 389.969 356.547 388.952C357.047 387.935 357.74 387.145 358.626 386.582C359.518 386.02 360.555 385.739 361.737 385.739C362.919 385.739 363.953 386.02 364.839 386.582C365.732 387.145 366.425 387.935 366.919 388.952C367.419 389.969 367.669 391.159 367.669 392.523C367.669 393.875 367.419 395.057 366.919 396.068C366.425 397.08 365.732 397.866 364.839 398.429C363.953 398.991 362.919 399.273 361.737 399.273ZM361.737 397.466C362.635 397.466 363.374 397.236 363.953 396.776C364.533 396.315 364.962 395.71 365.24 394.96C365.518 394.21 365.658 393.398 365.658 392.523C365.658 391.648 365.518 390.832 365.24 390.077C364.962 389.321 364.533 388.71 363.953 388.244C363.374 387.778 362.635 387.545 361.737 387.545C360.839 387.545 360.101 387.778 359.521 388.244C358.942 388.71 358.513 389.321 358.234 390.077C357.956 390.832 357.817 391.648 357.817 392.523C357.817 393.398 357.956 394.21 358.234 394.96C358.513 395.71 358.942 396.315 359.521 396.776C360.101 397.236 360.839 397.466 361.737 397.466ZM372.751 391.125V399H370.739V385.909H372.683V387.955H372.853C373.16 387.29 373.626 386.756 374.251 386.352C374.876 385.943 375.683 385.739 376.671 385.739C377.558 385.739 378.333 385.92 378.998 386.284C379.663 386.642 380.18 387.188 380.549 387.92C380.918 388.648 381.103 389.568 381.103 390.682V399H379.092V390.818C379.092 389.79 378.825 388.989 378.29 388.415C377.756 387.835 377.023 387.545 376.092 387.545C375.45 387.545 374.876 387.685 374.37 387.963C373.87 388.241 373.475 388.648 373.185 389.182C372.896 389.716 372.751 390.364 372.751 391.125Z" fill="#FF7565"/>
</svg>
