<?xml version="1.0" encoding="UTF-8" standalone="no"?>
<!DOCTYPE svg PUBLIC "-//W3C//DTD SVG 1.1//EN" "http://www.w3.org/Graphics/SVG/1.1/DTD/svg11.dtd">
<!-- Created with Vectornator (http://vectornator.io/) -->
<svg height="100%" stroke-miterlimit="10" style="fill-rule:nonzero;clip-rule:evenodd;stroke-linecap:round;stroke-linejoin:round;" version="1.1" viewBox="0 0 1000 599.405" width="100%" xml:space="preserve" xmlns="http://www.w3.org/2000/svg" xmlns:vectornator="http://vectornator.io" xmlns:xlink="http://www.w3.org/1999/xlink">
<defs/>
<path d="M0 0L1000 0L1000 599.405L0 599.405L0 0Z" fill="#ffffff" fill-rule="nonzero" opacity="1" stroke="none"/>
<g id="Calque-1" vectornator:layerName="Calque 1">
<path d="M119.219 240.553L225.44 240.553" fill="none" opacity="1" stroke="#ef0404" stroke-linecap="butt" stroke-linejoin="round" stroke-width="2"/>
<path d="M120.038 343.085L226.259 343.085" fill="none" opacity="1" stroke="#ef0404" stroke-linecap="butt" stroke-linejoin="round" stroke-width="10.2056"/>
<g fill="#ef0404" opacity="1" stroke="none">
<path d="M290.987 227.85L303.764 227.85L303.764 230.321L293.938 230.321L293.938 236.135L302.848 236.135L302.848 238.606L293.938 238.606L293.938 249.551L290.987 249.551L290.987 227.85Z"/>
<path d="M310.116 233.33L316.962 233.33L316.962 247.473L322.267 247.473L322.267 249.551L308.982 249.551L308.982 247.473L314.287 247.473L314.287 235.408L310.116 235.408L310.116 233.33ZM314.287 227.007L316.962 227.007L316.962 230.379L314.287 230.379L314.287 227.007Z"/>
<path d="M337.588 233.838L337.588 236.455C336.822 236.009 336.052 235.675 335.277 235.452C334.501 235.229 333.712 235.118 332.907 235.118C331.696 235.118 330.792 235.314 330.196 235.706C329.6 236.099 329.302 236.697 329.302 237.501C329.302 238.228 329.525 238.771 329.971 239.129C330.417 239.488 331.526 239.837 333.3 240.176L334.375 240.379C335.703 240.631 336.708 241.135 337.391 241.891C338.075 242.647 338.416 243.63 338.416 244.842C338.416 246.45 337.844 247.708 336.701 248.614C335.558 249.52 333.968 249.973 331.933 249.973C331.129 249.973 330.286 249.888 329.404 249.718C328.522 249.549 327.568 249.294 326.541 248.955L326.541 246.194C327.539 246.707 328.493 247.092 329.404 247.349C330.315 247.606 331.178 247.734 331.992 247.734C333.174 247.734 334.089 247.494 334.739 247.015C335.388 246.535 335.713 245.864 335.713 245.002C335.713 243.761 334.526 242.904 332.151 242.429L332.035 242.4L331.032 242.196C329.491 241.896 328.367 241.39 327.66 240.677C326.953 239.965 326.599 238.994 326.599 237.763C326.599 236.203 327.127 234.999 328.183 234.151C329.24 233.303 330.746 232.879 332.704 232.879C333.576 232.879 334.414 232.959 335.218 233.119C336.023 233.279 336.812 233.519 337.588 233.838Z"/>
<path d="M355.51 233.838L355.51 236.455C354.744 236.009 353.974 235.675 353.199 235.452C352.423 235.229 351.634 235.118 350.829 235.118C349.618 235.118 348.715 235.314 348.119 235.706C347.523 236.099 347.225 236.697 347.225 237.501C347.225 238.228 347.448 238.771 347.893 239.129C348.339 239.488 349.449 239.837 351.222 240.176L352.298 240.379C353.625 240.631 354.63 241.135 355.314 241.891C355.997 242.647 356.338 243.63 356.338 244.842C356.338 246.45 355.767 247.708 354.623 248.614C353.48 249.52 351.891 249.973 349.856 249.973C349.051 249.973 348.208 249.888 347.326 249.718C346.445 249.549 345.49 249.294 344.463 248.955L344.463 246.194C345.461 246.707 346.416 247.092 347.326 247.349C348.237 247.606 349.1 247.734 349.914 247.734C351.096 247.734 352.012 247.494 352.661 247.015C353.31 246.535 353.635 245.864 353.635 245.002C353.635 243.761 352.448 242.904 350.074 242.429L349.957 242.4L348.954 242.196C347.414 241.896 346.29 241.39 345.582 240.677C344.875 239.965 344.521 238.994 344.521 237.763C344.521 236.203 345.049 234.999 346.105 234.151C347.162 233.303 348.669 232.879 350.626 232.879C351.498 232.879 352.336 232.959 353.141 233.119C353.945 233.279 354.735 233.519 355.51 233.838Z"/>
<path d="M362.123 243.388L362.123 233.301L364.798 233.301L364.798 243.388C364.798 244.851 365.057 245.927 365.576 246.615C366.094 247.303 366.896 247.647 367.981 247.647C369.241 247.647 370.205 247.204 370.874 246.317C371.542 245.43 371.877 244.159 371.877 242.502L371.877 233.301L374.566 233.301L374.566 249.551L371.877 249.551L371.877 247.109C371.402 248.049 370.755 248.761 369.936 249.246C369.117 249.73 368.161 249.973 367.066 249.973C365.399 249.973 364.158 249.428 363.344 248.338C362.53 247.247 362.123 245.598 362.123 243.388Z"/>
<path d="M394 236.629C393.428 236.183 392.846 235.859 392.255 235.655C391.664 235.452 391.015 235.35 390.308 235.35C388.641 235.35 387.367 235.873 386.485 236.92C385.603 237.966 385.162 239.478 385.162 241.455L385.162 249.551L382.473 249.551L382.473 233.272L385.162 233.272L385.162 236.455C385.608 235.302 386.293 234.417 387.219 233.802C388.144 233.187 389.242 232.879 390.511 232.879C391.17 232.879 391.785 232.961 392.357 233.126C392.929 233.291 393.476 233.548 394 233.897L394 236.629Z"/>
<path d="M411.413 240.074L411.413 241.382L399.828 241.382L399.828 241.47C399.751 243.689 400.175 245.283 401.1 246.252C402.026 247.221 403.331 247.705 405.017 247.705C405.87 247.705 406.762 247.57 407.692 247.298C408.622 247.027 409.616 246.615 410.672 246.063L410.672 248.723C409.654 249.139 408.673 249.452 407.728 249.66C406.784 249.869 405.87 249.973 404.988 249.973C402.459 249.973 400.482 249.214 399.058 247.698C397.633 246.181 396.921 244.091 396.921 241.426C396.921 238.829 397.619 236.755 399.014 235.205C400.41 233.654 402.27 232.879 404.596 232.879C406.67 232.879 408.305 233.582 409.502 234.987C410.698 236.392 411.336 238.088 411.413 240.074ZM408.739 239.289C408.622 238.165 408.213 237.194 407.51 236.375C406.808 235.556 405.798 235.147 404.48 235.147C403.191 235.147 402.13 235.573 401.296 236.426C400.463 237.278 400.008 238.238 399.93 239.304L408.739 239.289Z"/>
</g>
<g fill="#ef0404" opacity="1" stroke="none">
<path d="M286.582 135.515L299.46 135.515L299.46 137.986L289.518 137.986L289.518 143.829L299.024 143.829L299.024 146.3L289.518 146.3L289.518 154.745L299.736 154.745L299.736 157.216L286.582 157.216L286.582 135.515ZM293.748 129.613L296.451 129.613L293.123 133.451L290.884 133.451L293.748 129.613Z"/>
<path d="M317.063 156.387C316.346 156.804 315.607 157.117 314.846 157.325C314.085 157.533 313.308 157.637 312.513 157.637C309.994 157.637 308.024 156.882 306.604 155.37C305.185 153.858 304.475 151.765 304.475 149.091C304.475 146.416 305.185 144.323 306.604 142.811C308.024 141.3 309.994 140.544 312.513 140.544C313.298 140.544 314.064 140.646 314.81 140.849C315.556 141.053 316.307 141.367 317.063 141.794L317.063 144.599C316.355 143.969 315.645 143.514 314.933 143.233C314.221 142.952 313.414 142.811 312.513 142.811C310.837 142.811 309.548 143.354 308.647 144.439C307.745 145.525 307.295 147.075 307.295 149.091C307.295 151.097 307.748 152.645 308.654 153.735C309.56 154.825 310.846 155.37 312.513 155.37C313.443 155.37 314.277 155.227 315.013 154.941C315.75 154.655 316.433 154.212 317.063 153.611L317.063 156.387Z"/>
<path d="M330.014 151.329C330.014 152.531 330.234 153.437 330.675 154.047C331.116 154.658 331.768 154.963 332.63 154.963L335.755 154.963L335.755 157.216L332.368 157.216C330.77 157.216 329.532 156.705 328.655 155.682C327.778 154.66 327.339 153.209 327.339 151.329L327.339 136.605L323.051 136.605L323.051 134.512L330.014 134.512L330.014 151.329Z"/>
<path d="M347.689 149.032L346.802 149.032C345.242 149.032 344.067 149.306 343.277 149.854C342.488 150.401 342.093 151.218 342.093 152.303C342.093 153.282 342.388 154.042 342.979 154.585C343.57 155.128 344.389 155.399 345.436 155.399C346.909 155.399 348.067 154.888 348.91 153.866C349.753 152.843 350.179 151.431 350.189 149.628L350.189 149.032L347.689 149.032ZM352.878 147.928L352.878 157.216L350.189 157.216L350.189 154.803C349.617 155.772 348.898 156.487 348.03 156.947C347.163 157.407 346.109 157.637 344.869 157.637C343.212 157.637 341.889 157.17 340.901 156.235C339.912 155.3 339.418 154.047 339.418 152.477C339.418 150.665 340.026 149.289 341.242 148.349C342.458 147.409 344.244 146.939 346.599 146.939L350.189 146.939L350.189 146.518C350.179 145.219 349.85 144.277 349.2 143.691C348.551 143.104 347.514 142.811 346.09 142.811C345.179 142.811 344.258 142.942 343.328 143.204C342.398 143.465 341.492 143.848 340.61 144.352L340.61 141.678C341.598 141.3 342.546 141.016 343.452 140.827C344.358 140.638 345.237 140.544 346.09 140.544C347.437 140.544 348.588 140.742 349.542 141.14C350.497 141.537 351.269 142.133 351.86 142.928C352.229 143.412 352.49 144.01 352.645 144.723C352.8 145.435 352.878 146.503 352.878 147.928Z"/>
<path d="M364.332 136.314L364.332 140.936L370.408 140.936L370.408 143.015L364.332 143.015L364.332 151.852C364.332 153.054 364.56 153.892 365.015 154.367C365.47 154.842 366.265 155.079 367.399 155.079L370.408 155.079L370.408 157.216L367.137 157.216C365.131 157.216 363.717 156.814 362.893 156.009C362.069 155.205 361.657 153.819 361.657 151.852L361.657 143.015L357.311 143.015L357.311 140.936L361.657 140.936L361.657 136.314L364.332 136.314Z"/>
</g>
<g fill="#ef0404" opacity="1" stroke="none">
<path d="M721.912 218.559L718.816 229.664L725.008 229.664L721.912 218.559ZM720.139 215.972L723.7 215.972L730.343 237.673L727.305 237.673L725.706 232.019L718.104 232.019L716.534 237.673L713.496 237.673L720.139 215.972Z"/>
<path d="M746.303 236.845C745.586 237.261 744.847 237.574 744.086 237.782C743.325 237.99 742.548 238.095 741.753 238.095C739.234 238.095 737.264 237.339 735.845 235.827C734.425 234.315 733.715 232.222 733.715 229.548C733.715 226.873 734.425 224.78 735.845 223.268C737.264 221.757 739.234 221.001 741.753 221.001C742.538 221.001 743.304 221.103 744.05 221.306C744.796 221.51 745.547 221.825 746.303 222.251L746.303 225.056C745.595 224.426 744.886 223.971 744.173 223.69C743.461 223.409 742.654 223.268 741.753 223.268C740.077 223.268 738.788 223.811 737.887 224.896C736.986 225.982 736.535 227.532 736.535 229.548C736.535 231.554 736.988 233.102 737.894 234.192C738.8 235.282 740.086 235.827 741.753 235.827C742.683 235.827 743.517 235.684 744.253 235.398C744.99 235.112 745.673 234.669 746.303 234.068L746.303 236.845Z"/>
<path d="M753.396 221.452L760.242 221.452L760.242 235.595L765.548 235.595L765.548 237.673L752.262 237.673L752.262 235.595L757.568 235.595L757.568 223.53L753.396 223.53L753.396 221.452ZM757.568 215.129L760.242 215.129L760.242 218.501L757.568 218.501L757.568 215.129Z"/>
<path d="M783.005 228.196L783.005 229.504L771.42 229.504L771.42 229.591C771.342 231.81 771.766 233.405 772.692 234.374C773.617 235.343 774.923 235.827 776.609 235.827C777.462 235.827 778.353 235.691 779.284 235.42C780.214 235.149 781.207 234.737 782.263 234.185L782.263 236.845C781.246 237.261 780.265 237.574 779.32 237.782C778.375 237.99 777.462 238.095 776.58 238.095C774.051 238.095 772.074 237.336 770.65 235.82C769.225 234.303 768.513 232.213 768.513 229.548C768.513 226.951 769.211 224.877 770.606 223.327C772.001 221.776 773.862 221.001 776.188 221.001C778.261 221.001 779.897 221.704 781.093 223.109C782.29 224.514 782.927 226.209 783.005 228.196ZM780.33 227.411C780.214 226.287 779.804 225.316 779.102 224.497C778.399 223.678 777.389 223.268 776.071 223.268C774.782 223.268 773.721 223.695 772.888 224.548C772.055 225.4 771.599 226.36 771.522 227.426L780.33 227.411Z"/>
<path d="M801.436 224.751C800.864 224.305 800.282 223.981 799.691 223.777C799.1 223.574 798.451 223.472 797.744 223.472C796.077 223.472 794.803 223.995 793.921 225.042C793.039 226.088 792.598 227.6 792.598 229.577L792.598 237.673L789.909 237.673L789.909 221.393L792.598 221.393L792.598 224.577C793.044 223.424 793.729 222.539 794.655 221.924C795.58 221.309 796.678 221.001 797.947 221.001C798.606 221.001 799.221 221.083 799.793 221.248C800.365 221.413 800.912 221.67 801.436 222.018L801.436 224.751Z"/>
<path d="M830.695 229.49L829.809 229.49C828.249 229.49 827.074 229.763 826.284 230.311C825.494 230.858 825.099 231.675 825.099 232.76C825.099 233.739 825.395 234.5 825.986 235.042C826.577 235.585 827.396 235.856 828.442 235.856C829.915 235.856 831.073 235.345 831.916 234.323C832.759 233.3 833.186 231.888 833.195 230.086L833.195 229.49L830.695 229.49ZM835.885 228.385L835.885 237.673L833.195 237.673L833.195 235.26C832.624 236.229 831.904 236.944 831.037 237.404C830.17 237.864 829.116 238.095 827.876 238.095C826.218 238.095 824.896 237.627 823.907 236.692C822.919 235.757 822.425 234.504 822.425 232.935C822.425 231.122 823.033 229.746 824.249 228.806C825.465 227.867 827.25 227.397 829.605 227.397L833.195 227.397L833.195 226.975C833.186 225.677 832.856 224.734 832.207 224.148C831.558 223.562 830.521 223.268 829.096 223.268C828.186 223.268 827.265 223.399 826.335 223.661C825.404 223.923 824.498 224.305 823.617 224.809L823.617 222.135C824.605 221.757 825.552 221.473 826.458 221.284C827.364 221.095 828.244 221.001 829.096 221.001C830.443 221.001 831.594 221.2 832.549 221.597C833.503 221.994 834.276 222.59 834.867 223.385C835.235 223.869 835.497 224.468 835.652 225.18C835.807 225.892 835.885 226.96 835.885 228.385Z"/>
<path d="M843.864 235.624L843.864 243.865L841.175 243.865L841.175 221.393L843.864 221.393L843.864 223.472C844.31 222.668 844.904 222.055 845.645 221.633C846.386 221.212 847.242 221.001 848.211 221.001C850.178 221.001 851.721 221.762 852.84 223.283C853.959 224.804 854.519 226.912 854.519 229.606C854.519 232.251 853.957 234.328 852.833 235.834C851.709 237.341 850.168 238.095 848.211 238.095C847.222 238.095 846.357 237.884 845.616 237.462C844.875 237.041 844.291 236.428 843.864 235.624ZM851.714 229.548C851.714 227.474 851.387 225.909 850.732 224.853C850.078 223.797 849.107 223.268 847.818 223.268C846.52 223.268 845.536 223.799 844.867 224.86C844.199 225.921 843.864 227.484 843.864 229.548C843.864 231.602 844.199 233.162 844.867 234.228C845.536 235.294 846.52 235.827 847.818 235.827C849.107 235.827 850.078 235.299 850.732 234.243C851.387 233.186 851.714 231.622 851.714 229.548Z"/>
<path d="M861.787 235.624L861.787 243.865L859.098 243.865L859.098 221.393L861.787 221.393L861.787 223.472C862.232 222.668 862.826 222.055 863.567 221.633C864.309 221.212 865.164 221.001 866.133 221.001C868.1 221.001 869.643 221.762 870.762 223.283C871.881 224.804 872.441 226.912 872.441 229.606C872.441 232.251 871.879 234.328 870.755 235.834C869.631 237.341 868.09 238.095 866.133 238.095C865.144 238.095 864.279 237.884 863.538 237.462C862.797 237.041 862.213 236.428 861.787 235.624ZM869.636 229.548C869.636 227.474 869.309 225.909 868.655 224.853C868.001 223.797 867.029 223.268 865.74 223.268C864.442 223.268 863.458 223.799 862.79 224.86C862.121 225.921 861.787 227.484 861.787 229.548C861.787 231.602 862.121 233.162 862.79 234.228C863.458 235.294 864.442 235.827 865.74 235.827C867.029 235.827 868.001 235.299 868.655 234.243C869.309 233.186 869.636 231.622 869.636 229.548Z"/>
<path d="M884.462 229.49L883.575 229.49C882.015 229.49 880.84 229.763 880.05 230.311C879.261 230.858 878.866 231.675 878.866 232.76C878.866 233.739 879.161 234.5 879.752 235.042C880.344 235.585 881.162 235.856 882.209 235.856C883.682 235.856 884.84 235.345 885.683 234.323C886.526 233.3 886.952 231.888 886.962 230.086L886.962 229.49L884.462 229.49ZM889.651 228.385L889.651 237.673L886.962 237.673L886.962 235.26C886.39 236.229 885.671 236.944 884.803 237.404C883.936 237.864 882.882 238.095 881.642 238.095C879.985 238.095 878.662 237.627 877.674 236.692C876.685 235.757 876.191 234.504 876.191 232.935C876.191 231.122 876.799 229.746 878.015 228.806C879.232 227.867 881.017 227.397 883.372 227.397L886.962 227.397L886.962 226.975C886.952 225.677 886.623 224.734 885.974 224.148C885.324 223.562 884.287 223.268 882.863 223.268C881.952 223.268 881.032 223.399 880.101 223.661C879.171 223.923 878.265 224.305 877.383 224.809L877.383 222.135C878.372 221.757 879.319 221.473 880.225 221.284C881.131 221.095 882.01 221.001 882.863 221.001C884.21 221.001 885.361 221.2 886.315 221.597C887.27 221.994 888.042 222.59 888.634 223.385C889.002 223.869 889.263 224.468 889.418 225.18C889.574 225.892 889.651 226.96 889.651 228.385Z"/>
<path d="M908.969 224.751C908.397 224.305 907.815 223.981 907.224 223.777C906.633 223.574 905.984 223.472 905.277 223.472C903.61 223.472 902.336 223.995 901.454 225.042C900.572 226.088 900.131 227.6 900.131 229.577L900.131 237.673L897.442 237.673L897.442 221.393L900.131 221.393L900.131 224.577C900.577 223.424 901.262 222.539 902.188 221.924C903.113 221.309 904.211 221.001 905.48 221.001C906.139 221.001 906.754 221.083 907.326 221.248C907.898 221.413 908.445 221.67 908.969 222.018L908.969 224.751Z"/>
<path d="M926.382 228.196L926.382 229.504L914.797 229.504L914.797 229.591C914.72 231.81 915.144 233.405 916.069 234.374C916.995 235.343 918.3 235.827 919.986 235.827C920.839 235.827 921.731 235.691 922.661 235.42C923.591 235.149 924.584 234.737 925.641 234.185L925.641 236.845C924.623 237.261 923.642 237.574 922.697 237.782C921.752 237.99 920.839 238.095 919.957 238.095C917.428 238.095 915.451 237.336 914.027 235.82C912.602 234.303 911.89 232.213 911.89 229.548C911.89 226.951 912.588 224.877 913.983 223.327C915.379 221.776 917.239 221.001 919.565 221.001C921.639 221.001 923.274 221.704 924.471 223.109C925.667 224.514 926.304 226.209 926.382 228.196ZM923.708 227.411C923.591 226.287 923.182 225.316 922.479 224.497C921.777 223.678 920.767 223.268 919.449 223.268C918.16 223.268 917.099 223.695 916.265 224.548C915.432 225.4 914.977 226.36 914.899 227.426L923.708 227.411Z"/>
<path d="M943.301 227.586L943.301 237.673L940.612 237.673L940.612 227.586C940.612 226.122 940.355 225.047 939.842 224.359C939.328 223.671 938.524 223.327 937.429 223.327C936.179 223.327 935.217 223.77 934.544 224.657C933.87 225.543 933.533 226.815 933.533 228.472L933.533 237.673L930.859 237.673L930.859 221.393L933.533 221.393L933.533 223.835C934.008 222.905 934.653 222.2 935.467 221.72C936.281 221.241 937.245 221.001 938.359 221.001C940.016 221.001 941.254 221.546 942.073 222.636C942.892 223.726 943.301 225.376 943.301 227.586Z"/>
<path d="M954.871 216.771L954.871 221.393L960.947 221.393L960.947 223.472L954.871 223.472L954.871 232.31C954.871 233.511 955.099 234.349 955.555 234.824C956.01 235.299 956.805 235.536 957.938 235.536L960.947 235.536L960.947 237.673L957.677 237.673C955.671 237.673 954.256 237.271 953.432 236.467C952.609 235.662 952.197 234.277 952.197 232.31L952.197 223.472L947.851 223.472L947.851 221.393L952.197 221.393L952.197 216.771L954.871 216.771Z"/>
<path d="M721.912 257.921C720.556 257.921 719.529 258.449 718.831 259.505C718.133 260.562 717.784 262.126 717.784 264.2C717.784 266.264 718.133 267.827 718.831 268.888C719.529 269.949 720.556 270.48 721.912 270.48C723.279 270.48 724.311 269.949 725.008 268.888C725.706 267.827 726.055 266.264 726.055 264.2C726.055 262.126 725.706 260.562 725.008 259.505C724.311 258.449 723.279 257.921 721.912 257.921ZM721.912 255.653C724.17 255.653 725.897 256.385 727.094 257.848C728.291 259.311 728.889 261.429 728.889 264.2C728.889 266.981 728.293 269.101 727.101 270.559C725.91 272.018 724.18 272.747 721.912 272.747C719.654 272.747 717.93 272.018 716.738 270.559C715.546 269.101 714.95 266.981 714.95 264.2C714.95 261.429 715.546 259.311 716.738 257.848C717.93 256.385 719.654 255.653 721.912 255.653Z"/>
<path d="M747.131 256.046L741.303 263.837L747.698 272.326L744.602 272.326L739.834 265.799L735.081 272.326L731.985 272.326L738.381 263.837L732.552 256.046L735.517 256.046L739.834 261.933L744.122 256.046L747.131 256.046Z"/>
<path d="M761.274 267.093C760.828 268.227 760.262 269.719 759.574 271.57C758.614 274.128 757.97 275.688 757.64 276.25C757.195 277.006 756.637 277.573 755.969 277.951C755.3 278.329 754.52 278.518 753.629 278.518L751.477 278.518L751.477 276.279L753.062 276.279C753.847 276.279 754.462 276.051 754.908 275.596C755.353 275.141 755.92 273.963 756.608 272.064L750.315 256.046L753.149 256.046L757.975 268.779L762.728 256.046L765.562 256.046L761.274 267.093Z"/>
<path d="M779.196 258.124L779.196 249.708L781.871 249.708L781.871 272.326L779.196 272.326L779.196 270.276C778.751 271.08 778.157 271.693 777.416 272.115C776.674 272.536 775.819 272.747 774.85 272.747C772.883 272.747 771.335 271.984 770.206 270.458C769.077 268.931 768.513 266.826 768.513 264.142C768.513 261.497 769.08 259.42 770.214 257.914C771.347 256.407 772.893 255.653 774.85 255.653C775.829 255.653 776.691 255.864 777.438 256.286C778.184 256.707 778.77 257.32 779.196 258.124ZM771.333 264.2C771.333 266.274 771.662 267.839 772.321 268.895C772.98 269.951 773.954 270.48 775.243 270.48C776.532 270.48 777.513 269.947 778.186 268.881C778.86 267.815 779.196 266.255 779.196 264.2C779.196 262.136 778.86 260.574 778.186 259.513C777.513 258.451 776.532 257.921 775.243 257.921C773.954 257.921 772.98 258.449 772.321 259.505C771.662 260.562 771.333 262.126 771.333 264.2Z"/>
<path d="M800.927 262.848L800.927 264.157L789.342 264.157L789.342 264.244C789.265 266.463 789.689 268.057 790.614 269.026C791.539 269.995 792.845 270.48 794.531 270.48C795.384 270.48 796.276 270.344 797.206 270.073C798.136 269.801 799.129 269.389 800.186 268.837L800.186 271.497C799.168 271.914 798.187 272.226 797.242 272.435C796.297 272.643 795.384 272.747 794.502 272.747C791.973 272.747 789.996 271.989 788.572 270.472C787.147 268.956 786.435 266.865 786.435 264.2C786.435 261.603 787.133 259.53 788.528 257.979C789.924 256.429 791.784 255.653 794.11 255.653C796.183 255.653 797.819 256.356 799.015 257.761C800.212 259.166 800.849 260.862 800.927 262.848ZM798.252 262.064C798.136 260.939 797.727 259.968 797.024 259.149C796.322 258.33 795.311 257.921 793.993 257.921C792.705 257.921 791.644 258.347 790.81 259.2C789.977 260.053 789.521 261.012 789.444 262.078L798.252 262.064ZM795.839 248.517L798.717 248.517L793.993 253.982L791.755 253.982L795.839 248.517Z"/>
</g>
<g fill="#04c6ef" opacity="1" stroke="none">
<path d="M710.756 130.674L713.707 130.674L713.707 138.988L721.745 138.988L721.745 130.674L724.696 130.674L724.696 152.375L721.745 152.375L721.745 141.459L713.707 141.459L713.707 152.375L710.756 152.375L710.756 130.674Z"/>
<path d="M729.521 146.212L729.521 136.125L732.196 136.125L732.196 146.212C732.196 147.675 732.455 148.751 732.974 149.439C733.492 150.127 734.294 150.471 735.379 150.471C736.639 150.471 737.603 150.028 738.272 149.141C738.94 148.254 739.275 146.983 739.275 145.326L739.275 136.125L741.964 136.125L741.964 152.375L739.275 152.375L739.275 149.933C738.8 150.873 738.153 151.585 737.334 152.07C736.515 152.555 735.559 152.797 734.464 152.797C732.797 152.797 731.556 152.252 730.742 151.162C729.928 150.071 729.521 148.422 729.521 146.212Z"/>
<path d="M754.435 137.753C754.765 137.055 755.184 136.539 755.692 136.205C756.201 135.87 756.814 135.703 757.531 135.703C758.839 135.703 759.762 136.209 760.3 137.222C760.838 138.235 761.107 140.141 761.107 142.942L761.107 152.375L758.665 152.375L758.665 143.058C758.665 140.761 758.537 139.335 758.28 138.777C758.023 138.22 757.555 137.942 756.877 137.942C756.102 137.942 755.571 138.24 755.285 138.835C755 139.431 754.857 140.839 754.857 143.058L754.857 152.375L752.415 152.375L752.415 143.058C752.415 140.732 752.277 139.298 752 138.756C751.724 138.213 751.228 137.942 750.511 137.942C749.803 137.942 749.311 138.24 749.035 138.835C748.759 139.431 748.621 140.839 748.621 143.058L748.621 152.375L746.194 152.375L746.194 136.096L748.621 136.096L748.621 137.491C748.941 136.91 749.34 136.466 749.82 136.161C750.3 135.856 750.845 135.703 751.455 135.703C752.192 135.703 752.805 135.873 753.294 136.212C753.783 136.551 754.164 137.065 754.435 137.753Z"/>
<path d="M767.125 136.154L773.971 136.154L773.971 150.297L779.276 150.297L779.276 152.375L765.991 152.375L765.991 150.297L771.296 150.297L771.296 138.232L767.125 138.232L767.125 136.154ZM771.296 129.831L773.971 129.831L773.971 133.203L771.296 133.203L771.296 129.831Z"/>
<path d="M792.925 138.174L792.925 129.758L795.599 129.758L795.599 152.375L792.925 152.375L792.925 150.326C792.479 151.13 791.886 151.743 791.144 152.164C790.403 152.586 789.548 152.797 788.579 152.797C786.612 152.797 785.064 152.034 783.935 150.507C782.806 148.981 782.241 146.876 782.241 144.192C782.241 141.546 782.808 139.47 783.942 137.963C785.076 136.457 786.621 135.703 788.579 135.703C789.558 135.703 790.42 135.914 791.166 136.335C791.912 136.757 792.499 137.37 792.925 138.174ZM785.061 144.25C785.061 146.324 785.391 147.889 786.05 148.945C786.709 150.001 787.683 150.529 788.971 150.529C790.26 150.529 791.241 149.996 791.915 148.93C792.588 147.864 792.925 146.304 792.925 144.25C792.925 142.186 792.588 140.623 791.915 139.562C791.241 138.501 790.26 137.971 788.971 137.971C787.683 137.971 786.709 138.499 786.05 139.555C785.391 140.611 785.061 142.176 785.061 144.25Z"/>
<path d="M802.969 136.154L809.815 136.154L809.815 150.297L815.121 150.297L815.121 152.375L801.835 152.375L801.835 150.297L807.141 150.297L807.141 138.232L802.969 138.232L802.969 136.154ZM807.141 129.831L809.815 129.831L809.815 133.203L807.141 133.203L807.141 129.831Z"/>
<path d="M825.223 131.473L825.223 136.096L831.298 136.096L831.298 138.174L825.223 138.174L825.223 147.012C825.223 148.213 825.45 149.051 825.906 149.526C826.361 150.001 827.156 150.239 828.29 150.239L831.298 150.239L831.298 152.375L828.028 152.375C826.022 152.375 824.607 151.973 823.784 151.169C822.96 150.364 822.548 148.979 822.548 147.012L822.548 138.174L818.202 138.174L818.202 136.096L822.548 136.096L822.548 131.473L825.223 131.473Z"/>
<path d="M850.5 142.898L850.5 144.206L838.915 144.206L838.915 144.294C838.837 146.513 839.261 148.107 840.187 149.076C841.112 150.045 842.418 150.529 844.104 150.529C844.957 150.529 845.848 150.394 846.779 150.122C847.709 149.851 848.702 149.439 849.758 148.887L849.758 151.547C848.741 151.963 847.76 152.276 846.815 152.484C845.87 152.693 844.957 152.797 844.075 152.797C841.546 152.797 839.569 152.038 838.145 150.522C836.72 149.005 836.008 146.915 836.008 144.25C836.008 141.653 836.706 139.579 838.101 138.029C839.496 136.478 841.357 135.703 843.683 135.703C845.756 135.703 847.392 136.406 848.588 137.811C849.785 139.216 850.422 140.912 850.5 142.898ZM847.825 142.113C847.709 140.989 847.3 140.018 846.597 139.199C845.894 138.38 844.884 137.971 843.566 137.971C842.278 137.971 841.216 138.397 840.383 139.25C839.55 140.102 839.094 141.062 839.017 142.128L847.825 142.113ZM845.412 128.566L848.29 128.566L843.566 134.032L841.328 134.032L845.412 128.566Z"/>
</g>
<g fill="#04c6ef" opacity="1" stroke="none">
<path d="M718.165 338.959L731.044 338.959L731.044 341.43L721.102 341.43L721.102 347.273L730.608 347.273L730.608 349.744L721.102 349.744L721.102 358.189L731.32 358.189L731.32 360.66L718.165 360.66L718.165 338.959Z"/>
<path d="M748.675 338.043L748.675 340.267L745.637 340.267C744.678 340.267 744.012 340.463 743.639 340.856C743.266 341.248 743.079 341.944 743.079 342.942L743.079 344.381L748.675 344.381L748.675 346.459L743.079 346.459L743.079 360.66L740.405 360.66L740.405 346.459L736.058 346.459L736.058 344.381L740.405 344.381L740.405 343.247C740.405 341.464 740.814 340.151 741.633 339.308C742.452 338.465 743.728 338.043 745.463 338.043L748.675 338.043Z"/>
<path d="M766.597 338.043L766.597 340.267L763.559 340.267C762.6 340.267 761.934 340.463 761.561 340.856C761.188 341.248 761.001 341.944 761.001 342.942L761.001 344.381L766.597 344.381L766.597 346.459L761.001 346.459L761.001 360.66L758.327 360.66L758.327 346.459L753.981 346.459L753.981 344.381L758.327 344.381L758.327 343.247C758.327 341.464 758.736 340.151 759.555 339.308C760.374 338.465 761.651 338.043 763.385 338.043L766.597 338.043Z"/>
<path d="M779.519 354.774C779.519 355.975 779.74 356.881 780.181 357.492C780.622 358.102 781.273 358.407 782.136 358.407L785.261 358.407L785.261 360.66L781.874 360.66C780.275 360.66 779.037 360.149 778.16 359.127C777.283 358.105 776.845 356.653 776.845 354.774L776.845 340.049L772.557 340.049L772.557 337.956L779.519 337.956L779.519 354.774Z"/>
<path d="M795.944 346.256C794.588 346.256 793.561 346.784 792.863 347.84C792.165 348.896 791.816 350.461 791.816 352.535C791.816 354.599 792.165 356.162 792.863 357.223C793.561 358.284 794.588 358.814 795.944 358.814C797.311 358.814 798.343 358.284 799.04 357.223C799.738 356.162 800.087 354.599 800.087 352.535C800.087 350.461 799.738 348.896 799.04 347.84C798.343 346.784 797.311 346.256 795.944 346.256ZM795.944 343.988C798.202 343.988 799.93 344.72 801.126 346.183C802.323 347.646 802.921 349.764 802.921 352.535C802.921 355.316 802.325 357.436 801.134 358.894C799.942 360.353 798.212 361.082 795.944 361.082C793.687 361.082 791.962 360.353 790.77 358.894C789.578 357.436 788.982 355.316 788.982 352.535C788.982 349.764 789.578 347.646 790.77 346.183C791.962 344.72 793.687 343.988 795.944 343.988Z"/>
<path d="M821.701 347.738C821.129 347.293 820.548 346.968 819.957 346.765C819.366 346.561 818.717 346.459 818.009 346.459C816.342 346.459 815.068 346.983 814.186 348.029C813.305 349.076 812.864 350.587 812.864 352.564L812.864 360.66L810.175 360.66L810.175 344.381L812.864 344.381L812.864 347.564C813.309 346.411 813.995 345.527 814.92 344.911C815.846 344.296 816.943 343.988 818.213 343.988C818.872 343.988 819.487 344.071 820.059 344.235C820.63 344.4 821.178 344.657 821.701 345.006L821.701 347.738Z"/>
<path d="M839.115 351.183L839.115 352.491L827.53 352.491L827.53 352.579C827.452 354.798 827.876 356.392 828.802 357.361C829.727 358.33 831.033 358.814 832.719 358.814C833.572 358.814 834.463 358.679 835.394 358.407C836.324 358.136 837.317 357.724 838.373 357.172L838.373 359.832C837.356 360.249 836.375 360.561 835.43 360.769C834.485 360.978 833.572 361.082 832.69 361.082C830.161 361.082 828.184 360.324 826.759 358.807C825.335 357.291 824.623 355.2 824.623 352.535C824.623 349.938 825.32 347.864 826.716 346.314C828.111 344.764 829.972 343.988 832.297 343.988C834.371 343.988 836.006 344.691 837.203 346.096C838.4 347.501 839.037 349.197 839.115 351.183ZM836.44 350.398C836.324 349.274 835.914 348.303 835.212 347.484C834.509 346.665 833.499 346.256 832.181 346.256C830.892 346.256 829.831 346.682 828.998 347.535C828.165 348.388 827.709 349.347 827.632 350.413L836.44 350.398Z"/>
<path d="M854.9 344.948L854.9 347.564C854.135 347.118 853.364 346.784 852.589 346.561C851.814 346.338 851.024 346.227 850.22 346.227C849.008 346.227 848.105 346.423 847.509 346.815C846.913 347.208 846.615 347.806 846.615 348.611C846.615 349.337 846.838 349.88 847.283 350.239C847.729 350.597 848.839 350.946 850.612 351.285L851.688 351.489C853.015 351.741 854.021 352.244 854.704 353C855.387 353.756 855.729 354.74 855.729 355.951C855.729 357.56 855.157 358.817 854.013 359.723C852.87 360.629 851.281 361.082 849.246 361.082C848.441 361.082 847.598 360.997 846.717 360.828C845.835 360.658 844.88 360.404 843.853 360.064L843.853 357.303C844.851 357.816 845.806 358.201 846.717 358.458C847.627 358.715 848.49 358.843 849.304 358.843C850.486 358.843 851.402 358.604 852.051 358.124C852.7 357.644 853.025 356.973 853.025 356.111C853.025 354.87 851.838 354.013 849.464 353.538L849.348 353.509L848.345 353.305C846.804 353.005 845.68 352.499 844.972 351.787C844.265 351.074 843.911 350.103 843.911 348.872C843.911 347.312 844.439 346.108 845.496 345.26C846.552 344.412 848.059 343.988 850.016 343.988C850.888 343.988 851.726 344.068 852.531 344.228C853.335 344.388 854.125 344.628 854.9 344.948Z"/>
<path d="M874.101 359.832C873.384 360.249 872.645 360.561 871.885 360.769C871.124 360.978 870.346 361.082 869.552 361.082C867.032 361.082 865.063 360.326 863.643 358.814C862.223 357.303 861.514 355.21 861.514 352.535C861.514 349.861 862.223 347.767 863.643 346.256C865.063 344.744 867.032 343.988 869.552 343.988C870.337 343.988 871.102 344.09 871.848 344.294C872.594 344.497 873.345 344.812 874.101 345.238L874.101 348.044C873.394 347.414 872.684 346.958 871.972 346.677C871.26 346.396 870.453 346.256 869.552 346.256C867.875 346.256 866.587 346.798 865.685 347.884C864.784 348.969 864.334 350.52 864.334 352.535C864.334 354.541 864.787 356.089 865.693 357.179C866.599 358.269 867.885 358.814 869.552 358.814C870.482 358.814 871.315 358.671 872.052 358.386C872.788 358.1 873.471 357.656 874.101 357.056L874.101 359.832Z"/>
<path d="M892.881 351.183L892.881 352.491L881.296 352.491L881.296 352.579C881.219 354.798 881.643 356.392 882.568 357.361C883.494 358.33 884.799 358.814 886.486 358.814C887.338 358.814 888.23 358.679 889.16 358.407C890.09 358.136 891.084 357.724 892.14 357.172L892.14 359.832C891.122 360.249 890.141 360.561 889.196 360.769C888.252 360.978 887.338 361.082 886.456 361.082C883.927 361.082 881.95 360.324 880.526 358.807C879.102 357.291 878.389 355.2 878.389 352.535C878.389 349.938 879.087 347.864 880.482 346.314C881.878 344.764 883.738 343.988 886.064 343.988C888.138 343.988 889.773 344.691 890.97 346.096C892.166 347.501 892.804 349.197 892.881 351.183ZM890.207 350.398C890.09 349.274 889.681 348.303 888.978 347.484C888.276 346.665 887.266 346.256 885.948 346.256C884.659 346.256 883.598 346.682 882.764 347.535C881.931 348.388 881.476 349.347 881.398 350.413L890.207 350.398Z"/>
<path d="M909.8 350.573L909.8 360.66L907.111 360.66L907.111 350.573C907.111 349.11 906.854 348.034 906.341 347.346C905.827 346.658 905.023 346.314 903.928 346.314C902.678 346.314 901.716 346.757 901.043 347.644C900.369 348.531 900.033 349.802 900.033 351.459L900.033 360.66L897.358 360.66L897.358 344.381L900.033 344.381L900.033 346.823C900.507 345.892 901.152 345.187 901.966 344.708C902.78 344.228 903.744 343.988 904.858 343.988C906.515 343.988 907.753 344.533 908.572 345.624C909.391 346.714 909.8 348.363 909.8 350.573Z"/>
<path d="M927.868 359.832C927.151 360.249 926.412 360.561 925.651 360.769C924.89 360.978 924.113 361.082 923.318 361.082C920.799 361.082 918.829 360.326 917.41 358.814C915.99 357.303 915.28 355.21 915.28 352.535C915.28 349.861 915.99 347.767 917.41 346.256C918.829 344.744 920.799 343.988 923.318 343.988C924.103 343.988 924.869 344.09 925.615 344.294C926.361 344.497 927.112 344.812 927.868 345.238L927.868 348.044C927.16 347.414 926.451 346.958 925.738 346.677C925.026 346.396 924.219 346.256 923.318 346.256C921.642 346.256 920.353 346.798 919.452 347.884C918.551 348.969 918.1 350.52 918.1 352.535C918.1 354.541 918.553 356.089 919.459 357.179C920.365 358.269 921.652 358.814 923.318 358.814C924.249 358.814 925.082 358.671 925.818 358.386C926.555 358.1 927.238 357.656 927.868 357.056L927.868 359.832Z"/>
<path d="M946.648 351.183L946.648 352.491L935.063 352.491L935.063 352.579C934.985 354.798 935.409 356.392 936.335 357.361C937.26 358.33 938.566 358.814 940.252 358.814C941.105 358.814 941.996 358.679 942.927 358.407C943.857 358.136 944.85 357.724 945.906 357.172L945.906 359.832C944.889 360.249 943.908 360.561 942.963 360.769C942.018 360.978 941.105 361.082 940.223 361.082C937.694 361.082 935.717 360.324 934.292 358.807C932.868 357.291 932.156 355.2 932.156 352.535C932.156 349.938 932.853 347.864 934.249 346.314C935.644 344.764 937.505 343.988 939.83 343.988C941.904 343.988 943.539 344.691 944.736 346.096C945.933 347.501 946.57 349.197 946.648 351.183ZM943.973 350.398C943.857 349.274 943.447 348.303 942.745 347.484C942.042 346.665 941.032 346.256 939.714 346.256C938.425 346.256 937.364 346.682 936.531 347.535C935.698 348.388 935.242 349.347 935.165 350.413L943.973 350.398Z"/>
</g>
<g fill="#ef0404" opacity="1" stroke="none">
<path d="M291.163 325.32L303.94 325.32L303.94 327.791L294.114 327.791L294.114 333.605L303.024 333.605L303.024 336.076L294.114 336.076L294.114 347.021L291.163 347.021L291.163 325.32Z"/>
<path d="M322.487 334.099C321.915 333.654 321.334 333.329 320.743 333.125C320.152 332.922 319.503 332.82 318.795 332.82C317.128 332.82 315.854 333.343 314.972 334.39C314.091 335.437 313.65 336.948 313.65 338.925L313.65 347.021L310.961 347.021L310.961 330.742L313.65 330.742L313.65 333.925C314.095 332.772 314.781 331.887 315.706 331.272C316.632 330.657 317.729 330.349 318.999 330.349C319.658 330.349 320.273 330.432 320.845 330.596C321.416 330.761 321.964 331.018 322.487 331.367L322.487 334.099Z"/>
<path d="M333.825 338.838L332.938 338.838C331.378 338.838 330.203 339.112 329.413 339.659C328.624 340.207 328.229 341.023 328.229 342.108C328.229 343.087 328.524 343.848 329.115 344.39C329.706 344.933 330.525 345.204 331.572 345.204C333.045 345.204 334.203 344.693 335.046 343.671C335.889 342.649 336.315 341.236 336.325 339.434L336.325 338.838L333.825 338.838ZM339.014 337.733L339.014 347.021L336.325 347.021L336.325 344.608C335.753 345.577 335.034 346.292 334.166 346.752C333.299 347.213 332.245 347.443 331.005 347.443C329.348 347.443 328.025 346.975 327.037 346.04C326.048 345.105 325.554 343.853 325.554 342.283C325.554 340.471 326.162 339.095 327.378 338.155C328.594 337.215 330.38 336.745 332.735 336.745L336.325 336.745L336.325 336.323C336.315 335.025 335.986 334.082 335.336 333.496C334.687 332.91 333.65 332.617 332.226 332.617C331.315 332.617 330.394 332.747 329.464 333.009C328.534 333.271 327.628 333.654 326.746 334.157L326.746 331.483C327.734 331.105 328.682 330.822 329.588 330.633C330.494 330.444 331.373 330.349 332.226 330.349C333.573 330.349 334.724 330.548 335.678 330.945C336.633 331.342 337.405 331.938 337.996 332.733C338.365 333.217 338.626 333.816 338.781 334.528C338.936 335.24 339.014 336.309 339.014 337.733Z"/>
<path d="M356.965 346.193C356.248 346.609 355.509 346.922 354.749 347.13C353.988 347.339 353.21 347.443 352.416 347.443C349.896 347.443 347.927 346.687 346.507 345.175C345.087 343.664 344.377 341.57 344.377 338.896C344.377 336.221 345.087 334.128 346.507 332.617C347.927 331.105 349.896 330.349 352.416 330.349C353.2 330.349 353.966 330.451 354.712 330.654C355.458 330.858 356.209 331.173 356.965 331.599L356.965 334.405C356.258 333.775 355.548 333.319 354.836 333.038C354.123 332.757 353.317 332.617 352.416 332.617C350.739 332.617 349.45 333.159 348.549 334.245C347.648 335.33 347.197 336.88 347.197 338.896C347.197 340.902 347.65 342.45 348.556 343.54C349.462 344.63 350.749 345.175 352.416 345.175C353.346 345.175 354.179 345.032 354.916 344.746C355.652 344.461 356.335 344.017 356.965 343.416L356.965 346.193Z"/>
<path d="M368.39 326.119L368.39 330.742L374.466 330.742L374.466 332.82L368.39 332.82L368.39 341.658C368.39 342.859 368.618 343.698 369.073 344.172C369.529 344.647 370.323 344.885 371.457 344.885L374.466 344.885L374.466 347.021L371.195 347.021C369.189 347.021 367.775 346.619 366.951 345.815C366.127 345.011 365.715 343.625 365.715 341.658L365.715 332.82L361.369 332.82L361.369 330.742L365.715 330.742L365.715 326.119L368.39 326.119Z"/>
<path d="M380.222 340.858L380.222 330.771L382.896 330.771L382.896 340.858C382.896 342.321 383.156 343.397 383.674 344.085C384.192 344.773 384.994 345.117 386.08 345.117C387.339 345.117 388.304 344.674 388.972 343.787C389.641 342.9 389.975 341.629 389.975 339.972L389.975 330.771L392.664 330.771L392.664 347.021L389.975 347.021L389.975 344.579C389.5 345.519 388.853 346.232 388.035 346.716C387.216 347.201 386.259 347.443 385.164 347.443C383.497 347.443 382.257 346.898 381.443 345.808C380.629 344.717 380.222 343.068 380.222 340.858Z"/>
<path d="M412.098 334.099C411.526 333.654 410.945 333.329 410.354 333.125C409.763 332.922 409.113 332.82 408.406 332.82C406.739 332.82 405.465 333.343 404.583 334.39C403.701 335.437 403.26 336.948 403.26 338.925L403.26 347.021L400.571 347.021L400.571 330.742L403.26 330.742L403.26 333.925C403.706 332.772 404.392 331.887 405.317 331.272C406.243 330.657 407.34 330.349 408.609 330.349C409.268 330.349 409.884 330.432 410.455 330.596C411.027 330.761 411.575 331.018 412.098 331.367L412.098 334.099Z"/>
<path d="M429.511 337.544L429.511 338.852L417.927 338.852L417.927 338.94C417.849 341.159 418.273 342.753 419.199 343.722C420.124 344.691 421.43 345.175 423.116 345.175C423.969 345.175 424.86 345.04 425.79 344.768C426.721 344.497 427.714 344.085 428.77 343.533L428.77 346.193C427.753 346.609 426.771 346.922 425.827 347.13C424.882 347.339 423.969 347.443 423.087 347.443C420.558 347.443 418.581 346.685 417.156 345.168C415.732 343.651 415.02 341.561 415.02 338.896C415.02 336.299 415.717 334.225 417.113 332.675C418.508 331.124 420.369 330.349 422.694 330.349C424.768 330.349 426.403 331.052 427.6 332.457C428.797 333.862 429.434 335.558 429.511 337.544ZM426.837 336.759C426.721 335.635 426.311 334.664 425.609 333.845C424.906 333.026 423.896 332.617 422.578 332.617C421.289 332.617 420.228 333.043 419.395 333.896C418.561 334.749 418.106 335.708 418.028 336.774L426.837 336.759Z"/>
</g>
<path d="M173.252 464.516L155.012 437.833L177.884 450.619L161.96 415.319L179.911 430.05L184.253 405.313L193.229 445.06L201.625 428.105L205.678 452.564L198.73 465.072" fill="none" opacity="0.498077" stroke="#ffd02f" stroke-dasharray="0.0,0.5429999828338623" stroke-linecap="round" stroke-linejoin="round" stroke-width="3"/>
<g fill="#ffd02f" opacity="0.498077" stroke="none">
<path d="M297.622 442.56L302.757 423.202L305.816 423.202L299.421 445.047L295.837 445.047L289.443 423.202L292.501 423.202L297.622 442.56Z"/>
<path d="M323.037 435.507L323.037 436.824L311.376 436.824L311.376 436.912C311.298 439.146 311.724 440.751 312.656 441.726C313.587 442.701 314.902 443.189 316.599 443.189C317.458 443.189 318.355 443.053 319.291 442.779C320.228 442.506 321.228 442.092 322.291 441.536L322.291 444.213C321.267 444.633 320.279 444.947 319.328 445.157C318.377 445.367 317.458 445.472 316.57 445.472C314.024 445.472 312.034 444.708 310.6 443.182C309.166 441.655 308.449 439.551 308.449 436.868C308.449 434.254 309.152 432.167 310.556 430.606C311.961 429.045 313.834 428.265 316.175 428.265C318.262 428.265 319.908 428.972 321.113 430.386C322.318 431.801 322.959 433.508 323.037 435.507ZM320.345 434.717C320.228 433.586 319.816 432.608 319.109 431.784C318.401 430.959 317.384 430.547 316.058 430.547C314.76 430.547 313.692 430.976 312.853 431.835C312.015 432.693 311.556 433.659 311.478 434.732L320.345 434.717ZM317.916 421.08L320.813 421.08L316.058 426.582L313.805 426.582L317.916 421.08Z"/>
<path d="M337.245 436.722C337.245 434.703 336.915 433.169 336.257 432.12C335.599 431.072 334.64 430.547 333.382 430.547C332.065 430.547 331.06 431.072 330.368 432.12C329.675 433.169 329.329 434.703 329.329 436.722C329.329 438.741 329.678 440.28 330.375 441.338C331.072 442.397 332.085 442.926 333.411 442.926C334.65 442.926 335.599 442.394 336.257 441.331C336.915 440.268 337.245 438.731 337.245 436.722ZM339.937 443.994C339.937 446.452 339.357 448.315 338.196 449.583C337.035 450.851 335.328 451.485 333.075 451.485C332.333 451.485 331.558 451.417 330.748 451.281C329.939 451.144 329.129 450.944 328.319 450.681L328.319 448.018C329.275 448.466 330.143 448.798 330.924 449.013C331.704 449.227 332.421 449.335 333.075 449.335C334.528 449.335 335.586 448.939 336.25 448.149C336.913 447.359 337.245 446.106 337.245 444.389L337.245 444.272L337.245 442.443C336.815 443.36 336.23 444.043 335.489 444.491C334.748 444.94 333.845 445.164 332.782 445.164C330.87 445.164 329.343 444.399 328.202 442.867C327.061 441.336 326.49 439.287 326.49 436.722C326.49 434.147 327.061 432.093 328.202 430.562C329.343 429.03 330.87 428.265 332.782 428.265C333.835 428.265 334.728 428.474 335.46 428.894C336.191 429.313 336.786 429.962 337.245 430.84L337.245 428.718L339.937 428.718L339.937 443.994Z"/>
<path d="M359.119 435.507L359.119 436.824L347.458 436.824L347.458 436.912C347.38 439.146 347.806 440.751 348.738 441.726C349.67 442.701 350.984 443.189 352.681 443.189C353.54 443.189 354.437 443.053 355.374 442.779C356.31 442.506 357.31 442.092 358.373 441.536L358.373 444.213C357.349 444.633 356.361 444.947 355.41 445.157C354.459 445.367 353.54 445.472 352.652 445.472C350.106 445.472 348.116 444.708 346.682 443.182C345.248 441.655 344.531 439.551 344.531 436.868C344.531 434.254 345.234 432.167 346.638 430.606C348.043 429.045 349.916 428.265 352.257 428.265C354.344 428.265 355.99 428.972 357.195 430.386C358.4 431.801 359.041 433.508 359.119 435.507ZM356.427 434.717C356.31 433.586 355.898 432.608 355.191 431.784C354.483 430.959 353.466 430.547 352.14 430.547C350.843 430.547 349.774 430.976 348.936 431.835C348.097 432.693 347.638 433.659 347.56 434.732L356.427 434.717ZM353.998 421.08L356.895 421.08L352.14 426.582L349.887 426.582L353.998 421.08Z"/>
<path d="M369.757 424.007L369.757 428.66L375.873 428.66L375.873 430.752L369.757 430.752L369.757 439.648C369.757 440.858 369.986 441.702 370.444 442.18C370.903 442.658 371.703 442.897 372.844 442.897L375.873 442.897L375.873 445.047L372.581 445.047C370.561 445.047 369.137 444.643 368.308 443.833C367.479 443.023 367.064 441.628 367.064 439.648L367.064 430.752L362.689 430.752L362.689 428.66L367.064 428.66L367.064 424.007L369.757 424.007Z"/>
<path d="M389.085 436.81L388.193 436.81C386.622 436.81 385.439 437.085 384.644 437.636C383.849 438.188 383.452 439.009 383.452 440.102C383.452 441.087 383.749 441.853 384.345 442.399C384.94 442.945 385.764 443.218 386.817 443.218C388.3 443.218 389.466 442.704 390.314 441.675C391.163 440.646 391.592 439.224 391.602 437.41L391.602 436.81L389.085 436.81ZM394.309 435.698L394.309 445.047L391.602 445.047L391.602 442.619C391.026 443.594 390.302 444.313 389.429 444.777C388.556 445.24 387.495 445.472 386.247 445.472C384.579 445.472 383.247 445.001 382.252 444.06C381.257 443.118 380.76 441.858 380.76 440.277C380.76 438.453 381.372 437.068 382.596 436.122C383.82 435.176 385.617 434.703 387.988 434.703L391.602 434.703L391.602 434.278C391.592 432.971 391.261 432.023 390.607 431.432C389.953 430.842 388.91 430.547 387.476 430.547C386.559 430.547 385.632 430.679 384.696 430.942C383.759 431.206 382.847 431.591 381.96 432.098L381.96 429.406C382.955 429.026 383.908 428.74 384.82 428.55C385.732 428.36 386.617 428.265 387.476 428.265C388.832 428.265 389.99 428.465 390.951 428.865C391.912 429.265 392.69 429.864 393.285 430.664C393.655 431.152 393.919 431.754 394.075 432.471C394.231 433.188 394.309 434.264 394.309 435.698Z"/>
<path d="M405.839 424.007L405.839 428.66L411.955 428.66L411.955 430.752L405.839 430.752L405.839 439.648C405.839 440.858 406.068 441.702 406.526 442.18C406.985 442.658 407.785 442.897 408.926 442.897L411.955 442.897L411.955 445.047L408.663 445.047C406.643 445.047 405.219 444.643 404.39 443.833C403.561 443.023 403.146 441.628 403.146 439.648L403.146 430.752L398.772 430.752L398.772 428.66L403.146 428.66L403.146 424.007L405.839 424.007Z"/>
<path d="M419.519 428.718L426.411 428.718L426.411 442.955L431.752 442.955L431.752 445.047L418.378 445.047L418.378 442.955L423.719 442.955L423.719 430.811L419.519 430.811L419.519 428.718ZM423.719 422.353L426.411 422.353L426.411 425.748L423.719 425.748L423.719 422.353Z"/>
<path d="M441.95 430.547C440.584 430.547 439.55 431.079 438.848 432.142C438.146 433.205 437.795 434.781 437.795 436.868C437.795 438.946 438.146 440.519 438.848 441.587C439.55 442.655 440.584 443.189 441.95 443.189C443.325 443.189 444.364 442.655 445.067 441.587C445.769 440.519 446.12 438.946 446.12 436.868C446.12 434.781 445.769 433.205 445.067 432.142C444.364 431.079 443.325 430.547 441.95 430.547ZM441.95 428.265C444.223 428.265 445.962 429.001 447.166 430.474C448.371 431.947 448.973 434.078 448.973 436.868C448.973 439.668 448.373 441.802 447.174 443.27C445.974 444.738 444.233 445.472 441.95 445.472C439.677 445.472 437.941 444.738 436.741 443.27C435.541 441.802 434.941 439.668 434.941 436.868C434.941 434.078 435.541 431.947 436.741 430.474C437.941 429.001 439.677 428.265 441.95 428.265Z"/>
<path d="M466.356 434.893L466.356 445.047L463.649 445.047L463.649 434.893C463.649 433.42 463.391 432.337 462.874 431.645C462.357 430.952 461.547 430.606 460.445 430.606C459.186 430.606 458.218 431.052 457.54 431.945C456.862 432.837 456.523 434.117 456.523 435.785L456.523 445.047L453.831 445.047L453.831 428.66L456.523 428.66L456.523 431.118C457.001 430.181 457.65 429.472 458.469 428.989C459.289 428.506 460.259 428.265 461.381 428.265C463.049 428.265 464.295 428.813 465.12 429.911C465.944 431.008 466.356 432.669 466.356 434.893Z"/>
</g>
<path d="M572.136 177.984L549.516 177.984" fill="none" opacity="1" stroke="#000000" stroke-linecap="butt" stroke-linejoin="round" stroke-width="2"/>
<path d="M591.814 177.984L572.136 177.984" fill="none" opacity="1" stroke="#000000" stroke-linecap="butt" stroke-linejoin="round" stroke-width="2"/>
<path d="M613.724 177.984L591.814 177.984" fill="none" opacity="1" stroke="#000000" stroke-linecap="butt" stroke-linejoin="round" stroke-width="2"/>
<path d="M633.2 177.984L613.724 177.984" fill="none" opacity="1" stroke="#000000" stroke-linecap="butt" stroke-linejoin="round" stroke-width="2"/>
<g opacity="1">
<path d="M114.787 146.201L146.968 183.258" fill="none" opacity="1" stroke="#ef0404" stroke-linecap="butt" stroke-linejoin="round" stroke-width="2"/>
<path d="M114.71 173.836L123.727 183.185" fill="none" opacity="1" stroke="#ef0404" stroke-linecap="butt" stroke-linejoin="round" stroke-width="2"/>
<path d="M115.289 123.849L167.701 183.63" fill="none" opacity="1" stroke="#ef0404" stroke-linecap="butt" stroke-linejoin="round" stroke-width="2"/>
<path d="M135.728 122.466L189.314 183.126" fill="none" opacity="1" stroke="#ef0404" stroke-linecap="butt" stroke-linejoin="round" stroke-width="2"/>
<path d="M156.022 123.243L208.874 182.877" fill="none" opacity="1" stroke="#ef0404" stroke-linecap="butt" stroke-linejoin="round" stroke-width="2"/>
<path d="M176.022 123.571L228.141 182.765" fill="none" opacity="1" stroke="#ef0404" stroke-linecap="butt" stroke-linejoin="round" stroke-width="2"/>
<path d="M194.849 123.38L228.786 159.117" fill="none" opacity="1" stroke="#ef0404" stroke-linecap="butt" stroke-linejoin="round" stroke-width="2"/>
<path d="M215.435 122.691L228.554 137.024" fill="none" opacity="1" stroke="#ef0404" stroke-linecap="butt" stroke-linejoin="round" stroke-width="2"/>
<path d="M147.09 182.825L124.47 182.825" fill="none" opacity="1" stroke="#000000" stroke-linecap="butt" stroke-linejoin="round" stroke-width="2"/>
<path d="M166.768 182.825L147.09 182.825" fill="none" opacity="1" stroke="#000000" stroke-linecap="butt" stroke-linejoin="round" stroke-width="2"/>
<path d="M188.678 182.825L166.768 182.825" fill="none" opacity="1" stroke="#000000" stroke-linecap="butt" stroke-linejoin="round" stroke-width="2"/>
<path d="M208.153 182.825L188.678 182.825" fill="none" opacity="1" stroke="#000000" stroke-linecap="butt" stroke-linejoin="round" stroke-width="2"/>
<path d="M228.254 159.664L228.254 182.825L208.153 182.825" fill="none" opacity="1" stroke="#000000" stroke-linecap="butt" stroke-linejoin="round" stroke-width="2"/>
<path d="M228.254 137.044L228.254 159.664" fill="none" opacity="1" stroke="#000000" stroke-linecap="butt" stroke-linejoin="round" stroke-width="2"/>
<path d="M215.355 123.096L228.254 123.096L228.254 137.044" fill="none" opacity="1" stroke="#000000" stroke-linecap="butt" stroke-linejoin="round" stroke-width="2"/>
<path d="M196.285 123.096L215.355 123.096" fill="none" opacity="1" stroke="#000000" stroke-linecap="butt" stroke-linejoin="round" stroke-width="2"/>
<path d="M175.796 123.096L196.285 123.096" fill="none" opacity="1" stroke="#000000" stroke-linecap="butt" stroke-linejoin="round" stroke-width="2"/>
<path d="M155.204 123.096L175.796 123.096" fill="none" opacity="1" stroke="#000000" stroke-linecap="butt" stroke-linejoin="round" stroke-width="2"/>
<path d="M136.642 123.096L155.204 123.096" fill="none" opacity="1" stroke="#000000" stroke-linecap="butt" stroke-linejoin="round" stroke-width="2"/>
<path d="M115.119 123.096L136.642 123.096" fill="none" opacity="1" stroke="#000000" stroke-linecap="butt" stroke-linejoin="round" stroke-width="2"/>
<path d="M115.119 147.593L115.119 123.096" fill="none" opacity="1" stroke="#000000" stroke-linecap="butt" stroke-linejoin="round" stroke-width="2"/>
<path d="M115.119 171.734L115.119 147.593" fill="none" opacity="1" stroke="#000000" stroke-linecap="butt" stroke-linejoin="round" stroke-width="2"/>
<path d="M124.47 182.825L115.119 182.825L115.119 171.734" fill="none" opacity="1" stroke="#000000" stroke-linecap="butt" stroke-linejoin="round" stroke-width="2"/>
<path d="M171.304 141.351L171.045 141.092" fill="none" opacity="1" stroke="#ef0404" stroke-linecap="butt" stroke-linejoin="round" stroke-width="2"/>
</g>
<g opacity="1">
<path d="M539.834 141.361L572.015 178.418" fill="none" opacity="1" stroke="#04c6ef" stroke-linecap="butt" stroke-linejoin="round" stroke-width="2"/>
<path d="M539.756 168.996L548.773 178.344" fill="none" opacity="1" stroke="#04c6ef" stroke-linecap="butt" stroke-linejoin="round" stroke-width="2"/>
<path d="M540.335 119.008L592.748 178.789" fill="none" opacity="1" stroke="#04c6ef" stroke-linecap="butt" stroke-linejoin="round" stroke-width="2"/>
<path d="M560.775 117.626L614.36 178.286" fill="none" opacity="1" stroke="#04c6ef" stroke-linecap="butt" stroke-linejoin="round" stroke-width="2"/>
<path d="M581.068 118.402L633.92 178.036" fill="none" opacity="1" stroke="#04c6ef" stroke-linecap="butt" stroke-linejoin="round" stroke-width="2"/>
<path d="M601.068 118.73L653.187 177.924" fill="none" opacity="1" stroke="#04c6ef" stroke-linecap="butt" stroke-linejoin="round" stroke-width="2"/>
<path d="M619.895 118.539L653.832 154.277" fill="none" opacity="1" stroke="#04c6ef" stroke-linecap="butt" stroke-linejoin="round" stroke-width="2"/>
<path d="M640.482 117.85L653.6 132.183" fill="none" opacity="1" stroke="#04c6ef" stroke-linecap="butt" stroke-linejoin="round" stroke-width="2"/>
<path d="M653.3 154.823L653.3 177.984L633.2 177.984" fill="none" opacity="1" stroke="#000000" stroke-linecap="butt" stroke-linejoin="round" stroke-width="2"/>
<path d="M653.3 132.203L653.3 154.823" fill="none" opacity="1" stroke="#000000" stroke-linecap="butt" stroke-linejoin="round" stroke-width="2"/>
<path d="M640.401 118.255L653.3 118.255L653.3 132.203" fill="none" opacity="1" stroke="#000000" stroke-linecap="butt" stroke-linejoin="round" stroke-width="2"/>
<path d="M621.332 118.255L640.401 118.255" fill="none" opacity="1" stroke="#000000" stroke-linecap="butt" stroke-linejoin="round" stroke-width="2"/>
<path d="M600.842 118.255L621.332 118.255" fill="none" opacity="1" stroke="#000000" stroke-linecap="butt" stroke-linejoin="round" stroke-width="2"/>
<path d="M580.251 118.255L600.842 118.255" fill="none" opacity="1" stroke="#000000" stroke-linecap="butt" stroke-linejoin="round" stroke-width="2"/>
<path d="M561.688 118.255L580.251 118.255" fill="none" opacity="1" stroke="#000000" stroke-linecap="butt" stroke-linejoin="round" stroke-width="2"/>
<path d="M540.166 118.255L561.688 118.255" fill="none" opacity="1" stroke="#000000" stroke-linecap="butt" stroke-linejoin="round" stroke-width="2"/>
<path d="M540.166 142.752L540.166 118.255" fill="none" opacity="1" stroke="#000000" stroke-linecap="butt" stroke-linejoin="round" stroke-width="2"/>
<path d="M540.166 166.894L540.166 142.752" fill="none" opacity="1" stroke="#000000" stroke-linecap="butt" stroke-linejoin="round" stroke-width="2"/>
<path d="M549.516 177.984L540.166 177.984L540.166 166.894" fill="none" opacity="1" stroke="#000000" stroke-linecap="butt" stroke-linejoin="round" stroke-width="2"/>
<path d="M596.35 136.51L596.091 136.251" fill="none" opacity="1" stroke="#ef0404" stroke-linecap="butt" stroke-linejoin="round" stroke-width="2"/>
</g>
<g opacity="1">
<path d="M595.55 225.428L620.463 225.428" fill="none" opacity="1" stroke="#ef0404" stroke-linecap="butt" stroke-linejoin="round" stroke-width="2"/>
<path d="M595.996 267.591L620.909 267.591" fill="none" opacity="1" stroke="#ef0404" stroke-linecap="butt" stroke-linejoin="round" stroke-width="2"/>
<path d="M608.877 226.257L608.877 267.304" fill="none" opacity="1" stroke="#ef0404" stroke-linecap="butt" stroke-linejoin="round" stroke-width="2"/>
</g>
<g opacity="1">
<path d="M598.248 326.89L597.582 378.849" fill="none" opacity="1" stroke="#04c6ef" stroke-linecap="butt" stroke-linejoin="round" stroke-width="2"/>
<path d="M614.955 328.222L614.289 380.181" fill="none" opacity="1" stroke="#04c6ef" stroke-linecap="butt" stroke-linejoin="round" stroke-width="2"/>
<path d="M578.54 342.614L622.515 343.536L635.721 343.812" fill="none" opacity="1" stroke="#04c6ef" stroke-linecap="butt" stroke-linejoin="round" stroke-width="2"/>
<path d="M577.618 362.594L621.592 363.516L634.798 363.793" fill="none" opacity="1" stroke="#04c6ef" stroke-linecap="butt" stroke-linejoin="round" stroke-width="2"/>
</g>
</g>
</svg>
