<?xml version="1.0" encoding="UTF-8" standalone="no"?>
<!DOCTYPE svg PUBLIC "-//W3C//DTD SVG 1.1//EN" "http://www.w3.org/Graphics/SVG/1.1/DTD/svg11.dtd">
<!-- Created with Vectornator (http://vectornator.io/) -->
<svg height="100%" stroke-miterlimit="10" style="fill-rule:nonzero;clip-rule:evenodd;stroke-linecap:round;stroke-linejoin:round;" version="1.1" viewBox="0 0 1200 600" width="100%" xml:space="preserve" xmlns="http://www.w3.org/2000/svg" xmlns:xlink="http://www.w3.org/1999/xlink">
<defs>
<clipPath id="TextBounds">
<rect height="40" width="60" x="172.613" y="416.736"/>
</clipPath>
<clipPath id="TextBounds_2">
<rect height="21.9531" width="35.5107" x="24.8502" y="489.572"/>
</clipPath>
<clipPath id="TextBounds_3">
<rect height="16.7927" width="48.9179" x="920.683" y="543.685"/>
</clipPath>
<clipPath id="TextBounds_4">
<rect height="24.1385" width="92.7733" x="432.962" y="518.996"/>
</clipPath>
<clipPath id="TextBounds_5">
<rect height="21.9531" width="46.3477" x="1041.83" y="340.224"/>
</clipPath>
</defs>
<clipPath id="ArtboardFrame">
<rect height="600" width="1200" x="0" y="0"/>
</clipPath>
<g clip-path="url(#ArtboardFrame)" id="Calque-1">
<g fill="#050038" opacity="0.5" stroke="none">
<path clip-path="url(#TextBounds)" d="M176.161 420.322L183.886 420.322L183.886 421.816L177.945 421.816L177.945 425.332L183.333 425.332L183.333 426.826L177.945 426.826L177.945 433.444L176.161 433.444L176.161 420.322Z" fill-rule="evenodd"/>
<path clip-path="url(#TextBounds)" d="M187.727 423.635L191.867 423.635L191.867 432.187L195.075 432.187L195.075 433.444L187.042 433.444L187.042 432.187L190.25 432.187L190.25 424.892L187.727 424.892L187.727 423.635ZM190.25 419.812L191.867 419.812L191.867 421.851L190.25 421.851L190.25 419.812Z" fill-rule="evenodd"/>
<path clip-path="url(#TextBounds)" d="M199.206 429.893L202.299 429.893L202.299 433.444L199.206 433.444L199.206 429.893Z" fill-rule="evenodd"/>
</g>
<g fill="#050038" opacity="0.5" stroke="none">
<path clip-path="url(#TextBounds_2)" d="M28.7232 504.794L31.483 504.794L31.483 494.88L28.1783 496.471L28.1783 494.766L31.4654 493.201L33.2408 493.201L33.2408 504.794L35.9654 504.794L35.9654 506.28L28.7232 506.28L28.7232 504.794Z" fill-rule="evenodd"/>
<path clip-path="url(#TextBounds_2)" d="M40.4654 504.785L46.4947 504.785L46.4947 506.28L38.523 506.28L38.523 504.785C39.6187 503.631 40.5767 502.612 41.397 501.727C42.2174 500.842 42.7828 500.218 43.0933 499.855C43.6793 499.14 44.0748 498.561 44.2799 498.119C44.4849 497.677 44.5875 497.224 44.5875 496.761C44.5875 496.029 44.3721 495.454 43.9415 495.038C43.5108 494.622 42.9205 494.414 42.1705 494.414C41.6373 494.414 41.0777 494.511 40.4918 494.704C39.9058 494.898 39.2847 495.191 38.6285 495.583L38.6285 493.79C39.232 493.503 39.8253 493.286 40.4083 493.14C40.9913 492.993 41.567 492.92 42.1353 492.92C43.4185 492.92 44.4512 493.262 45.2335 493.944C46.0157 494.627 46.4068 495.522 46.4068 496.629C46.4068 497.192 46.2764 497.754 46.0157 498.317C45.755 498.879 45.3316 499.5 44.7457 500.18C44.4176 500.561 43.9415 501.088 43.3175 501.762C42.6934 502.436 41.7427 503.444 40.4654 504.785Z" fill-rule="evenodd"/>
</g>
<path d="M156.981 381.076C158.178 380.478 161.118 377.913 159.82 378.238C152.776 379.999 147.514 386.001 141.844 390.537C136.383 394.906 118.193 416.131 118.193 423.649C118.193 432.17 134.276 432.553 134.276 441.624C134.276 448.226 125.118 455.202 121.977 459.599C118.823 464.015 117.184 469.439 116.301 474.736C115.813 477.663 120.869 483.71 121.977 487.035C123.979 493.039 123.672 501.487 122.923 507.848C121.508 519.876 113.373 527.965 107.786 538.122C101.546 549.469 96.7287 559.942 92.6493 572.181" fill="none" fill-rule="evenodd" opacity="0.5" stroke="#050038" stroke-dasharray="" stroke-linecap="round" stroke-linejoin="round" stroke-width="3"/>
<path d="M78.132 458.858L63.0695 469.014L48.0695 479.514C44.9841 477.881 41.5272 476.858 37.8195 476.858C25.3679 476.858 15.2883 487.251 15.2883 500.076C15.2882 512.902 25.3679 523.326 37.8195 523.326C50.2711 523.326 60.382 512.902 60.382 500.076C60.382 496.159 59.826 492.938 58.1633 489.701L58.1633 489.701L68.4133 474.233L78.132 458.858Z" fill="none" fill-rule="evenodd" opacity="0.5" stroke="#050038" stroke-dasharray="" stroke-linecap="round" stroke-linejoin="round" stroke-width="3"/>
<g fill="#ff7565" opacity="0.5" stroke="none">
<path clip-path="url(#TextBounds_3)" d="M923.387 547.271L925.171 547.271L925.171 552.298L930.031 552.298L930.031 547.271L931.815 547.271L931.815 560.393L930.031 560.393L930.031 553.792L925.171 553.792L925.171 560.393L923.387 560.393L923.387 547.271Z" fill-rule="evenodd"/>
<path clip-path="url(#TextBounds_3)" d="M934.733 556.666L934.733 550.567L936.351 550.567L936.351 556.666C936.351 557.551 936.507 558.201 936.821 558.617C937.134 559.033 937.619 559.241 938.275 559.241C939.037 559.241 939.62 558.973 940.024 558.437C940.429 557.901 940.631 557.132 940.631 556.13L940.631 550.567L942.257 550.567L942.257 560.393L940.631 560.393L940.631 558.916C940.344 559.484 939.953 559.915 939.457 560.208C938.962 560.501 938.384 560.648 937.722 560.648C936.714 560.648 935.964 560.318 935.472 559.659C934.979 559 934.733 558.002 934.733 556.666Z" fill-rule="evenodd"/>
<path clip-path="url(#TextBounds_3)" d="M947.275 556.842L950.369 556.842L950.369 560.393L947.275 560.393L947.275 556.842Z" fill-rule="evenodd"/>
</g>
<path d="M857.41 507.072C858.264 505.764 857.585 502.767 858.162 501.805C860.622 497.706 865.404 490.682 870.201 488.763C875.544 486.626 882.35 485.642 886.753 481.239C890.585 477.408 893.487 473.001 897.287 469.201C902.169 464.319 908.352 461.039 912.837 455.658C918.774 448.532 921.964 441.22 930.894 437.098C940.615 432.612 960.668 423.322 968.514 435.092C971.516 439.594 968.347 447.797 969.016 453.15C970.565 465.542 966.353 478.453 955.974 486.757C952.328 489.674 948.104 491.849 944.438 494.782C939.284 498.905 935.145 504.284 929.891 508.326C921.944 514.439 912.247 518.45 903.808 523.875C898.772 527.112 882.291 537.915 877.223 538.422C869.307 539.213 858.537 541.454 853.146 533.907C851.037 530.954 850.246 527.104 848.632 523.875C847.943 522.498 846.231 519.434 846.625 517.856C846.853 516.945 856.78 508.035 857.41 507.072Z" fill="none" fill-rule="evenodd" opacity="0.5" stroke="#ff7565" stroke-dasharray="" stroke-linecap="round" stroke-linejoin="round" stroke-width="3"/>
<path d="M857.41 507.573C858.264 506.265 857.585 503.269 858.162 502.306C860.622 498.207 865.404 491.184 870.201 489.265C875.544 487.127 882.35 486.144 886.753 481.741C890.585 477.909 893.487 473.502 897.287 469.702C902.169 464.82 908.352 461.54 912.837 456.159C918.774 449.034 921.964 441.722 930.894 437.6C940.615 433.114 960.668 423.824 968.514 435.594C971.516 440.096 968.347 448.299 969.016 453.651C970.565 466.043 966.353 478.955 955.974 487.258C952.328 490.176 948.104 492.351 944.438 495.284C939.284 499.407 935.145 504.786 929.891 508.827C921.944 514.94 912.247 518.951 903.808 524.377C898.772 527.614 882.291 538.416 877.223 538.923C869.307 539.715 858.537 541.956 853.146 534.409C851.037 531.456 850.246 527.606 848.632 524.377C847.943 522.999 846.231 519.936 846.625 518.358C846.853 517.446 856.78 508.537 857.41 507.573Z" fill="#ff7565" fill-rule="evenodd" opacity="0.5" stroke="none"/>
<g opacity="0.253846">
<path d="M638.831 482.248C635.46 487.652 608.467 530.909 608.467 530.909L498.98 531.501" fill="none" stroke="#050038" stroke-dasharray="30.0,30.0" stroke-linecap="round" stroke-linejoin="round" stroke-width="3"/>
<g fill="#050038" stroke="none">
<path d="M637.442 484.475L642.181 496.715L644.39 473.34L624.365 485.597L637.442 484.475Z" fill="#050038"/>
</g>
</g>
<g fill="#050038" opacity="0.253846" stroke="none">
<path clip-path="url(#TextBounds_4)" d="M437.969 524.041L437.969 528.971L440.026 528.971C440.846 528.971 441.486 528.755 441.946 528.321C442.406 527.887 442.636 527.281 442.636 526.502C442.636 525.722 442.408 525.117 441.951 524.687C441.494 524.256 440.852 524.041 440.026 524.041L437.969 524.041ZM436.194 522.582L440.026 522.582C441.491 522.582 442.601 522.914 443.357 523.579C444.113 524.244 444.491 525.218 444.491 526.502C444.491 527.797 444.114 528.775 443.361 529.437C442.608 530.099 441.497 530.43 440.026 530.43L437.969 530.43L437.969 535.704L436.194 535.704L436.194 522.582Z" fill-rule="evenodd"/>
<path clip-path="url(#TextBounds_4)" d="M451.469 530.756L450.933 530.756C449.99 530.756 449.279 530.921 448.802 531.252C448.324 531.583 448.085 532.077 448.085 532.733C448.085 533.325 448.264 533.785 448.622 534.113C448.979 534.441 449.474 534.605 450.107 534.605C450.998 534.605 451.698 534.296 452.207 533.678C452.717 533.06 452.975 532.206 452.981 531.116L452.981 530.756L451.469 530.756ZM454.607 530.088L454.607 535.704L452.981 535.704L452.981 534.245C452.635 534.831 452.2 535.263 451.676 535.541C451.151 535.82 450.514 535.959 449.764 535.959C448.762 535.959 447.962 535.676 447.365 535.111C446.767 534.545 446.468 533.788 446.468 532.839C446.468 531.743 446.836 530.911 447.571 530.342C448.307 529.774 449.386 529.49 450.81 529.49L452.981 529.49L452.981 529.235C452.975 528.45 452.776 527.88 452.383 527.526C451.991 527.171 451.364 526.994 450.502 526.994C449.952 526.994 449.395 527.073 448.832 527.231C448.27 527.389 447.722 527.621 447.189 527.925L447.189 526.308C447.787 526.08 448.359 525.908 448.907 525.794C449.455 525.68 449.987 525.623 450.502 525.623C451.317 525.623 452.013 525.743 452.59 525.983C453.167 526.223 453.634 526.584 453.992 527.064C454.214 527.357 454.373 527.719 454.466 528.15C454.56 528.58 454.607 529.226 454.607 530.088Z" fill-rule="evenodd"/>
<path clip-path="url(#TextBounds_4)" d="M466.288 527.89C465.942 527.621 465.59 527.425 465.233 527.301C464.875 527.178 464.483 527.117 464.055 527.117C463.047 527.117 462.277 527.433 461.744 528.066C461.21 528.699 460.944 529.613 460.944 530.808L460.944 535.704L459.318 535.704L459.318 525.86L460.944 525.86L460.944 527.785C461.213 527.088 461.628 526.553 462.187 526.181C462.747 525.809 463.411 525.623 464.178 525.623C464.577 525.623 464.949 525.673 465.294 525.772C465.64 525.872 465.971 526.027 466.288 526.238L466.288 527.89Z" fill-rule="evenodd"/>
<path clip-path="url(#TextBounds_4)" d="M473.143 530.756L472.607 530.756C471.664 530.756 470.953 530.921 470.476 531.252C469.998 531.583 469.759 532.077 469.759 532.733C469.759 533.325 469.938 533.785 470.295 534.113C470.653 534.441 471.148 534.605 471.781 534.605C472.671 534.605 473.372 534.296 473.881 533.678C474.391 533.06 474.649 532.206 474.655 531.116L474.655 530.756L473.143 530.756ZM476.281 530.088L476.281 535.704L474.655 535.704L474.655 534.245C474.309 534.831 473.874 535.263 473.35 535.541C472.825 535.82 472.188 535.959 471.438 535.959C470.436 535.959 469.636 535.676 469.039 535.111C468.441 534.545 468.142 533.788 468.142 532.839C468.142 531.743 468.51 530.911 469.245 530.342C469.98 529.774 471.06 529.49 472.484 529.49L474.655 529.49L474.655 529.235C474.649 528.45 474.45 527.88 474.057 527.526C473.665 527.171 473.038 526.994 472.176 526.994C471.625 526.994 471.069 527.073 470.506 527.231C469.944 527.389 469.396 527.621 468.863 527.925L468.863 526.308C469.46 526.08 470.033 525.908 470.581 525.794C471.129 525.68 471.661 525.623 472.176 525.623C472.991 525.623 473.687 525.743 474.264 525.983C474.841 526.223 475.308 526.584 475.666 527.064C475.888 527.357 476.046 527.719 476.14 528.15C476.234 528.58 476.281 529.226 476.281 530.088Z" fill-rule="evenodd"/>
<path clip-path="url(#TextBounds_4)" d="M481.106 534.465L481.106 539.448L479.48 539.448L479.48 525.86L481.106 525.86L481.106 527.117C481.375 526.631 481.734 526.26 482.183 526.005C482.631 525.75 483.148 525.623 483.734 525.623C484.923 525.623 485.856 526.083 486.533 527.003C487.21 527.923 487.548 529.197 487.548 530.826C487.548 532.425 487.208 533.681 486.529 534.592C485.849 535.503 484.917 535.959 483.734 535.959C483.136 535.959 482.613 535.831 482.165 535.576C481.717 535.321 481.364 534.951 481.106 534.465ZM485.852 530.791C485.852 529.537 485.654 528.591 485.259 527.952C484.863 527.313 484.276 526.994 483.497 526.994C482.711 526.994 482.117 527.315 481.712 527.956C481.308 528.598 481.106 529.543 481.106 530.791C481.106 532.033 481.308 532.976 481.712 533.621C482.117 534.265 482.711 534.588 483.497 534.588C484.276 534.588 484.863 534.268 485.259 533.63C485.654 532.991 485.852 532.045 485.852 530.791Z" fill-rule="evenodd"/>
<path clip-path="url(#TextBounds_4)" d="M498.491 529.973L498.491 530.764L491.486 530.764L491.486 530.817C491.439 532.159 491.695 533.123 492.255 533.709C492.814 534.295 493.604 534.588 494.624 534.588C495.139 534.588 495.678 534.506 496.241 534.342C496.803 534.177 497.404 533.928 498.042 533.594L498.042 535.203C497.427 535.455 496.834 535.644 496.263 535.77C495.691 535.896 495.139 535.959 494.606 535.959C493.077 535.959 491.881 535.5 491.02 534.583C490.159 533.666 489.728 532.402 489.728 530.791C489.728 529.22 490.15 527.967 490.994 527.029C491.837 526.092 492.962 525.623 494.369 525.623C495.623 525.623 496.611 526.048 497.335 526.897C498.059 527.747 498.444 528.772 498.491 529.973ZM496.874 529.499C496.803 528.819 496.556 528.232 496.131 527.737C495.706 527.241 495.095 526.994 494.298 526.994C493.519 526.994 492.877 527.252 492.374 527.767C491.87 528.283 491.594 528.863 491.547 529.508L496.874 529.499Z" fill-rule="evenodd"/>
<path clip-path="url(#TextBounds_4)" d="M504.88 523.065L504.88 525.86L508.554 525.86L508.554 527.117L504.88 527.117L504.88 532.461C504.88 533.187 505.018 533.694 505.293 533.981C505.569 534.268 506.049 534.412 506.735 534.412L508.554 534.412L508.554 535.704L506.577 535.704C505.364 535.704 504.508 535.461 504.01 534.974C503.512 534.488 503.263 533.65 503.263 532.461L503.263 527.117L500.635 527.117L500.635 525.86L503.263 525.86L503.263 523.065L504.88 523.065Z" fill-rule="evenodd"/>
</g>
<path d="M-257.727 776.658C-259.606 777.128-261.485 777.598-263.365 778.068" fill="none" fill-rule="evenodd" opacity="1" stroke="#ffd02f" stroke-dasharray="" stroke-linecap="round" stroke-linejoin="round" stroke-width="3"/>
<path d="M1056.47 329.914L1038.23 303.23L1061.11 316.016L1045.18 280.717L1063.13 295.448L1067.48 270.71L1076.45 310.457L1084.85 293.502L1088.9 317.962L1081.95 330.469" fill="none" fill-rule="evenodd" opacity="0.498077" stroke="#ffd02f" stroke-dasharray="" stroke-linecap="round" stroke-linejoin="round" stroke-width="3"/>
<g fill="#ffd02f" opacity="0.498077" stroke="none">
<path clip-path="url(#TextBounds_5)" d="M1048.74 355.438L1051.83 343.81L1053.66 343.81L1049.82 356.932L1047.67 356.932L1043.83 343.81L1045.66 343.81L1048.74 355.438Z" fill-rule="evenodd"/>
<path clip-path="url(#TextBounds_5)" d="M1064.01 351.201L1064.01 351.992L1057 351.992L1057 352.045C1056.96 353.387 1057.21 354.351 1057.77 354.937C1058.33 355.522 1059.12 355.815 1060.14 355.815C1060.66 355.815 1061.19 355.733 1061.76 355.569C1062.32 355.405 1062.92 355.156 1063.56 354.822L1063.56 356.431C1062.94 356.683 1062.35 356.872 1061.78 356.998C1061.21 357.124 1060.66 357.187 1060.12 357.187C1058.59 357.187 1057.4 356.728 1056.54 355.811C1055.68 354.894 1055.24 353.63 1055.24 352.019C1055.24 350.448 1055.67 349.194 1056.51 348.257C1057.35 347.319 1058.48 346.851 1059.89 346.851C1061.14 346.851 1062.13 347.275 1062.85 348.125C1063.57 348.975 1063.96 350 1064.01 351.201ZM1062.39 350.727C1062.32 350.047 1062.07 349.459 1061.65 348.964C1061.22 348.469 1060.61 348.222 1059.81 348.222C1059.04 348.222 1058.39 348.48 1057.89 348.995C1057.39 349.511 1057.11 350.091 1057.06 350.735L1062.39 350.727Z" fill-rule="evenodd"/>
<path clip-path="url(#TextBounds_5)" d="M1072.54 351.931C1072.54 350.718 1072.34 349.796 1071.95 349.167C1071.55 348.537 1070.98 348.222 1070.22 348.222C1069.43 348.222 1068.83 348.537 1068.41 349.167C1067.99 349.796 1067.79 350.718 1067.79 351.931C1067.79 353.144 1068 354.068 1068.41 354.704C1068.83 355.339 1069.44 355.657 1070.24 355.657C1070.98 355.657 1071.55 355.338 1071.95 354.699C1072.34 354.061 1072.54 353.138 1072.54 351.931ZM1074.16 356.299C1074.16 357.775 1073.81 358.895 1073.11 359.656C1072.42 360.418 1071.39 360.799 1070.04 360.799C1069.59 360.799 1069.13 360.758 1068.64 360.676C1068.15 360.594 1067.67 360.474 1067.18 360.315L1067.18 358.716C1067.75 358.985 1068.28 359.185 1068.74 359.313C1069.21 359.442 1069.64 359.507 1070.04 359.507C1070.91 359.507 1071.55 359.27 1071.94 358.795C1072.34 358.32 1072.54 357.567 1072.54 356.536L1072.54 356.466L1072.54 355.367C1072.28 355.918 1071.93 356.328 1071.49 356.598C1071.04 356.867 1070.5 357.002 1069.86 357.002C1068.71 357.002 1067.8 356.542 1067.11 355.622C1066.42 354.702 1066.08 353.472 1066.08 351.931C1066.08 350.384 1066.42 349.15 1067.11 348.23C1067.8 347.311 1068.71 346.851 1069.86 346.851C1070.49 346.851 1071.03 346.977 1071.47 347.229C1071.91 347.48 1072.27 347.87 1072.54 348.397L1072.54 347.123L1074.16 347.123L1074.16 356.299Z" fill-rule="evenodd"/>
<path clip-path="url(#TextBounds_5)" d="M1079.26 353.381L1082.35 353.381L1082.35 356.932L1079.26 356.932L1079.26 353.381Z" fill-rule="evenodd"/>
</g>
</g>
</svg>
